SplineFontDB: 3.0
FontName: Tanha
FullName: Tanha
FamilyName: Tanha
Weight: Regular
Copyright: Copyright (c) 2003 by Bitstream, Inc. All Rights Reserved.\nDejaVu changes are in public domain\nChanges by Saber Rastikerdar are in public domain.
Version: 0.10
ItalicAngle: 0
UnderlinePosition: -500
UnderlineWidth: 100
Ascent: 1638
Descent: 410
InvalidEm: 0
LayerCount: 2
Layer: 0 1 "Back" 1
Layer: 1 1 "Fore" 0
XUID: [1021 502 1027637223 1298441]
UniqueID: 4062413
UseUniqueID: 1
FSType: 0
OS2Version: 3
OS2_WeightWidthSlopeOnly: 0
OS2_UseTypoMetrics: 1
CreationTime: 1431850356
ModificationTime: 1528725077
PfmFamily: 33
TTFWeight: 400
TTFWidth: 5
LineGap: 0
VLineGap: 0
Panose: 2 11 6 3 3 8 4 2 2 4
OS2TypoAscent: 2100
OS2TypoAOffset: 0
OS2TypoDescent: -1100
OS2TypoDOffset: 0
OS2TypoLinegap: 0
OS2WinAscent: 2100
OS2WinAOffset: 0
OS2WinDescent: 1100
OS2WinDOffset: 0
HheadAscent: 2100
HheadAOffset: 0
HheadDescent: -1100
HheadDOffset: 0
OS2SubXSize: 1331
OS2SubYSize: 1433
OS2SubXOff: 0
OS2SubYOff: 286
OS2SupXSize: 1331
OS2SupYSize: 1433
OS2SupXOff: 0
OS2SupYOff: 983
OS2StrikeYSize: 102
OS2StrikeYPos: 530
OS2CapHeight: 1638
OS2XHeight: 1082
OS2Vendor: 'PfEd'
OS2CodePages: 00000041.20080000
OS2UnicodeRanges: 80002003.80000000.00000008.00000000
Lookup: 1 9 0 "'fina' Terminal Forms in Arabic lookup 9" { "'fina' Terminal Forms in Arabic lookup 9 subtable"  } ['fina' ('arab' <'KUR ' 'SND ' 'URD ' 'dflt' > ) ]
Lookup: 1 9 0 "'medi' Medial Forms in Arabic lookup 11" { "'medi' Medial Forms in Arabic lookup 11 subtable"  } ['medi' ('arab' <'KUR ' 'SND ' 'URD ' 'dflt' > ) ]
Lookup: 1 9 0 "'init' Initial Forms in Arabic lookup 13" { "'init' Initial Forms in Arabic lookup 13 subtable"  } ['init' ('arab' <'KUR ' 'SND ' 'URD ' 'dflt' > ) ]
Lookup: 4 1 1 "'rlig' Required Ligatures in Arabic lookup 14" { "'rlig' Required Ligatures in Arabic lookup 14 subtable"  } ['rlig' ('arab' <'KUR ' 'dflt' > ) ]

StartChar: exclam
Encoding: 33 33 1
Width: 628
GlyphClass: 2
Flags: W
LayerCount: 2
Fore
SplineSet
175 140.5 m 128,-1,1
 175 198 175 198 215 238 c 128,-1,2
 255 278 255 278 314 279 c 0,3,4
 373 278 373 278 413 238 c 128,-1,5
 453 198 453 198 453 140.5 c 128,-1,6
 453 83 453 83 413 43 c 128,-1,7
 373 3 373 3 314 2 c 0,8,9
 255 3 255 3 215 43 c 128,-1,0
 175 83 175 83 175 140.5 c 128,-1,1
283 1368 m 2,10,-1
 353 1368 l 2,11,12
 422 1368 422 1368 419 1235 c 2,13,-1
 400 461 l 1,14,-1
 235 461 l 1,15,-1
 215 1233 l 2,16,17
 212 1368 212 1368 283 1368 c 2,10,-1
EndSplineSet
EndChar

StartChar: period
Encoding: 46 46 2
Width: 628
VWidth: 2453
GlyphClass: 2
Flags: W
LayerCount: 2
Fore
SplineSet
175.127929688 140.606445312 m 132,-1,1
 175.127929688 198.256835938 175.127929688 198.256835938 215.129882812 238.259765625 c 132,-1,2
 255.1328125 278.26171875 255.1328125 278.26171875 313.959960938 279.438476562 c 4,3,4
 372.787109375 278.26171875 372.787109375 278.26171875 412.790039062 238.259765625 c 132,-1,5
 452.79296875 198.256835938 452.79296875 198.256835938 452.79296875 140.606445312 c 132,-1,6
 452.79296875 82.955078125 452.79296875 82.955078125 412.790039062 42.953125 c 132,-1,7
 372.787109375 2.9501953125 372.787109375 2.9501953125 313.959960938 1.7744140625 c 4,8,9
 255.1328125 2.9501953125 255.1328125 2.9501953125 215.129882812 42.953125 c 132,-1,0
 175.127929688 82.955078125 175.127929688 82.955078125 175.127929688 140.606445312 c 132,-1,1
EndSplineSet
EndChar

StartChar: colon
Encoding: 58 58 3
Width: 627
VWidth: 2453
GlyphClass: 2
Flags: W
LayerCount: 2
Fore
SplineSet
175.127929688 912.796875 m 128,-1,1
 175.127929688 970.447265625 175.127929688 970.447265625 215.129882812 1010.44921875 c 128,-1,2
 255.1328125 1050.45214844 255.1328125 1050.45214844 313.959960938 1051.62890625 c 0,3,4
 372.787109375 1050.45214844 372.787109375 1050.45214844 412.790039062 1010.44921875 c 128,-1,5
 452.79296875 970.447265625 452.79296875 970.447265625 452.79296875 912.796875 c 128,-1,6
 452.79296875 855.145507812 452.79296875 855.145507812 412.790039062 815.142578125 c 128,-1,7
 372.787109375 775.139648438 372.787109375 775.139648438 313.959960938 773.963867188 c 0,8,9
 255.1328125 775.139648438 255.1328125 775.139648438 215.129882812 815.142578125 c 128,-1,0
 175.127929688 855.145507812 175.127929688 855.145507812 175.127929688 912.796875 c 128,-1,1
175.127929688 140.606445312 m 128,-1,11
 175.127929688 198.256835938 175.127929688 198.256835938 215.129882812 238.259765625 c 128,-1,12
 255.1328125 278.26171875 255.1328125 278.26171875 313.959960938 279.438476562 c 0,13,14
 372.787109375 278.26171875 372.787109375 278.26171875 412.790039062 238.259765625 c 128,-1,15
 452.79296875 198.256835938 452.79296875 198.256835938 452.79296875 140.606445312 c 128,-1,16
 452.79296875 82.955078125 452.79296875 82.955078125 412.790039062 42.953125 c 128,-1,17
 372.787109375 2.9501953125 372.787109375 2.9501953125 313.959960938 1.7744140625 c 0,18,19
 255.1328125 2.9501953125 255.1328125 2.9501953125 215.129882812 42.953125 c 128,-1,10
 175.127929688 82.955078125 175.127929688 82.955078125 175.127929688 140.606445312 c 128,-1,11
EndSplineSet
EndChar

StartChar: afii57388
Encoding: 1548 1548 5
Width: 711
VWidth: 2460
GlyphClass: 2
Flags: W
LayerCount: 2
Fore
SplineSet
362.901367188 0.0205078125 m 4,0,1
 226.64453125 2.236328125 226.64453125 2.236328125 209.127929688 124.504882812 c 4,2,3
 199.30859375 193.047851562 199.30859375 193.047851562 219.75390625 285.102539062 c 4,4,5
 265.904296875 516.3671875 265.904296875 516.3671875 460.435546875 661.076171875 c 5,6,-1
 520.865234375 623.487304688 l 5,7,8
 364.181640625 488.358398438 364.181640625 488.358398438 349.831054688 283.223632812 c 5,9,10
 454.965820312 284.875976562 454.965820312 284.875976562 492.810546875 237.754882812 c 4,11,12
 531.141601562 190.9609375 531.141601562 190.9609375 523.8046875 109.95703125 c 4,13,14
 512.358398438 -2.0869140625 512.358398438 -2.0869140625 362.901367188 0.0205078125 c 4,0,1
EndSplineSet
EndChar

StartChar: uni0615
Encoding: 1557 1557 6
Width: -29
VWidth: 2522
GlyphClass: 4
Flags: W
AnchorPoint: "Anchor-10" 610.859 1513.4 mark 0
AnchorPoint: "Anchor-9" 610.859 1513.4 mark 0
AnchorPoint: "Anchor-1" 624.008 2277.57 basemark 0
AnchorPoint: "Anchor-1" 610.859 1513.4 mark 0
LayerCount: 2
Fore
SplineSet
515.500976562 1672.81054688 m 1,0,-1
 628.9609375 1672.81054688 l 2,1,2
 723.974609375 1672.81054688 723.974609375 1672.81054688 783.770507812 1708.57519531 c 128,-1,3
 843.565429688 1744.33886719 843.565429688 1744.33886719 843.565429688 1785.54101562 c 128,-1,4
 843.565429688 1826.7421875 843.565429688 1826.7421875 816.188476562 1841.57128906 c 0,5,6
 720.525390625 1894.96289062 720.525390625 1894.96289062 515.500976562 1672.81054688 c 1,0,-1
925.62109375 1795.84277344 m 0,7,8
 925.947265625 1590.79199219 925.947265625 1590.79199219 657.434570312 1590.79199219 c 2,9,-1
 323.6328125 1590.79199219 l 1,10,-1
 323.6328125 1672.81054688 l 1,11,-1
 423.913085938 1672.81054688 l 1,12,-1
 423.913085938 2166.75683594 l 1,13,-1
 507.1640625 2165.71386719 l 1,14,-1
 506.294921875 1750.93554688 l 1,15,16
 699.491210938 1970.03515625 699.491210938 1970.03515625 838.5625 1919.9609375 c 0,17,18
 925.944335938 1887.59667969 925.944335938 1887.59667969 925.62109375 1795.84277344 c 0,7,8
EndSplineSet
EndChar

StartChar: uni061B
Encoding: 1563 1563 7
Width: 711
VWidth: 2460
GlyphClass: 2
Flags: W
LayerCount: 2
Fore
SplineSet
227.302734375 140.606445312 m 128,-1,1
 227.302734375 198.256835938 227.302734375 198.256835938 267.3046875 238.259765625 c 128,-1,2
 307.307617188 278.26171875 307.307617188 278.26171875 366.134765625 279.438476562 c 0,3,4
 424.961914062 278.26171875 424.961914062 278.26171875 464.96484375 238.259765625 c 128,-1,5
 504.96875 198.256835938 504.96875 198.256835938 504.96875 140.606445312 c 128,-1,6
 504.96875 82.955078125 504.96875 82.955078125 464.96484375 42.953125 c 128,-1,7
 424.961914062 2.9501953125 424.961914062 2.9501953125 366.134765625 1.7744140625 c 0,8,9
 307.307617188 2.9501953125 307.307617188 2.9501953125 267.3046875 42.953125 c 128,-1,0
 227.302734375 82.955078125 227.302734375 82.955078125 227.302734375 140.606445312 c 128,-1,1
362.901367188 459.16015625 m 0,10,11
 226.439453125 461.2265625 226.439453125 461.2265625 209.127929688 583.64453125 c 0,12,13
 200.3515625 648.013671875 200.3515625 648.013671875 219.75390625 744.243164062 c 0,14,15
 267.135742188 976.715820312 267.135742188 976.715820312 460.435546875 1120.21679688 c 1,16,-1
 520.865234375 1082.62695312 l 1,17,18
 364.181640625 947.498046875 364.181640625 947.498046875 349.831054688 742.36328125 c 1,19,20
 454.965820312 744.015625 454.965820312 744.015625 492.810546875 696.89453125 c 0,21,22
 531.141601562 650.100585938 531.141601562 650.100585938 523.8046875 569.096679688 c 0,23,24
 512.358398438 457.052734375 512.358398438 457.052734375 362.901367188 459.16015625 c 0,10,11
EndSplineSet
EndChar

StartChar: uni061F
Encoding: 1567 1567 8
Width: 902
GlyphClass: 2
Flags: W
LayerCount: 2
Fore
SplineSet
415 140.5 m 128,-1,1
 415 198 415 198 455 238 c 128,-1,2
 495 278 495 278 553 279 c 0,3,4
 612 278 612 278 652 238 c 128,-1,5
 692 198 692 198 692 140.5 c 128,-1,6
 692 83 692 83 652 43 c 128,-1,7
 612 3 612 3 553 2 c 0,8,9
 495 3 495 3 455 43 c 128,-1,0
 415 83 415 83 415 140.5 c 128,-1,1
456 458 m 1,10,-1
 456 467 l 2,11,12
 456 544 456 544 354 628 c 2,13,-1
 234 725 l 2,14,15
 82 849 82 849 83 1017 c 0,16,17
 84 1162 84 1162 203 1268 c 0,18,19
 312 1367 312 1367 475 1367 c 0,20,21
 701 1367 701 1367 810 1214 c 0,22,23
 826 1191 826 1191 814 1175 c 2,24,-1
 742 1081 l 2,25,26
 727 1061 727 1061 711 1081 c 0,27,28
 618 1194 618 1194 483 1192 c 0,29,30
 396 1190 396 1190 325 1130 c 0,31,32
 258 1073 258 1073 264 991 c 0,33,34
 270 914 270 914 389 816 c 2,35,-1
 510 715 l 2,36,37
 653 598 653 598 653 470 c 2,38,-1
 653 458 l 1,39,-1
 456 458 l 1,10,-1
EndSplineSet
EndChar

StartChar: uni0621
Encoding: 1569 1569 9
Width: 926
VWidth: 2619
GlyphClass: 2
Flags: W
AnchorPoint: "Anchor-7" 465.419 -157.726 basechar 0
AnchorPoint: "Anchor-10" 478.988 1169.14 basechar 0
LayerCount: 2
Fore
SplineSet
142.915039062 4.5390625 m 1,0,-1
 142.915039062 198.762695312 l 1,1,2
 258.788085938 273.397460938 258.788085938 273.397460938 342.267578125 299.484375 c 1,3,4
 154.438476562 397.573242188 154.438476562 397.573242188 151.240234375 542.620117188 c 0,5,6
 149.220703125 632.361328125 149.220703125 632.361328125 180.44140625 701.232421875 c 0,7,8
 259.831054688 876.540039062 259.831054688 876.540039062 461.2265625 880.61328125 c 0,9,10
 622.969726562 883.844726562 622.969726562 883.844726562 733.580078125 784.711914062 c 1,11,-1
 677.231445312 657.405273438 l 1,12,13
 587.490234375 709.580078125 587.490234375 709.580078125 501.91015625 708.850585938 c 0,14,15
 421.978515625 708.635742188 421.978515625 708.635742188 376.703125 678.752929688 c 0,16,17
 317.014648438 639.35546875 317.014648438 639.35546875 312.734375 556.802734375 c 0,18,19
 307.83203125 464.357421875 307.83203125 464.357421875 506.877929688 379.982421875 c 1,20,-1
 762.798828125 432.008789062 l 1,21,-1
 789.9296875 244.178710938 l 1,22,23
 518.619140625 216.004882812 518.619140625 216.004882812 142.915039062 4.5390625 c 1,0,-1
EndSplineSet
EndChar

StartChar: uni0627
Encoding: 1575 1575 15
Width: 482
GlyphClass: 2
Flags: W
AnchorPoint: "Anchor-10" 203.183 1493.45 basechar 0
AnchorPoint: "Anchor-7" 236.281 -212.565 basechar 0
LayerCount: 2
Fore
SplineSet
286 1297 m 0,0,1
 333 917 333 917 336 692 c 0,2,3
 340 147 340 147 281 2 c 1,4,-1
 147 2 l 1,5,6
 182 206 182 206 175 683 c 0,7,8
 173 831 173 831 130 1291 c 0,9,10
 124 1352 124 1352 167 1352 c 2,11,-1
 238 1352 l 2,12,13
 279 1352 279 1352 286 1297 c 0,0,1
EndSplineSet
Substitution2: "'fina' Terminal Forms in Arabic lookup 9 subtable" uniFE8E
EndChar

StartChar: uni062D
Encoding: 1581 1581 21
Width: 1297
GlyphClass: 2
Flags: W
AnchorPoint: "Anchor-7" 559.281 -871.565 basechar 0
AnchorPoint: "Anchor-10" 601.183 1121.91 basechar 0
LayerCount: 2
Fore
SplineSet
308 -216 m 0,0,1
 308 -542 308 -542 728 -542 c 0,2,3
 923 -542 923 -542 1108 -467 c 0,4,5
 1175 -440 1175 -440 1185 -487 c 2,6,-1
 1201 -562 l 2,7,8
 1212 -614 1212 -614 1152 -639 c 0,9,10
 970 -716 970 -716 717 -716 c 0,11,12
 464 -715 464 -715 326 -614 c 0,13,14
 140 -481 140 -481 141 -219 c 0,15,16
 143 315 143 315 796 539 c 1,17,18
 578 596 578 596 454 592 c 0,19,20
 337 589 337 589 189 398 c 1,21,-1
 63 472 l 1,22,23
 238 758 238 758 447 772 c 0,24,25
 570 779 570 779 791 725 c 0,26,27
 997 675 997 675 1125 619 c 0,28,29
 1177 596 1177 596 1173 567 c 2,30,-1
 1163 504 l 2,31,32
 1156 456 1156 456 1094 450 c 0,33,34
 909 432 909 432 694 319 c 0,35,36
 309 116 309 116 308 -216 c 0,0,1
EndSplineSet
Substitution2: "'fina' Terminal Forms in Arabic lookup 9 subtable" uniFEA2
Substitution2: "'medi' Medial Forms in Arabic lookup 11 subtable" uniFEA4
Substitution2: "'init' Initial Forms in Arabic lookup 13 subtable" uniFEA3
EndChar

StartChar: uni062F
Encoding: 1583 1583 23
Width: 998
GlyphClass: 2
Flags: W
AnchorPoint: "Anchor-10" 469.183 1337.91 basechar 0
AnchorPoint: "Anchor-7" 421.281 -187.565 basechar 0
LayerCount: 2
Fore
SplineSet
442 184 m 0,0,1
 732.081632653 199.16106094 732.081632653 199.16106094 732.081632653 355.53394419 c 4,2,3
 732.081632653 432.346938776 732.081632653 432.346938776 687 511 c 0,4,5
 596 667 596 667 464 769 c 0,6,7
 422.873417722 800.746835443 422.873417722 800.746835443 422.873417722 825.726005448 c 0,8,9
 422.873417722 835.367088608 422.873417722 835.367088608 429 844 c 2,10,-1
 487 929 l 2,11,12
 503.539325843 952.775280899 503.539325843 952.775280899 524.887135463 952.775280899 c 0,13,14
 544.842696629 952.775280899 544.842696629 952.775280899 569 932 c 0,15,16
 895.489637306 657.932642487 895.489637306 657.932642487 895.489637306 381.327800746 c 0,17,18
 895.489637306 357.17357513 895.489637306 357.17357513 893 333 c 0,19,20
 859 5 859 5 439 -3 c 0,21,22
 421.75 -3.32142857143 421.75 -3.32142857143 405.0625 -3.32142857143 c 0,23,24
 266 -3.32142857143 266 -3.32142857143 166 19 c 0,25,26
 105 32 105 32 105 91 c 2,27,-1
 105 175 l 2,28,29
 105 217.882352941 105 217.882352941 149.143598616 217.882352941 c 0,30,31
 160.588235294 217.882352941 160.588235294 217.882352941 175 215 c 0,32,33
 333.846153846 183.58974359 333.846153846 183.58974359 422.623274162 183.58974359 c 0,34,35
 432.769230769 183.58974359 432.769230769 183.58974359 442 184 c 0,0,1
EndSplineSet
Substitution2: "'fina' Terminal Forms in Arabic lookup 9 subtable" uniFEAA
EndChar

StartChar: uni0630
Encoding: 1584 1584 24
Width: 998
GlyphClass: 2
Flags: W
AnchorPoint: "Anchor-7" 421.281 -187.565 basechar 0
AnchorPoint: "Anchor-10" 489.183 1547.91 basechar 0
LayerCount: 2
Fore
SplineSet
439 -3 m 1024
EndSplineSet
Refer: 23 1583 N 1 0 0 1 0 0 2
Refer: 264 -1 N 1.06995 0 0 1.06995 407 1187 2
Substitution2: "'fina' Terminal Forms in Arabic lookup 9 subtable" uniFEAC
EndChar

StartChar: uni0631
Encoding: 1585 1585 25
Width: 835
GlyphClass: 2
Flags: W
AnchorPoint: "Anchor-7" 337.281 -673.565 basechar 0
AnchorPoint: "Anchor-10" 535.183 1007.91 basechar 0
LayerCount: 2
Fore
SplineSet
689 -96 m 0,0,1
 555 -446 555 -446 121 -504 c 0,2,3
 96 -507 96 -507 81 -488 c 2,4,-1
 30 -421 l 2,5,6
 4 -386 4 -386 43 -377 c 0,7,8
 533 -257 533 -257 568 114 c 0,9,10
 576 203 576 203 564 445 c 0,11,12
 561 505 561 505 606 515 c 2,13,-1
 688 532 l 2,14,15
 736 542 736 542 739 473 c 0,16,17
 744 339 744 339 744 247 c 0,18,19
 744 47 744 47 689 -96 c 0,0,1
EndSplineSet
PairPos2: "'kern' Horizontal Kerning lookup 15-1" uniFEE7 dx=-157 dy=0 dh=-157 dv=0 dx=0 dy=0 dh=0 dv=0
PairPos2: "'kern' Horizontal Kerning lookup 15-2" uniFB90 dx=-198 dy=0 dh=-198 dv=0 dx=0 dy=0 dh=0 dv=0
PairPos2: "'kern' Horizontal Kerning lookup 15-2" uniFB8E dx=-198 dy=0 dh=-198 dv=0 dx=0 dy=0 dh=0 dv=0
PairPos2: "'kern' Horizontal Kerning lookup 15-2" uni06A9 dx=-198 dy=0 dh=-198 dv=0 dx=0 dy=0 dh=0 dv=0
PairPos2: "'kern' Horizontal Kerning lookup 15-2" uni064A dx=-52 dy=0 dh=-52 dv=0 dx=0 dy=0 dh=0 dv=0
PairPos2: "'kern' Horizontal Kerning lookup 15-2" afii57414 dx=-52 dy=0 dh=-52 dv=0 dx=0 dy=0 dh=0 dv=0
PairPos2: "'kern' Horizontal Kerning lookup 15-2" uni0649 dx=-52 dy=0 dh=-52 dv=0 dx=0 dy=0 dh=0 dv=0
PairPos2: "'kern' Horizontal Kerning lookup 15-2" uni0648 dx=-52 dy=0 dh=-52 dv=0 dx=0 dy=0 dh=0 dv=0
PairPos2: "'kern' Horizontal Kerning lookup 15-2" afii57412 dx=-52 dy=0 dh=-52 dv=0 dx=0 dy=0 dh=0 dv=0
PairPos2: "'kern' Horizontal Kerning lookup 15-2" uniFEEB dx=-157 dy=0 dh=-157 dv=0 dx=0 dy=0 dh=0 dv=0
PairPos2: "'kern' Horizontal Kerning lookup 15-2" uni0647 dx=-157 dy=0 dh=-157 dv=0 dx=0 dy=0 dh=0 dv=0
PairPos2: "'kern' Horizontal Kerning lookup 15-2" uni0646 dx=-52 dy=0 dh=-52 dv=0 dx=0 dy=0 dh=0 dv=0
PairPos2: "'kern' Horizontal Kerning lookup 15-2" uniFEE3 dx=-157 dy=0 dh=-157 dv=0 dx=0 dy=0 dh=0 dv=0
PairPos2: "'kern' Horizontal Kerning lookup 15-2" uni0645 dx=-157 dy=0 dh=-157 dv=0 dx=0 dy=0 dh=0 dv=0
PairPos2: "'kern' Horizontal Kerning lookup 15-2" uniFEFB dx=-157 dy=0 dh=-157 dv=0 dx=0 dy=0 dh=0 dv=0
PairPos2: "'kern' Horizontal Kerning lookup 15-2" uniFEDF dx=-157 dy=0 dh=-157 dv=0 dx=0 dy=0 dh=0 dv=0
PairPos2: "'kern' Horizontal Kerning lookup 15-2" uni0644 dx=-52 dy=0 dh=-52 dv=0 dx=0 dy=0 dh=0 dv=0
PairPos2: "'kern' Horizontal Kerning lookup 15-2" uniFEDB dx=-198 dy=0 dh=-198 dv=0 dx=0 dy=0 dh=0 dv=0
PairPos2: "'kern' Horizontal Kerning lookup 15-2" uni0643 dx=-157 dy=0 dh=-157 dv=0 dx=0 dy=0 dh=0 dv=0
PairPos2: "'kern' Horizontal Kerning lookup 15-2" uniFED7 dx=-157 dy=0 dh=-157 dv=0 dx=0 dy=0 dh=0 dv=0
PairPos2: "'kern' Horizontal Kerning lookup 15-2" uni0642 dx=-52 dy=0 dh=-52 dv=0 dx=0 dy=0 dh=0 dv=0
PairPos2: "'kern' Horizontal Kerning lookup 15-2" uniFED3 dx=-157 dy=0 dh=-157 dv=0 dx=0 dy=0 dh=0 dv=0
PairPos2: "'kern' Horizontal Kerning lookup 15-2" uni0641 dx=-157 dy=0 dh=-157 dv=0 dx=0 dy=0 dh=0 dv=0
PairPos2: "'kern' Horizontal Kerning lookup 15-2" uniFECF dx=-157 dy=0 dh=-157 dv=0 dx=0 dy=0 dh=0 dv=0
PairPos2: "'kern' Horizontal Kerning lookup 15-2" uniFECB dx=-157 dy=0 dh=-157 dv=0 dx=0 dy=0 dh=0 dv=0
PairPos2: "'kern' Horizontal Kerning lookup 15-2" uniFEC7 dx=-157 dy=0 dh=-157 dv=0 dx=0 dy=0 dh=0 dv=0
PairPos2: "'kern' Horizontal Kerning lookup 15-2" uni0638 dx=-157 dy=0 dh=-157 dv=0 dx=0 dy=0 dh=0 dv=0
PairPos2: "'kern' Horizontal Kerning lookup 15-2" uniFEC3 dx=-157 dy=0 dh=-157 dv=0 dx=0 dy=0 dh=0 dv=0
PairPos2: "'kern' Horizontal Kerning lookup 15-2" uni0637 dx=-157 dy=0 dh=-157 dv=0 dx=0 dy=0 dh=0 dv=0
PairPos2: "'kern' Horizontal Kerning lookup 15-2" uniFEBF dx=-157 dy=0 dh=-157 dv=0 dx=0 dy=0 dh=0 dv=0
PairPos2: "'kern' Horizontal Kerning lookup 15-2" uni0636 dx=-157 dy=0 dh=-157 dv=0 dx=0 dy=0 dh=0 dv=0
PairPos2: "'kern' Horizontal Kerning lookup 15-2" uniFEBB dx=-157 dy=0 dh=-157 dv=0 dx=0 dy=0 dh=0 dv=0
PairPos2: "'kern' Horizontal Kerning lookup 15-2" uni0635 dx=-157 dy=0 dh=-157 dv=0 dx=0 dy=0 dh=0 dv=0
PairPos2: "'kern' Horizontal Kerning lookup 15-2" uniFEB7 dx=-157 dy=0 dh=-157 dv=0 dx=0 dy=0 dh=0 dv=0
PairPos2: "'kern' Horizontal Kerning lookup 15-2" uni0634 dx=-157 dy=0 dh=-157 dv=0 dx=0 dy=0 dh=0 dv=0
PairPos2: "'kern' Horizontal Kerning lookup 15-2" uniFEB3 dx=-157 dy=0 dh=-157 dv=0 dx=0 dy=0 dh=0 dv=0
PairPos2: "'kern' Horizontal Kerning lookup 15-2" uni0633 dx=-157 dy=0 dh=-157 dv=0 dx=0 dy=0 dh=0 dv=0
PairPos2: "'kern' Horizontal Kerning lookup 15-2" uni0632 dx=-52 dy=0 dh=-52 dv=0 dx=0 dy=0 dh=0 dv=0
PairPos2: "'kern' Horizontal Kerning lookup 15-2" uni0631 dx=-52 dy=0 dh=-52 dv=0 dx=0 dy=0 dh=0 dv=0
PairPos2: "'kern' Horizontal Kerning lookup 15-2" uni0630 dx=-157 dy=0 dh=-157 dv=0 dx=0 dy=0 dh=0 dv=0
PairPos2: "'kern' Horizontal Kerning lookup 15-2" uni062F dx=-157 dy=0 dh=-157 dv=0 dx=0 dy=0 dh=0 dv=0
PairPos2: "'kern' Horizontal Kerning lookup 15-2" uniFEA7 dx=-157 dy=0 dh=-157 dv=0 dx=0 dy=0 dh=0 dv=0
PairPos2: "'kern' Horizontal Kerning lookup 15-2" uniFEA3 dx=-157 dy=0 dh=-157 dv=0 dx=0 dy=0 dh=0 dv=0
PairPos2: "'kern' Horizontal Kerning lookup 15-2" uniFE9F dx=-157 dy=0 dh=-157 dv=0 dx=0 dy=0 dh=0 dv=0
PairPos2: "'kern' Horizontal Kerning lookup 15-2" uniFE9B dx=-157 dy=0 dh=-157 dv=0 dx=0 dy=0 dh=0 dv=0
PairPos2: "'kern' Horizontal Kerning lookup 15-2" uni062B dx=-157 dy=0 dh=-157 dv=0 dx=0 dy=0 dh=0 dv=0
PairPos2: "'kern' Horizontal Kerning lookup 15-2" uniFE97 dx=-157 dy=0 dh=-157 dv=0 dx=0 dy=0 dh=0 dv=0
PairPos2: "'kern' Horizontal Kerning lookup 15-2" uni062A dx=-157 dy=0 dh=-157 dv=0 dx=0 dy=0 dh=0 dv=0
PairPos2: "'kern' Horizontal Kerning lookup 15-2" uni0629 dx=-157 dy=0 dh=-157 dv=0 dx=0 dy=0 dh=0 dv=0
PairPos2: "'kern' Horizontal Kerning lookup 15-2" uniFE91 dx=-52 dy=0 dh=-52 dv=0 dx=0 dy=0 dh=0 dv=0
PairPos2: "'kern' Horizontal Kerning lookup 15-2" uni0628 dx=-157 dy=0 dh=-157 dv=0 dx=0 dy=0 dh=0 dv=0
PairPos2: "'kern' Horizontal Kerning lookup 15-2" uni0627 dx=-198 dy=0 dh=-198 dv=0 dx=0 dy=0 dh=0 dv=0
PairPos2: "'kern' Horizontal Kerning lookup 15-2" uni0623 dx=-198 dy=0 dh=-198 dv=0 dx=0 dy=0 dh=0 dv=0
PairPos2: "'kern' Horizontal Kerning lookup 15-2" uni0622 dx=-198 dy=0 dh=-198 dv=0 dx=0 dy=0 dh=0 dv=0
PairPos2: "'kern' Horizontal Kerning lookup 15-2" uni0621 dx=-157 dy=0 dh=-157 dv=0 dx=0 dy=0 dh=0 dv=0
PairPos2: "'kern' Horizontal Kerning lookup 15-2" uniFB94 dx=-198 dy=0 dh=-198 dv=0 dx=0 dy=0 dh=0 dv=0
PairPos2: "'kern' Horizontal Kerning lookup 15-2" uniFB92 dx=-198 dy=0 dh=-198 dv=0 dx=0 dy=0 dh=0 dv=0
PairPos2: "'kern' Horizontal Kerning lookup 15-2" afii57509 dx=-198 dy=0 dh=-198 dv=0 dx=0 dy=0 dh=0 dv=0
PairPos2: "'kern' Horizontal Kerning lookup 15-2" afii57508 dx=-52 dy=0 dh=-52 dv=0 dx=0 dy=0 dh=0 dv=0
PairPos2: "'kern' Horizontal Kerning lookup 15-2" afii57506 dx=-157 dy=0 dh=-157 dv=0 dx=0 dy=0 dh=0 dv=0
PairPos2: "'kern' Horizontal Kerning lookup 15-2" afii57440 dx=-157 dy=0 dh=-157 dv=0 dx=0 dy=0 dh=0 dv=0
PairPos2: "'kern' Horizontal Kerning lookup 15-2" uniFE8B dx=-157 dy=0 dh=-157 dv=0 dx=0 dy=0 dh=0 dv=0
Substitution2: "'fina' Terminal Forms in Arabic lookup 9 subtable" uniFEAE
EndChar

StartChar: uni0633
Encoding: 1587 1587 27
Width: 2535
GlyphClass: 2
Flags: W
AnchorPoint: "Anchor-10" 1811.18 1194.91 basechar 0
AnchorPoint: "Anchor-7" 656.281 -732.565 basechar 0
LayerCount: 2
Fore
SplineSet
1560 180 m 0,0,1
 1762 184 1762 184 1773 409 c 2,2,-1
 1776 476 l 2,3,4
 1779 534 1779 534 1829 534 c 2,5,-1
 1884 534 l 2,6,7
 1932 534 1932 534 1928 455 c 2,8,-1
 1923 354 l 2,9,10
 1915 178 1915 178 2097 180 c 0,11,12
 2267 182 2267 182 2257 428 c 0,13,14
 2254 504 2254 504 2231 592 c 0,15,16
 2211 672 2211 672 2251 688 c 2,17,-1
 2317 715 l 2,18,19
 2379 740 2379 740 2400 664 c 0,20,21
 2433 545 2433 545 2435 445 c 0,22,23
 2438 0 2438 0 2106 0 c 0,24,25
 1921 0 1921 0 1838 142 c 1,26,27
 1701 1 1701 1 1566 0 c 0,28,29
 1413 -1 1413 -1 1383 63 c 1,30,31
 1346 -528 1346 -528 704 -526 c 0,32,33
 104 -524 104 -524 105 -22 c 0,34,35
 106 278 106 278 334 563 c 0,36,37
 378 618 378 618 424 586 c 2,38,-1
 474 552 l 2,39,40
 510 527 510 527 466 463 c 0,41,42
 275 191 275 191 277 -5 c 0,43,44
 279 -352 279 -352 734 -349 c 0,45,46
 1188 -345 1188 -345 1208 44 c 0,47,48
 1219 260 1219 260 1205 385 c 0,49,50
 1195 477 1195 477 1247 501 c 2,51,-1
 1297 524 l 2,52,53
 1381 563 1381 563 1382 473 c 0,54,55
 1384 308 1384 308 1393 282 c 0,56,57
 1429 178 1429 178 1560 180 c 0,0,1
EndSplineSet
Substitution2: "'fina' Terminal Forms in Arabic lookup 9 subtable" uniFEB2
Substitution2: "'medi' Medial Forms in Arabic lookup 11 subtable" uniFEB4
Substitution2: "'init' Initial Forms in Arabic lookup 13 subtable" uniFEB3
EndChar

StartChar: uni0635
Encoding: 1589 1589 29
Width: 2632
GlyphClass: 2
Flags: W
AnchorPoint: "Anchor-7" 656.281 -732.565 basechar 0
AnchorPoint: "Anchor-10" 2059.18 1210.91 basechar 0
LayerCount: 2
Fore
SplineSet
2191 818 m 0,0,1
 2357 818 2357 818 2448 717 c 0,2,3
 2530 626 2530 626 2531 491 c 0,4,5
 2532 396 2532 396 2486 296 c 0,6,7
 2352 3 2352 3 1691 0 c 2,8,-1
 1631 0 l 2,9,10
 1457 -1 1457 -1 1383 63 c 1,11,12
 1346 -528 1346 -528 704 -526 c 0,13,14
 104 -524 104 -524 105 -22 c 0,15,16
 106 278 106 278 334 563 c 0,17,18
 378 618 378 618 424 586 c 2,19,-1
 474 552 l 2,20,21
 510 527 510 527 466 463 c 0,22,23
 276 187 276 187 277 -5 c 0,24,25
 279 -352 279 -352 734 -349 c 0,26,27
 1187 -345 1187 -345 1208 44 c 0,28,29
 1219 260 1219 260 1205 385 c 0,30,31
 1195 477 1195 477 1247 501 c 2,32,-1
 1297 524 l 2,33,34
 1381 563 1381 563 1382 473 c 0,35,36
 1384 313 1384 313 1393 282 c 0,37,38
 1409 224 1409 224 1455 208 c 1,39,40
 1854 818 1854 818 2191 818 c 0,0,1
1707 181 m 2,41,42
 2346 181 2346 181 2347 466 c 0,43,44
 2348 627 2348 627 2170 627 c 0,45,46
 1983 627 1983 627 1625 181 c 1,47,-1
 1707 181 l 2,41,42
EndSplineSet
Substitution2: "'fina' Terminal Forms in Arabic lookup 9 subtable" uniFEBA
Substitution2: "'medi' Medial Forms in Arabic lookup 11 subtable" uniFEBC
Substitution2: "'init' Initial Forms in Arabic lookup 13 subtable" uniFEBB
EndChar

StartChar: uni0637
Encoding: 1591 1591 31
Width: 1494
GlyphClass: 2
Flags: W
AnchorPoint: "Anchor-7" 556.281 -204.565 basechar 0
AnchorPoint: "Anchor-10" 447.183 1497.45 basechar 0
LayerCount: 2
Fore
SplineSet
552 500 m 1,0,1
 562 513 562 513 573 526 c 0,2,3
 828 818 828 818 1053 818 c 0,4,5
 1219 818 1219 818 1310 717 c 0,6,7
 1393 625 1393 625 1393 491 c 0,8,9
 1394 393 1394 393 1348 296 c 0,10,11
 1209 0 1209 0 553 0 c 2,12,-1
 338 0 l 2,13,14
 187 0 187 0 127 100 c 0,15,16
 80 180 80 180 165 180 c 2,17,-1
 338 180 l 1,18,19
 379 256 379 256 394 375 c 0,20,21
 405 459 405 459 406 772 c 0,22,23
 406 1097 406 1097 383 1286 c 0,24,25
 376 1348 376 1348 420 1349 c 2,26,-1
 485 1350 l 2,27,28
 534 1351 534 1351 543 1286 c 0,29,30
 575 1055 575 1055 570 785 c 0,31,32
 567 585 567 585 552 500 c 1,0,1
487 181 m 1,33,-1
 569 181 l 2,34,35
 1210 181 1210 181 1209 466 c 0,36,37
 1209 627 1209 627 1032 627 c 0,38,39
 845 627 845 627 487 181 c 1,33,-1
EndSplineSet
Substitution2: "'fina' Terminal Forms in Arabic lookup 9 subtable" uniFEC2
Substitution2: "'medi' Medial Forms in Arabic lookup 11 subtable" uniFEC4
Substitution2: "'init' Initial Forms in Arabic lookup 13 subtable" uniFEC3
EndChar

StartChar: uni0639
Encoding: 1593 1593 33
Width: 1277
GlyphClass: 2
Flags: W
AnchorPoint: "Anchor-7" 559.281 -871.565 basechar 0
AnchorPoint: "Anchor-10" 610.183 1364.91 basechar 0
LayerCount: 2
Fore
SplineSet
287 -216 m 0,0,1
 287 -542 287 -542 707 -542 c 0,2,3
 900 -542 900 -542 1087 -467 c 0,4,5
 1154 -440 1154 -440 1164 -487 c 2,6,-1
 1180 -562 l 2,7,8
 1191 -613 1191 -613 1131 -639 c 0,9,10
 950 -716 950 -716 696 -716 c 0,11,12
 443 -715 443 -715 305 -614 c 0,13,14
 119 -481 119 -481 120 -219 c 0,15,16
 121 134 121 134 397 356 c 1,17,18
 203 399 203 399 199 646 c 0,19,20
 196 819 196 819 345 989 c 0,21,22
 473 1133 473 1133 640 1129 c 0,23,24
 936 1120 936 1120 945 782 c 1,25,-1
 827 786 l 1,26,27
 794 973 794 973 594 933 c 0,28,29
 497 914 497 914 422 802 c 0,30,31
 364 715 364 715 363 622 c 0,32,33
 360 499 360 499 533 469 c 1,34,-1
 534 469 l 1,35,36
 608 498 608 498 766 537 c 0,37,38
 883 567 883 567 958 577 c 0,39,40
 1032 587 1032 587 1050 535 c 2,41,-1
 1071 476 l 2,42,43
 1091 418 1091 418 1027 411 c 0,44,45
 747 379 747 379 588 283 c 0,46,47
 288 102 288 102 287 -216 c 0,0,1
EndSplineSet
Substitution2: "'fina' Terminal Forms in Arabic lookup 9 subtable" uniFECA
Substitution2: "'medi' Medial Forms in Arabic lookup 11 subtable" uniFECC
Substitution2: "'init' Initial Forms in Arabic lookup 13 subtable" uniFECB
EndChar

StartChar: afii57440
Encoding: 1600 1600 35
Width: 271
GlyphClass: 2
Flags: W
AnchorPoint: "Anchor-5" 382 1480 basechar 0
AnchorPoint: "Anchor-3" 172 -215 basechar 0
LayerCount: 2
Fore
SplineSet
-74 90 m 2,0,-1
 -74 97 l 2,1,2
 -74 180 -74 180 -5 180 c 2,3,-1
 277 180 l 2,4,5
 303 180 303 180 303 98 c 2,6,-1
 303 88 l 2,7,8
 303 0 303 0 277 0 c 2,9,-1
 -5 0 l 2,10,11
 -74 0 -74 0 -74 90 c 2,0,-1
EndSplineSet
EndChar

StartChar: uni0643
Encoding: 1603 1603 38
Width: 1856
GlyphClass: 2
Flags: W
AnchorPoint: "Anchor-7" 812.281 -194.565 basechar 0
AnchorPoint: "Anchor-10" 997.183 1473.98 basechar 0
LayerCount: 2
Fore
SplineSet
863 152 m 0,0,1
 1129 152 1129 152 1349 204 c 0,2,3
 1482 236 1482 236 1515 299 c 0,4,5
 1555 372 1555 372 1556 772 c 0,6,7
 1556 1097 1556 1097 1533 1286 c 0,8,9
 1526 1348 1526 1348 1570 1349 c 2,10,-1
 1635 1350 l 2,11,12
 1684 1351 1684 1351 1693 1286 c 0,13,14
 1725 1055 1725 1055 1720 785 c 0,15,16
 1716 574 1716 574 1682 344 c 0,17,18
 1655 157 1655 157 1530 86 c 0,19,20
 1386 4 1386 4 1161 -17 c 0,21,22
 1026 -29 1026 -29 839 -29 c 0,23,24
 109 -29 109 -29 107 485 c 0,25,26
 106 631 106 631 176 781 c 0,27,28
 218 868 218 868 265 846 c 2,29,-1
 321 819 l 2,30,31
 362 799 362 799 332 735 c 0,32,33
 275 609 275 609 275 506 c 0,34,35
 274 153 274 153 863 152 c 0,0,1
1189 1232 m 4,36,37
 1189 1167 1189 1167 1158 1163 c 4,38,39
 1070 1154 1070 1154 1016 1128 c 4,40,41
 948 1097 948 1097 949 1054 c 4,42,43
 949 990 949 990 1058 973 c 4,44,45
 1199 952 1199 952 1199 846 c 4,46,47
 1200 720 1200 720 1080 652 c 4,48,49
 970 591 970 591 764 620 c 4,50,51
 738 623 738 623 738 651 c 6,52,-1
 738 705 l 6,53,54
 738 729 738 729 769 725 c 4,55,56
 878 713 878 713 936 718 c 4,57,58
 1084 734 1084 734 1098 821 c 4,59,60
 1107 874 1107 874 1012 889 c 4,61,62
 848 915 848 915 849 1059 c 4,63,64
 849 1150 849 1150 945 1206 c 4,65,66
 1024 1253 1024 1253 1166 1262 c 4,67,68
 1189 1264 1189 1264 1189 1232 c 4,36,37
EndSplineSet
Substitution2: "'fina' Terminal Forms in Arabic lookup 9 subtable" uniFEDA
Substitution2: "'medi' Medial Forms in Arabic lookup 11 subtable" uniFEDC
Substitution2: "'init' Initial Forms in Arabic lookup 13 subtable" uniFEDB
EndChar

StartChar: uni0644
Encoding: 1604 1604 39
Width: 1483
GlyphClass: 2
Flags: W
AnchorPoint: "Anchor-7" 644.281 -712.565 basechar 0
AnchorPoint: "Anchor-10" 701.183 1136.91 basechar 0
LayerCount: 2
Fore
SplineSet
723.695118802 -349.045454545 m 0,0,1
 1107.39682169 -349.045454545 1107.39682169 -349.045454545 1166 44 c 0,2,3
 1186.54716981 184.094339623 1186.54716981 184.094339623 1186.54716981 415.294054824 c 0,4,5
 1186.54716981 555.41509434 1186.54716981 555.41509434 1179 729 c 0,6,7
 1164 1086 1164 1086 1147 1279 c 0,8,9
 1146.30769231 1287.07692308 1146.30769231 1287.07692308 1146.30769231 1294.22189349 c 0,10,11
 1146.30769231 1349 1146.30769231 1349 1187 1349 c 2,12,-1
 1250 1349 l 2,13,14
 1296 1349 1296 1349 1302 1286 c 0,15,16
 1313 1157 1313 1157 1333 812 c 0,17,18
 1349.82 526.64 1349.82 526.64 1349.82 320.334 c 0,19,20
 1349.82 170.94 1349.82 170.94 1341 63 c 0,21,22
 1294.15851602 -526.006745363 1294.15851602 -526.006745363 707.973587299 -526.006745363 c 0,23,24
 104.998336106 -526.006745363 104.998336106 -526.006745363 104.998336106 -23.6691648141 c 0,25,26
 104.998336106 276.747920133 104.998336106 276.747920133 334 563 c 0,27,28
 361.816091954 597.770114943 361.816091954 597.770114943 390.431496895 597.770114943 c 0,29,30
 407.08045977 597.770114943 407.08045977 597.770114943 424 586 c 2,31,-1
 474 552 l 2,32,33
 490.2 540.75 490.2 540.75 490.2 521.6025 c 0,34,35
 490.2 498.2 490.2 498.2 466 463 c 0,36,37
 276.979274611 193.81865285 276.979274611 193.81865285 276.979274611 -0.929662541276 c 0,38,39
 276.979274611 -349.045454545 276.979274611 -349.045454545 723.695118802 -349.045454545 c 0,0,1
EndSplineSet
Substitution2: "'fina' Terminal Forms in Arabic lookup 9 subtable" uniFEDE
Substitution2: "'medi' Medial Forms in Arabic lookup 11 subtable" uniFEE0
Substitution2: "'init' Initial Forms in Arabic lookup 13 subtable" uniFEDF
EndChar

StartChar: uni0645
Encoding: 1605 1605 40
Width: 1206
GlyphClass: 2
Flags: W
AnchorPoint: "Anchor-7" 712.281 -406.565 basechar 0
AnchorPoint: "Anchor-10" 639.183 1112.91 basechar 0
LayerCount: 2
Fore
SplineSet
501 191 m 1,0,1
 634 174 634 174 693.347222222 162.326388889 c 128,-1,2
 752.694444444 150.652777778 752.694444444 150.652777778 801.3125 150.652777778 c 128,-1,3
 849.930555556 150.652777778 849.930555556 150.652777778 886.539863413 184.768377839 c 128,-1,4
 923.149171271 218.883977901 923.149171271 218.883977901 923.149171271 270.975138122 c 128,-1,5
 923.149171271 323.066298343 923.149171271 323.066298343 869 398 c 0,6,7
 780.421052632 520.698245614 780.421052632 520.698245614 698.299907664 520.698245614 c 0,8,9
 655.263157895 520.698245614 655.263157895 520.698245614 614 487 c 0,10,11
 500.712 394.656 500.712 394.656 500.712 209.868992 c 0,12,13
 500.712 200.552 500.712 200.552 501 191 c 1,0,1
993 512 m 0,14,15
 1110.77680525 357.077862339 1110.77680525 357.077862339 1110.77680525 242.82667734 c 128,-1,16
 1110.77680525 128.575492341 1110.77680525 128.575492341 1000 37 c 0,17,18
 923.582733813 -26.5683453237 923.582733813 -26.5683453237 795.030277936 -26.5683453237 c 0,19,20
 733.489208633 -26.5683453237 733.489208633 -26.5683453237 620.187461459 -4.16988694758 c 128,-1,21
 506.885714286 18.2285714286 506.885714286 18.2285714286 449.857142857 18.2285714286 c 128,-1,22
 392.828571429 18.2285714286 392.828571429 18.2285714286 375 10 c 0,23,24
 261.642857143 -44.7619047619 261.642857143 -44.7619047619 261.642857143 -244.968820862 c 0,25,26
 261.642857143 -410.357142857 261.642857143 -410.357142857 339 -675 c 0,27,28
 350.045454545 -711.818181818 350.045454545 -711.818181818 350.045454545 -742.704545455 c 128,-1,29
 350.045454545 -773.590909091 350.045454545 -773.590909091 327 -786 c 2,30,-1
 256 -823 l 2,31,32
 244.725490196 -829.12745098 244.725490196 -829.12745098 234.952806613 -829.12745098 c 0,33,34
 204.852941176 -829.12745098 204.852941176 -829.12745098 189 -771 c 0,35,36
 102.989528796 -450.204188482 102.989528796 -450.204188482 102.989528796 -235.382884241 c 0,37,38
 102.989528796 104.267015707 102.989528796 104.267015707 318 179 c 1,39,40
 336 482 336 482 495 614 c 0,41,42
 594.310453477 696.427676386 594.310453477 696.427676386 694.779069767 697.040697674 c 24,43,44
 852 697 852 697 993 512 c 0,14,15
EndSplineSet
Substitution2: "'init' Initial Forms in Arabic lookup 13 subtable" uniFEE3
Substitution2: "'medi' Medial Forms in Arabic lookup 11 subtable" uniFEE4
Substitution2: "'fina' Terminal Forms in Arabic lookup 9 subtable" uniFEE2
EndChar

StartChar: uni0647
Encoding: 1607 1607 42
Width: 898
GlyphClass: 2
Flags: W
AnchorPoint: "Anchor-7" 439.281 -213.565 basechar 0
AnchorPoint: "Anchor-10" 417.183 1231.91 basechar 0
LayerCount: 2
Fore
SplineSet
441 656 m 1,0,1
 267 469 267 469 273 327 c 0,2,3
 280 179 280 179 458 176 c 0,4,5
 660 172 660 172 652 343 c 0,6,7
 650 390 650 390 625 440 c 0,8,9
 570 550 570 550 441 656 c 1,0,1
100 334 m 0,10,11
 100 477 100 477 224 657 c 0,12,13
 309 781 309 781 411 883 c 1,14,15
 538 797 538 797 612 723 c 0,16,17
 711 624 711 624 768 519 c 0,18,19
 819 423 819 423 814 295 c 0,20,21
 810 177 810 177 741 105 c 0,22,23
 652 10 652 10 465 12 c 0,24,25
 294 14 294 14 210 79 c 0,26,27
 100 164 100 164 100 334 c 0,10,11
EndSplineSet
Substitution2: "'fina' Terminal Forms in Arabic lookup 9 subtable" uniFEEA
Substitution2: "'medi' Medial Forms in Arabic lookup 11 subtable" uniFEEC
Substitution2: "'init' Initial Forms in Arabic lookup 13 subtable" uniFEEB
EndChar

StartChar: uni0648
Encoding: 1608 1608 43
Width: 863
GlyphClass: 2
Flags: W
AnchorPoint: "Anchor-10" 451.183 1097.91 basechar 0
AnchorPoint: "Anchor-7" 337.281 -673.565 basechar 0
LayerCount: 2
Fore
SplineSet
596 -295 m 0,0,1
 442 -470 442 -470 166 -505 c 0,2,3
 143 -508 143 -508 120 -476 c 2,4,-1
 80 -420 l 2,5,6
 55 -385 55 -385 92 -377 c 0,7,8
 504 -286 504 -286 590 1 c 1,9,10
 105 1 105 1 104 353 c 0,11,12
 103 516 103 516 189 626 c 0,13,14
 277 740 277 740 414 740 c 0,15,16
 609 740 609 740 691 555 c 0,17,18
 763 393 763 393 763 187 c 0,19,20
 762 -107 762 -107 596 -295 c 0,0,1
407 555 m 0,21,22
 336 555 336 555 293 493 c 0,23,24
 257 440 257 440 257 362 c 0,25,26
 258 180 258 180 604 179 c 1,27,28
 601 297 601 297 579 387 c 0,29,30
 538 556 538 556 407 555 c 0,21,22
EndSplineSet
Substitution2: "'fina' Terminal Forms in Arabic lookup 9 subtable" uniFEEE
EndChar

StartChar: uni0649
Encoding: 1609 1609 44
Width: 1461
GlyphClass: 2
Flags: W
AnchorPoint: "Anchor-10" 775.183 1098.91 basechar 0
AnchorPoint: "Anchor-7" 656.281 -670.565 basechar 0
LayerCount: 2
Fore
SplineSet
1342 731 m 0,0,1
 1375 731 1375 731 1375 702 c 2,2,-1
 1375 579 l 2,3,4
 1375 554 1375 554 1344 551 c 2,5,-1
 1335 550 l 2,6,7
 1181 535 1181 535 1107 444 c 0,8,9
 1067 395 1067 395 1068 353 c 0,10,11
 1070 308 1070 308 1132 293 c 0,12,13
 1360 241 1360 241 1328 24 c 0,14,15
 1296 -182 1296 -182 1112 -310 c 0,16,17
 938 -431 938 -431 656 -432 c 0,18,19
 160 -431 160 -431 103 -87 c 0,20,21
 62 158 62 158 202 447 c 0,22,23
 276 601 276 601 358 714 c 0,24,25
 394 764 394 764 430 740 c 2,26,-1
 496 695 l 2,27,28
 529 673 529 673 494 620 c 0,29,30
 464 575 464 575 415 495 c 0,31,32
 213 172 213 172 268 -47 c 0,33,34
 322 -259 322 -259 673 -258 c 0,35,36
 917 -257 917 -257 1073 -130 c 0,37,38
 1153 -63 1153 -63 1164 -2 c 0,39,40
 1183 109 1183 109 1082 127 c 0,41,42
 891 162 891 162 893 333 c 0,43,44
 896 459 896 459 996 575 c 0,45,46
 1119 717 1119 717 1342 731 c 0,0,1
EndSplineSet
Substitution2: "'fina' Terminal Forms in Arabic lookup 9 subtable" uniFEF0
Substitution2: "'medi' Medial Forms in Arabic lookup 11 subtable" uniFBE9
Substitution2: "'init' Initial Forms in Arabic lookup 13 subtable" uniFBE8
EndChar

StartChar: uni064B
Encoding: 1611 1611 46
Width: -27
VWidth: 2304
GlyphClass: 4
Flags: W
AnchorPoint: "Anchor-10" 609.519 1111.82 mark 0
AnchorPoint: "Anchor-9" 609.519 1111.82 mark 0
AnchorPoint: "Anchor-1" 569.519 1630.78 basemark 0
AnchorPoint: "Anchor-1" 609.519 1111.82 mark 0
LayerCount: 2
Fore
SplineSet
302.015625 1058.01181702 m 1,0,-1
 302.015625 1172.7510716 l 1,1,-1
 805.6796875 1378.70301363 l 1,2,-1
 805.6796875 1263.96280149 l 1,3,-1
 302.015625 1058.01181702 l 1,0,-1
302.015625 1301.515625 m 5,4,-1
 302.015625 1416.25488281 l 5,5,-1
 805.6796875 1622.20703125 l 5,6,-1
 805.6796875 1507.46679688 l 5,7,-1
 302.015625 1301.515625 l 5,4,-1
EndSplineSet
EndChar

StartChar: uni064C
Encoding: 1612 1612 47
Width: -27
VWidth: 2304
GlyphClass: 4
Flags: W
AnchorPoint: "Anchor-10" 676.432 1216.14 mark 0
AnchorPoint: "Anchor-9" 676.432 1216.14 mark 0
AnchorPoint: "Anchor-1" 567.983 1908.35 basemark 0
AnchorPoint: "Anchor-1" 676.432 1216.14 mark 0
LayerCount: 2
Fore
SplineSet
652.655273437 1732.86425781 m 0,0,1
 569.463867188 1732.86425781 569.463867188 1732.86425781 569.463867188 1658.640625 c 0,2,3
 569.463867188 1604.83203125 569.463867188 1604.83203125 631.455078125 1580.03515625 c 0,4,5
 654.595973423 1570.77996279 654.595973423 1570.77996279 700.032226562 1556.78613281 c 1,6,-1
 713.090820312 1587.25292969 l 2,7,8
 724.69140625 1614.32226562 724.69140625 1614.32226562 724.69140625 1653.09667969 c 128,-1,9
 724.69140625 1691.87109375 724.69140625 1691.87109375 699.799316406 1712.36767578 c 128,-1,10
 674.907226562 1732.86425781 674.907226562 1732.86425781 652.655273437 1732.86425781 c 0,0,1
337.235351562 1386.73925781 m 0,11,12
 369 1291 369 1291 449.545331419 1291.76660156 c 0,13,14
 518 1292 518 1292 592.768554688 1364.57714844 c 0,15,16
 636.118126436 1406.1131846 636.118126436 1406.1131846 661.806640625 1457.5 c 2,17,-1
 672.059570312 1478.00976562 l 1,18,-1
 649.625 1482.76953125 l 2,19,20
 547 1504 547 1504 509 1556 c 0,21,22
 474 1604 474 1604 475 1651 c 0,23,24
 475 1676 475 1676 481.663574219 1707.21484375 c 0,25,26
 488 1739 488 1739 509 1765 c 4,27,28
 553 1822 553 1822 636.941420873 1821.69921875 c 0,29,30
 717 1822 717 1822 765.114746094 1774.30517578 c 0,31,32
 813 1728 813 1728 813.52734375 1645.08105469 c 0,33,34
 813.997428752 1605.21804078 813.997428752 1605.21804078 800.791015625 1563.41113281 c 2,35,-1
 793.893554688 1541.57617188 l 1,36,-1
 816.765625 1540.37597656 l 2,37,38
 842 1539 842 1539 880.192382812 1538.27148438 c 1,39,-1
 880.192382812 1449.32617188 l 1,40,41
 838.775681949 1450.00366941 838.775681949 1450.00366941 823.913085938 1451.43261719 c 2,42,-1
 752.243164062 1458.32324219 l 1,43,44
 719 1380 719 1380 655.074213481 1314.56331625 c 128,-1,45
 591 1249 591 1249 543.787109375 1225.83300781 c 0,46,47
 496 1203 496 1203 447.08203125 1202.93164062 c 0,48,49
 332 1203 332 1203 279 1347 c 0,50,51
 257 1407 257 1407 255.86328125 1515.49121094 c 1,52,-1
 322.107421875 1515.49121094 l 1,53,54
 323 1430 323 1430 337.235351562 1386.73925781 c 0,11,12
854.4921875 1539.21972656 m 2,55,-1
 854.388671875 1539.22558594 l 2,56,57
 854.440429688 1539.22265625 854.440429688 1539.22265625 854.4921875 1539.21972656 c 2,55,-1
EndSplineSet
EndChar

StartChar: uni064D
Encoding: 1613 1613 48
Width: -27
VWidth: 2304
GlyphClass: 4
Flags: W
AnchorPoint: "Anchor-7" 552.623 45.7275 mark 0
AnchorPoint: "Anchor-6" 552.623 45.7275 mark 0
AnchorPoint: "Anchor-0" 635.519 -468.112 basemark 0
AnchorPoint: "Anchor-0" 552.623 45.7275 mark 0
LayerCount: 2
Fore
SplineSet
307.295898438 -515.428599567 m 1,0,-1
 307.295898438 -400.688387431 l 1,1,-1
 810.959960938 -194.737402955 l 1,2,-1
 810.959960938 -309.47665754 l 1,3,-1
 307.295898438 -515.428599567 l 1,0,-1
307.295898438 -271.924804688 m 5,4,-1
 307.295898438 -157.184570312 l 5,5,-1
 810.959960938 48.7666015625 l 5,6,-1
 810.959960938 -65.97265625 l 5,7,-1
 307.295898438 -271.924804688 l 5,4,-1
EndSplineSet
EndChar

StartChar: uni064E
Encoding: 1614 1614 49
Width: -27
VWidth: 2304
GlyphClass: 4
Flags: W
AnchorPoint: "Anchor-10" 577.839 1361.15 mark 0
AnchorPoint: "Anchor-9" 577.839 1361.15 mark 0
AnchorPoint: "Anchor-1" 537.839 1686.13 basemark 0
AnchorPoint: "Anchor-1" 577.839 1361.15 mark 0
LayerCount: 2
Fore
SplineSet
271.391601562 1330.45909574 m 1,0,-1
 271.391601562 1445.19931378 l 1,1,-1
 775.055664062 1651.15125582 l 1,2,-1
 775.055664062 1536.41103778 l 1,3,-1
 271.391601562 1330.45909574 l 1,0,-1
EndSplineSet
EndChar

StartChar: uni064F
Encoding: 1615 1615 50
Width: -27
VWidth: 2304
GlyphClass: 4
Flags: W
AnchorPoint: "Anchor-10" 615.623 1281.01 mark 0
AnchorPoint: "Anchor-9" 615.623 1281.01 mark 0
AnchorPoint: "Anchor-1" 546.519 1923.2 basemark 0
AnchorPoint: "Anchor-1" 615.623 1281.01 mark 0
LayerCount: 2
Fore
SplineSet
822.727539062 1464.22460938 m 1,0,1
 766 1465 766 1465 690.735351562 1473.01953125 c 1,2,3
 638 1399 638 1399 563.377929688 1352.99902344 c 0,4,5
 445 1279 445 1279 311 1274 c 1,6,-1
 311 1362.74121094 l 1,7,8
 442 1367 442 1367 520.314453125 1432.41015625 c 0,9,10
 552.324817949 1458.79495946 552.324817949 1458.79495946 569.69921875 1477.09472656 c 2,11,-1
 591.280273438 1499.82519531 l 1,12,-1
 560.689453125 1506.61621094 l 2,13,14
 554 1508 554 1508 514.827148438 1528.14355469 c 0,15,16
 477 1548 477 1548 448.861328125 1586.5703125 c 0,17,18
 421 1625 421 1625 420.904296875 1671.78222656 c 0,19,20
 421 1754 421 1754 492 1808 c 0,21,22
 530 1837 530 1837 588.962890625 1836.546875 c 0,23,24
 659 1837 659 1837 707.650390625 1789.15234375 c 0,25,26
 756 1742 756 1742 756.0625 1659.92871094 c 0,27,28
 756.000462851 1626.25126302 756.000462851 1626.25126302 741.043945312 1578.18945312 c 2,29,-1
 734.313476562 1556.56152344 l 1,30,-1
 756.931640625 1555.22460938 l 2,31,32
 795 1553 795 1553 822.727539062 1553.02832031 c 1,33,-1
 822.727539062 1464.22460938 l 1,0,1
642.567382812 1571.63476562 m 1,34,-1
 655.625976562 1602.09960938 l 2,35,36
 667 1629 667 1629 667.227539062 1667.94628906 c 0,37,38
 667 1707 667 1707 642.33203125 1727.21582031 c 0,39,40
 617 1748 617 1748 589.5 1747.5 c 128,-1,41
 562 1747 562 1747 539 1730 c 0,42,43
 511.979202975 1710.02810655 511.979202975 1710.02810655 511 1672 c 4,44,45
 509 1620 509 1620 573.990234375 1594.88183594 c 0,46,47
 597 1586 597 1586 642.567382812 1571.63476562 c 1,34,-1
EndSplineSet
EndChar

StartChar: uni0650
Encoding: 1616 1616 51
Width: -27
VWidth: 2304
GlyphClass: 4
Flags: W
AnchorPoint: "Anchor-7" 567.391 -16.2002 mark 0
AnchorPoint: "Anchor-6" 567.391 -16.2002 mark 0
AnchorPoint: "Anchor-0" 615.023 -326.944 basemark 0
AnchorPoint: "Anchor-0" 567.391 -16.2002 mark 0
LayerCount: 2
Fore
SplineSet
317.856445312 -352.804583874 m 1,0,-1
 317.856445312 -238.064361577 l 1,1,-1
 821.51953125 -32.1133848752 l 1,2,-1
 821.51953125 -146.853607173 l 1,3,-1
 317.856445312 -352.804583874 l 1,0,-1
EndSplineSet
EndChar

StartChar: uni0651
Encoding: 1617 1617 52
Width: -27
VWidth: 2304
GlyphClass: 4
Flags: W
AnchorPoint: "Anchor-10" 609.519 1390.22 mark 0
AnchorPoint: "Anchor-9" 609.519 1390.22 mark 0
AnchorPoint: "Anchor-1" 578.847 1840.34 basemark 0
AnchorPoint: "Anchor-1" 609.519 1390.22 mark 0
LayerCount: 2
Fore
SplineSet
577.407226562 1531.921875 m 1,0,1
 547 1367 547 1367 402.48400556 1366.87597656 c 0,2,3
 258 1367 258 1367 257.186523438 1552.89257812 c 0,4,5
 257 1590 257 1590 272.712890625 1693.63867188 c 1,6,-1
 347.826171875 1693.63867188 l 1,7,8
 335 1604 335 1604 335 1576 c 0,9,10
 335 1463 335 1463 414.949708912 1463.0777407 c 0,11,12
 525 1463 525 1463 530.60546875 1607.45214844 c 0,13,14
 532 1647 532 1647 531.875 1694.11621094 c 0,15,16
 532 1741 532 1741 531.86328125 1749.95605469 c 1,17,-1
 606.123046875 1749.95605469 l 1,18,19
 608 1714 608 1714 608.287109375 1665.99121094 c 0,20,21
 608.000414097 1525.20335128 608.000414097 1525.20335128 730.454841185 1525.40617962 c 2,22,-1
 731.086914062 1525.40722656 l 2,23,24
 805 1526 805 1526 805.22265625 1644.49707031 c 0,25,26
 806 1750 806 1750 794.323242188 1812.33496094 c 1,27,-1
 873.943359375 1812.33496094 l 1,28,29
 885 1733 885 1733 885 1639 c 0,30,31
 885 1486 885 1486 800.654296875 1449.91699219 c 0,32,33
 768 1436 768 1436 736 1435 c 0,34,35
 665 1432 665 1432 628 1459 c 0,36,37
 583 1492 583 1492 577.407226562 1531.921875 c 1,0,1
EndSplineSet
EndChar

StartChar: uni0652
Encoding: 1618 1618 53
Width: -27
VWidth: 2304
GlyphClass: 4
Flags: W
AnchorPoint: "Anchor-10" 588.527 1187.7 mark 0
AnchorPoint: "Anchor-9" 588.527 1187.7 mark 0
AnchorPoint: "Anchor-1" 573.743 1793.31 basemark 0
AnchorPoint: "Anchor-1" 588.527 1187.7 mark 0
LayerCount: 2
Fore
SplineSet
707.344726562 1457.10253906 m 0,0,1
 707.344726562 1505.78320312 707.344726562 1505.78320312 673.299804688 1539.828125 c 128,-1,2
 639.258789062 1573.87304688 639.258789062 1573.87304688 589.884765625 1573.87304688 c 0,3,4
 539.819335938 1573.87304688 539.819335938 1573.87304688 506.124023438 1540.17675781 c 128,-1,5
 472.427734375 1506.48046875 472.427734375 1506.48046875 472.427734375 1457.10253906 c 0,6,7
 472.427734375 1407.03808594 472.427734375 1407.03808594 506.124023438 1373.34277344 c 128,-1,8
 539.819335938 1339.64648438 539.819335938 1339.64648438 589.884765625 1339.64648438 c 0,9,10
 639.260742188 1339.64648438 639.260742188 1339.64648438 673.299804688 1373.69140625 c 128,-1,11
 707.344726562 1407.73535156 707.344726562 1407.73535156 707.344726562 1457.10253906 c 0,0,1
779.41796875 1457.21875 m 128,-1,13
 779.41796875 1377.71484375 779.41796875 1377.71484375 724.528320312 1322.47265625 c 128,-1,14
 669.673828125 1267.2734375 669.673828125 1267.2734375 590.212890625 1267.2734375 c 0,15,16
 563.655273438 1267.2734375 563.655273438 1267.2734375 539.920898438 1273.39550781 c 128,-1,17
 516.186523438 1279.51757812 516.186523438 1279.51757812 495.203125 1291.77636719 c 128,-1,18
 474.220703125 1304.03515625 474.220703125 1304.03515625 455.8984375 1322.47265625 c 0,19,20
 428.400390625 1350.14648438 428.400390625 1350.14648438 414.704101562 1383.76074219 c 128,-1,21
 401.006835938 1417.375 401.006835938 1417.375 401.006835938 1457.21875 c 0,22,23
 401.006835938 1536.6953125 401.006835938 1536.6953125 455.8671875 1591.56542969 c 128,-1,24
 510.7265625 1646.42480469 510.7265625 1646.42480469 590.212890625 1646.42480469 c 128,-1,25
 669.698242188 1646.42480469 669.698242188 1646.42480469 724.556640625 1591.56542969 c 128,-1,12
 779.41796875 1536.6953125 779.41796875 1536.6953125 779.41796875 1457.21875 c 128,-1,13
EndSplineSet
EndChar

StartChar: uni0653
Encoding: 1619 1619 54
Width: -3
VWidth: 2429
GlyphClass: 4
Flags: W
AnchorPoint: "Anchor-10" 489.659 1404.78 mark 0
AnchorPoint: "Anchor-9" 489.659 1404.78 mark 0
AnchorPoint: "Anchor-1" 489.659 1810.56 basemark 0
AnchorPoint: "Anchor-1" 489.659 1404.78 mark 0
LayerCount: 2
Fore
SplineSet
122 1551.30664062 m 4,0,1
 227 1673 227 1673 318.606445312 1650.36816406 c 4,2,3
 457 1615 457 1615 580.192382812 1611.36523438 c 4,4,5
 692 1608 692 1608 802 1680.09375 c 4,6,7
 837.349644388 1703.22882976 837.349644388 1703.22882976 848.625976562 1672 c 6,8,-1
 872.457734881 1606 l 2,9,10
 885 1572 885 1572 852 1551.10994582 c 0,11,12
 751 1487 751 1487 636.724609375 1472.44042969 c 0,13,14
 473.345308255 1452.55517952 473.345308255 1452.55517952 325.98046875 1496.57617188 c 0,15,16
 271 1513 271 1513 218 1465.64227114 c 0,17,18
 176.157760226 1428.14139174 176.157760226 1428.14139174 160 1447.80952381 c 2,19,-1
 128 1486.76171875 l 2,20,21
 98 1523 98 1523 122 1551.30664062 c 4,0,1
EndSplineSet
EndChar

StartChar: uni0657
Encoding: 1623 1623 57
Width: -27
VWidth: 2304
GlyphClass: 4
Flags: W
AnchorPoint: "Anchor-10" 569.519 1347.15 mark 0
AnchorPoint: "Anchor-9" 569.519 1347.15 mark 0
AnchorPoint: "Anchor-1" 569.519 2081.6 basemark 0
AnchorPoint: "Anchor-1" 569.519 1347.15 mark 0
LayerCount: 2
Fore
SplineSet
659.133789062 1603.78173828 m 0,0,1
 659 1430 659 1430 491.074544274 1431.54492188 c 0,2,3
 421 1432 421 1432 372.388183594 1478.93945313 c 0,4,5
 324 1526 324 1526 323.975585938 1608.16308594 c 0,6,7
 323.99979061 1641.70979344 323.99979061 1641.70979344 338.994140625 1689.90234375 c 2,8,-1
 345.723632812 1711.53125 l 1,9,-1
 323.10546875 1712.8671875 l 2,10,11
 287 1715 287 1715 257.310546875 1715.06347656 c 1,12,-1
 257.310546875 1803.8671875 l 1,13,14
 314 1803 314 1803 389.303710938 1795.07324219 c 1,15,16
 442 1870 442 1870 516.661132812 1915.09375 c 0,17,18
 698 2026 698 2026 785 2030.74121094 c 5,19,-1
 785 1942 l 5,20,21
 692 1939 692 1939 559.72265625 1835.68164062 c 0,22,23
 533 1815 533 1815 510.338867188 1790.99804688 c 2,24,-1
 488.760742188 1768.28125 l 1,25,-1
 519.344726562 1761.47558594 l 2,26,27
 528 1760 528 1760 565.211425781 1739.94873047 c 0,28,29
 603 1720 603 1720 631.176757812 1681.52148438 c 0,30,31
 659 1643 659 1643 659.133789062 1603.78173828 c 0,0,1
480.167480469 1520.38085938 m 0,32,33
 568.038085938 1520.38085938 568.038085938 1520.38085938 568.038085938 1594.60449219 c 0,34,35
 568.038085938 1648.41148902 568.038085938 1648.41148902 506.048828125 1673.20996094 c 0,36,37
 482.976628637 1682.4430983 482.976628637 1682.4430983 437.471679688 1696.45898438 c 1,38,-1
 424.413085938 1665.99316406 l 2,39,40
 412.810546875 1638.92285156 412.810546875 1638.92285156 412.810546875 1600.15429688 c 128,-1,41
 412.810546875 1561.38574219 412.810546875 1561.38574219 437.703125 1540.88330078 c 128,-1,42
 462.595703125 1520.38085938 462.595703125 1520.38085938 480.167480469 1520.38085938 c 0,32,33
EndSplineSet
EndChar

StartChar: uni065A
Encoding: 1626 1626 58
Width: 1129
VWidth: 2304
GlyphClass: 4
Flags: W
AnchorPoint: "Anchor-10" 569.519 1347.15 mark 0
AnchorPoint: "Anchor-9" 569.519 1347.15 mark 0
AnchorPoint: "Anchor-1" 567.259 1855.62 basemark 0
AnchorPoint: "Anchor-1" 569.519 1347.15 mark 0
LayerCount: 2
Fore
SplineSet
495.958007812 1434.93457031 m 1,0,-1
 296.83203125 1767.83300781 l 1,1,-1
 413.142578125 1767.83300781 l 1,2,-1
 569.518554688 1533.26269531 l 1,3,-1
 725.89453125 1767.83300781 l 1,4,-1
 842.206054688 1767.83300781 l 1,5,-1
 643.077148438 1434.93457031 l 1,6,-1
 495.958007812 1434.93457031 l 1,0,-1
EndSplineSet
EndChar

StartChar: afii57392
Encoding: 1632 1632 59
Width: 998
GlyphClass: 2
Flags: W
LayerCount: 2
Fore
SplineSet
386 514 m 0,0,1
 386 464 386 464 421 429 c 128,-1,2
 456 394 456 394 505 394 c 256,3,4
 554 394 554 394 589 429 c 128,-1,5
 624 464 624 464 624 514 c 0,6,7
 624 563 624 563 589 598 c 0,8,9
 578 609 578 609 564.5 617 c 128,-1,10
 551 625 551 625 536 629 c 128,-1,11
 521 633 521 633 505 633 c 0,12,13
 456 633 456 633 421 598 c 128,-1,14
 386 563 386 563 386 514 c 0,0,1
231 512 m 0,15,16
 230 568 230 568 249.5 616 c 128,-1,17
 269 664 269 664 309 704 c 0,18,19
 329 724 329 724 351 739 c 128,-1,20
 373 754 373 754 397 763.5 c 128,-1,21
 421 773 421 773 447 778 c 128,-1,22
 473 783 473 783 501 783 c 0,23,24
 612 783 612 783 692 703.5 c 128,-1,25
 772 624 772 624 772 512 c 0,26,27
 772 401 772 401 692 321 c 0,28,29
 666 294 666 294 635.5 276.5 c 128,-1,30
 605 259 605 259 571.5 250 c 128,-1,31
 538 241 538 241 501 241 c 0,32,33
 389 241 389 241 309.5 321 c 128,-1,34
 230 401 230 401 231 512 c 0,15,16
EndSplineSet
EndChar

StartChar: afii57393
Encoding: 1633 1633 60
Width: 750
GlyphClass: 2
Flags: W
LayerCount: 2
Fore
SplineSet
302 1298 m 0,0,1
 546 692 546 692 546 15 c 1,2,-1
 380 15 l 1,3,4
 378 663 378 663 142 1244 c 0,5,6
 121 1295 121 1295 158 1307 c 2,7,-1
 250 1337 l 2,8,9
 282 1347 282 1347 302 1298 c 0,0,1
EndSplineSet
EndChar

StartChar: afii57394
Encoding: 1634 1634 61
Width: 1136
GlyphClass: 2
Flags: W
LayerCount: 2
Fore
SplineSet
302 1298 m 2,0,1
 302 1298 302 1298 370 1104 c 0,2,3
 422 954 422 954 597 960 c 0,4,5
 791 968 791 968 834 1122 c 0,6,7
 853 1189 853 1189 853 1277 c 0,8,9
 853 1350 853 1350 889 1350 c 2,10,-1
 976 1350 l 2,11,12
 1020 1350 1020 1350 1019 1281 c 0,13,14
 1013 784 1013 784 569 793 c 0,15,16
 517 794 517 794 456 806 c 1,17,18
 541 460 541 460 546 15 c 1,19,-1
 380 15 l 1,20,21
 376 694 376 694 142 1244 c 0,22,23
 120 1295 120 1295 158 1307 c 2,24,-1
 250 1337 l 2,25,26
 283 1348 283 1348 302 1298 c 2,0,1
EndSplineSet
EndChar

StartChar: afii57395
Encoding: 1635 1635 62
Width: 1331
GlyphClass: 2
Flags: W
LayerCount: 2
Fore
SplineSet
546 15 m 1,0,1
 546 15 546 15 380 15 c 1,2,3
 376 694 376 694 142 1244 c 0,4,5
 120 1295 120 1295 158 1307 c 2,6,-1
 250 1337 l 2,7,8
 283 1348 283 1348 302 1298 c 2,9,-1
 370 1079 l 2,10,11
 412 945 412 945 540 944 c 0,12,13
 658 944 658 944 663 1061 c 0,14,15
 670 1237 670 1237 670 1257 c 0,16,17
 670 1296 670 1296 697 1296 c 2,18,-1
 781 1296 l 2,19,20
 810 1296 810 1296 810 1257 c 0,21,22
 811 1076 811 1076 817 1049 c 0,23,24
 840 948 840 948 952 948 c 0,25,26
 1051 948 1051 948 1069 1062 c 0,27,28
 1084 1156 1084 1156 1083 1278 c 0,29,30
 1083 1350 1083 1350 1120 1350 c 2,31,-1
 1192 1351 l 2,32,33
 1229 1351 1229 1351 1229 1269 c 0,34,35
 1231 1013 1231 1013 1167 900 c 0,36,37
 1084 755 1084 755 913 780 c 0,38,39
 812 794 812 794 751 871 c 1,40,41
 663 762 663 762 461 782 c 1,42,43
 540 458 540 458 546 15 c 1,0,1
EndSplineSet
EndChar

StartChar: afii57396
Encoding: 1636 1636 63
Width: 1025
GlyphClass: 2
Flags: W
LayerCount: 2
Fore
SplineSet
117 328 m 0,0,1
 110 516 110 516 472 703 c 1,2,-1
 485 710 l 1,3,-1
 471 713 l 2,4,5
 192 775 192 775 196 975 c 0,6,7
 203 1333 203 1333 702 1328 c 1,8,-1
 702 1157 l 1,9,10
 368 1144 368 1144 368 969 c 0,11,12
 368 806 368 806 736 803 c 1,13,-1
 738 660 l 1,14,15
 268 452 268 452 274 334 c 0,16,17
 282 179 282 179 598 180 c 2,18,-1
 908 181 l 1,19,-1
 910 5 l 1,20,-1
 557 6 l 2,21,22
 129 6 129 6 117 328 c 0,0,1
EndSplineSet
EndChar

StartChar: afii57397
Encoding: 1637 1637 64
Width: 1159
GlyphClass: 2
Flags: W
LayerCount: 2
Fore
SplineSet
562 1026 m 1,0,1
 288 721 288 721 288 495 c 0,2,3
 288 215 288 215 591 216 c 0,4,5
 880 216 880 216 885 499 c 0,6,7
 888 621 888 621 764 798 c 0,8,9
 673 927 673 927 562 1026 c 1,0,1
384 1166 m 1,10,-1
 477 1308 l 1,11,12
 548 1258 548 1258 654 1165 c 0,13,14
 1043 825 1043 825 1043 502 c 0,15,16
 1043 298 1043 298 946 197 c 0,17,18
 813 57 813 57 596 58 c 0,19,20
 383 58 383 58 261 153 c 0,21,22
 116 267 116 267 117 472 c 0,23,24
 119 789 119 789 437 1133 c 1,25,-1
 384 1166 l 1,10,-1
EndSplineSet
EndChar

StartChar: afii57398
Encoding: 1638 1638 65
Width: 1183
GlyphClass: 2
Flags: W
LayerCount: 2
Fore
SplineSet
880 15 m 1,0,1
 720 649 720 649 712 1138 c 1,2,3
 563 1094 563 1094 412 1094 c 128,-1,4
 261 1094 261 1094 68 1149 c 1,5,-1
 68 1327 l 1,6,7
 441 1228 441 1228 876 1328 c 1,8,9
 879 873 879 873 971 405 c 0,10,11
 990 311 990 311 1064 15 c 1,12,-1
 880 15 l 1,0,1
EndSplineSet
EndChar

StartChar: afii57399
Encoding: 1639 1639 66
Width: 1170
GlyphClass: 2
Flags: W
LayerCount: 2
Fore
SplineSet
489 85 m 0,0,1
 430 451 430 451 90 1222 c 0,2,3
 58 1295 58 1295 91 1306 c 2,4,-1
 164 1332 l 2,5,6
 209 1347 209 1347 233 1297 c 0,7,8
 525 704 525 704 584 310 c 1,9,10
 642 693 642 693 935 1295 c 0,11,12
 960 1347 960 1347 1003 1333 c 2,13,-1
 1074 1308 l 2,14,15
 1112 1295 1112 1295 1081 1226 c 0,16,17
 745 479 745 479 680 81 c 0,18,19
 669 15 669 15 627 15 c 2,20,-1
 549 15 l 2,21,22
 500 15 500 15 489 85 c 0,0,1
EndSplineSet
EndChar

StartChar: afii57400
Encoding: 1640 1640 67
Width: 1169
GlyphClass: 2
Flags: W
LayerCount: 2
Fore
SplineSet
683 1273 m 0,0,1
 744 887 744 887 1081 126 c 0,2,3
 1114 52 1114 52 1081 41 c 2,4,-1
 1008 16 l 2,5,6
 963 0 963 0 938 51 c 0,7,8
 649 640 649 640 587 1047 c 1,9,10
 525 637 525 637 237 53 c 0,11,12
 211 0 211 0 169 15 c 2,13,-1
 98 39 l 2,14,15
 59 53 59 53 90 122 c 0,16,17
 432 889 432 889 492 1276 c 0,18,19
 502 1343 502 1343 544 1343 c 2,20,-1
 623 1343 l 2,21,22
 671 1343 671 1343 683 1273 c 0,0,1
EndSplineSet
EndChar

StartChar: afii57401
Encoding: 1641 1641 68
Width: 1145
GlyphClass: 2
Flags: W
LayerCount: 2
Fore
SplineSet
842 15 m 1,0,1
 797 299 797 299 752 584 c 1,2,3
 634 556 634 556 508 564 c 0,4,5
 190 583 190 583 128 830 c 0,6,7
 118 870 118 870 118 912 c 0,8,9
 118 1103 118 1103 224 1210 c 0,10,11
 349 1336 349 1336 516 1336 c 0,12,13
 842 1334 842 1334 887 904 c 0,14,15
 956 234 956 234 1015 15 c 1,16,-1
 842 15 l 1,0,1
736 754 m 1,17,-1
 721 864 l 2,18,19
 700 1018 700 1018 663 1073 c 0,20,21
 602 1165 602 1165 515 1166 c 256,22,23
 428 1167 428 1167 361 1102 c 0,24,25
 284 1027 284 1027 284 924 c 0,26,27
 284 746 284 746 518 739 c 0,28,29
 634 735 634 735 736 754 c 1,17,-1
EndSplineSet
EndChar

StartChar: afii57381
Encoding: 1642 1642 69
Width: 1204
VWidth: 3581
GlyphClass: 2
Flags: W
LayerCount: 2
Fore
SplineSet
724.04296875 312.70703125 m 0,0,1
 724.04296875 379.073242188 724.04296875 379.073242188 770.499023438 426.635742188 c 0,2,3
 819.168945312 474.198242188 819.168945312 474.198242188 885.53515625 474.198242188 c 0,4,5
 929.780273438 474.198242188 929.780273438 474.198242188 966.28125 452.076171875 c 0,6,7
 1003.88867188 429.953125 1003.88867188 429.953125 1024.90527344 393.452148438 c 0,8,9
 1047.02734375 356.950195312 1047.02734375 356.950195312 1047.02734375 312.70703125 c 0,10,11
 1047.02734375 246.33984375 1047.02734375 246.33984375 999.463867188 197.670898438 c 0,12,13
 951.90234375 151.21484375 951.90234375 151.21484375 885.53515625 151.21484375 c 0,14,15
 841.291015625 151.21484375 841.291015625 151.21484375 803.68359375 172.23046875 c 0,16,17
 766.076171875 194.352539062 766.076171875 194.352539062 745.05859375 230.853515625 c 0,18,19
 724.04296875 268.461914062 724.04296875 268.461914062 724.04296875 312.70703125 c 0,0,1
156.55078125 1175.95019531 m 0,20,21
 156.525390625 1242.80859375 156.525390625 1242.80859375 203.006835938 1289.87890625 c 0,22,23
 251.483398438 1337.76660156 251.483398438 1337.76660156 318.041992188 1337.44238281 c 0,24,25
 362.094726562 1337.76660156 362.094726562 1337.76660156 398.788085938 1315.31933594 c 0,26,27
 436.182617188 1292.89648438 436.182617188 1292.89648438 457.413085938 1256.69628906 c 0,28,29
 480.009765625 1219.8515625 480.009765625 1219.8515625 479.534179688 1175.95019531 c 0,30,31
 480.009765625 1109.24023438 480.009765625 1109.24023438 431.971679688 1060.9140625 c 0,32,33
 384.0078125 1014.28222656 384.0078125 1014.28222656 318.041992188 1014.45800781 c 0,34,35
 273.397460938 1014.28222656 273.397460938 1014.28222656 236.190429688 1035.47363281 c 0,36,37
 198.264648438 1058.109375 198.264648438 1058.109375 177.56640625 1094.09765625 c 0,38,39
 156.525390625 1132.19726562 156.525390625 1132.19726562 156.55078125 1175.95019531 c 0,20,21
826.336914062 1362.62207031 m 1,40,-1
 977 1285 l 1,41,-1
 317.715820312 26.6982421875 l 1,42,-1
 167.625976562 109.1796875 l 1,43,-1
 826.336914062 1362.62207031 l 1,40,-1
EndSplineSet
EndChar

StartChar: uni066B
Encoding: 1643 1643 70
Width: 730
VWidth: 2619
GlyphClass: 2
Flags: W
LayerCount: 2
Fore
SplineSet
467.233398438 743.591796875 m 1,0,-1
 598.96875 687.666015625 l 1,1,-1
 181.241210938 -276.264648438 l 1,2,-1
 47.6474609375 -218.124023438 l 1,3,-1
 467.233398438 743.591796875 l 1,0,-1
EndSplineSet
EndChar

StartChar: uni066C
Encoding: 1644 1644 71
Width: 522
VWidth: 2522
GlyphClass: 2
Flags: W
LayerCount: 2
Fore
SplineSet
104.01953125 141.837890625 m 0,0,1
 105.393554688 278.614257812 105.393554688 278.614257812 257.203125 279.056640625 c 0,2,3
 393.399414062 279.658203125 393.399414062 279.658203125 418.720703125 158.678710938 c 0,4,5
 432.008789062 93.9150390625 432.008789062 93.9150390625 408.099609375 -1.82421875 c 0,6,7
 354.790039062 -205.569335938 354.790039062 -205.569335938 167.594726562 -356.990234375 c 5,8,-1
 108.326171875 -319.10546875 l 5,9,10
 266.092773438 -163.829101562 266.092773438 -163.829101562 277.986328125 -0.025390625 c 1,11,12
 234.787109375 -1.0439453125 234.787109375 -1.0439453125 216.694335938 3.20703125 c 0,13,14
 103.306640625 26.087890625 103.306640625 26.087890625 104.01953125 141.837890625 c 0,0,1
EndSplineSet
EndChar

StartChar: afii63167
Encoding: 1645 1645 72
Width: 1382
VWidth: 2534
GlyphClass: 2
Flags: W
LayerCount: 2
Fore
SplineSet
157.544921875 918.306640625 m 1,0,-1
 563.309570312 918.306640625 l 1,1,-1
 689.994140625 1304.00976562 l 1,2,-1
 816.67578125 918.306640625 l 1,3,-1
 1222.44238281 918.306640625 l 1,4,-1
 894.634765625 678.668945312 l 1,5,-1
 1020.05859375 293.354492188 l 1,6,-1
 689.994140625 531.86328125 l 1,7,-1
 359.926757812 293.354492188 l 1,8,-1
 485.349609375 678.668945312 l 1,9,-1
 157.544921875 918.306640625 l 1,0,-1
EndSplineSet
EndChar

StartChar: uni066E
Encoding: 1646 1646 73
Width: 1970
GlyphClass: 2
Flags: W
AnchorPoint: "Anchor-5" 882 1218 basechar 0
AnchorPoint: "Anchor-3" 615 -244 basechar 0
LayerCount: 2
Fore
SplineSet
275 506 m 0,0,1
 273 153 273 153 862 152 c 0,2,3
 1145 152 1145 152 1340 218 c 0,4,5
 1629 314 1629 314 1724 551 c 0,6,7
 1752 621 1752 621 1794 611 c 2,8,-1
 1862 597 l 2,9,10
 1907 587 1907 587 1887 521 c 0,11,12
 1721 -29 1721 -29 838 -29 c 0,13,14
 109 -29 109 -29 107 485 c 0,15,16
 106 631 106 631 176 781 c 0,17,18
 218 868 218 868 265 846 c 2,19,-1
 321 819 l 2,20,21
 362 799 362 799 332 735 c 0,22,23
 275 610 275 610 275 506 c 0,0,1
EndSplineSet
Substitution2: "'init' Initial Forms in Arabic lookup 13 subtable" uni066E.init
Substitution2: "'medi' Medial Forms in Arabic lookup 11 subtable" uni066E.medi
Substitution2: "'fina' Terminal Forms in Arabic lookup 9 subtable" uni066E.fina
EndChar

StartChar: uni066F
Encoding: 1647 1647 74
Width: 1528
GlyphClass: 2
Flags: W
AnchorPoint: "Anchor-5" 365 1211 basechar 0
AnchorPoint: "Anchor-3" 509 -702 basechar 0
LayerCount: 2
Fore
SplineSet
1353 595 m 0,0,1
 1425 433 1425 433 1426 154 c 0,2,3
 1426 -49 1426 -49 1378 -182 c 0,4,5
 1249 -540 1249 -540 753 -538 c 0,6,7
 110 -536 110 -536 113 -34 c 0,8,9
 114 265 114 265 342 551 c 0,10,11
 385 606 385 606 431 574 c 2,12,-1
 481 540 l 2,13,14
 517 515 517 515 474 451 c 0,15,16
 283 170 283 170 284 -17 c 0,17,18
 285 -365 285 -365 783 -361 c 0,19,20
 1144 -358 1144 -358 1228 -108 c 0,21,22
 1252 -37 1252 -37 1252 41 c 1,23,24
 767 41 767 41 766 393 c 0,25,26
 765 556 765 556 851 666 c 0,27,28
 939 780 939 780 1076 780 c 0,29,30
 1271 780 1271 780 1353 595 c 0,0,1
1069 595 m 0,31,32
 998 595 998 595 955 533 c 0,33,34
 919 480 919 480 919 402 c 0,35,36
 920 220 920 220 1266 219 c 1,37,38
 1263 337 1263 337 1241 427 c 0,39,40
 1200 596 1200 596 1069 595 c 0,31,32
EndSplineSet
Substitution2: "'init' Initial Forms in Arabic lookup 13 subtable" uni066F.init
Substitution2: "'medi' Medial Forms in Arabic lookup 11 subtable" uni066F.medi
Substitution2: "'fina' Terminal Forms in Arabic lookup 9 subtable" uni066F.fina
EndChar

StartChar: uni0670
Encoding: 1648 1648 75
Width: -27
VWidth: 2304
GlyphClass: 4
Flags: W
AnchorPoint: "Anchor-10" 569.519 1347.15 mark 0
AnchorPoint: "Anchor-9" 569.519 1347.15 mark 0
AnchorPoint: "Anchor-1" 569.519 2081.6 basemark 0
AnchorPoint: "Anchor-1" 569.519 1347.15 mark 0
LayerCount: 2
Fore
SplineSet
525.1015625 1402.16699219 m 1,0,-1
 525.1015625 2026.58496094 l 1,1,-1
 613.936523438 2026.58496094 l 1,2,-1
 613.936523438 1402.16699219 l 1,3,-1
 525.1015625 1402.16699219 l 1,0,-1
EndSplineSet
EndChar

StartChar: uni0674
Encoding: 1652 1652 76
Width: 672
VWidth: 2393
GlyphClass: 2
Flags: W
LayerCount: 2
Fore
SplineSet
226.129345869 1691.17906833 m 1,0,1
 135 1752 135 1752 134.791015625 1847.8543055 c 0,2,3
 135 1954 135 1954 201.056686498 2011.69713301 c 0,4,5
 267 2069 267 2069 355.616252108 2069.78705111 c 0,6,7
 436 2070 436 2070 498 2038.9710743 c 0,8,9
 513.954101562 2031.02286624 513.954101562 2031.02286624 513.954101562 2010 c 2,10,-1
 513.954101562 1936 l 2,11,12
 514 1912 514 1912 499.785379949 1918.29804405 c 0,13,14
 374 1976 374 1976 293.314597 1929.46744379 c 0,15,16
 248 1903 248 1903 248.319335938 1849.671875 c 4,17,18
 248 1775 248 1775 357.828901143 1740.28632501 c 1,19,-1
 358.453692067 1740.07431334 l 2,20,21
 390 1729 390 1729 526.437249243 1760.1566086 c 0,22,23
 538.631835938 1762.91667155 538.631835938 1762.91667155 538.631835938 1736 c 2,24,-1
 538.631835938 1665 l 2,25,26
 538.998184006 1640.12331417 538.998184006 1640.12331417 492 1629.57193015 c 2,27,-1
 160 1555.03586952 l 2,28,29
 132.44140625 1549.09515252 132.44140625 1549.09515252 132.44140625 1573 c 2,30,-1
 132.44140625 1642 l 2,31,32
 132.008499172 1669.46086669 132.008499172 1669.46086669 150 1673.61237038 c 2,33,-1
 226.129345869 1691.17906833 l 1,0,1
EndSplineSet
EndChar

StartChar: uni06A1
Encoding: 1697 1697 80
Width: 1847
GlyphClass: 2
Flags: W
AnchorPoint: "Anchor-5" 575 1420 basechar 0
AnchorPoint: "Anchor-3" 699 -179 basechar 0
LayerCount: 2
Fore
SplineSet
1693 316 m 0,0,1
 1613 124 1613 124 1373 44 c 0,2,3
 1156 -29 1156 -29 839 -29 c 0,4,5
 109 -29 109 -29 107 485 c 0,6,7
 106 631 106 631 176 781 c 0,8,9
 218 868 218 868 265 846 c 2,10,-1
 321 819 l 2,11,12
 362 799 362 799 332 735 c 0,13,14
 275 609 275 609 275 506 c 0,15,16
 274 153 274 153 863 152 c 0,17,18
 1287 152 1287 152 1441 254 c 1,19,20
 1078 328 1078 328 1078 624 c 0,21,22
 1078 732 1078 732 1121 816 c 0,23,24
 1205 979 1205 979 1378 992 c 0,25,26
 1524 1002 1524 1002 1624 898 c 0,27,28
 1722 794 1722 794 1736 610 c 0,29,30
 1749 451 1749 451 1693 316 c 0,0,1
1268 730 m 0,31,32
 1245 688 1245 688 1245 634 c 0,33,34
 1245 441 1245 441 1537 389 c 1,35,36
 1572 497 1572 497 1565 592 c 0,37,38
 1555 714 1555 714 1495 770 c 0,39,40
 1449 812 1449 812 1382 807 c 0,41,42
 1306 801 1306 801 1268 730 c 0,31,32
EndSplineSet
Substitution2: "'init' Initial Forms in Arabic lookup 13 subtable" uni06A1.init
Substitution2: "'medi' Medial Forms in Arabic lookup 11 subtable" uni06A1.medi
Substitution2: "'fina' Terminal Forms in Arabic lookup 9 subtable" uni06A1.fina
EndChar

StartChar: uni06A9
Encoding: 1705 1705 81
Width: 2042
GlyphClass: 2
Flags: W
AnchorPoint: "Anchor-7" 796.281 -232.565 basechar 0
AnchorPoint: "Anchor-10" 1245.18 1452.91 basechar 0
LayerCount: 2
Fore
SplineSet
1305 1006 m 1,0,1
 1803 690 1803 690 1722 333 c 0,2,3
 1696 220 1696 220 1590 134 c 0,4,5
 1437 9 1437 9 1160 -17 c 0,6,7
 1025 -29 1025 -29 839 -29 c 0,8,9
 109 -29 109 -29 107 485 c 0,10,11
 106 631 106 631 176 781 c 0,12,13
 218 868 218 868 265 846 c 2,14,-1
 321 819 l 2,15,16
 362 799 362 799 332 735 c 0,17,18
 275 609 275 609 275 506 c 0,19,20
 274 153 274 153 863 152 c 0,21,22
 1223 152 1223 152 1401 218 c 0,23,24
 1555 274 1555 274 1559 430 c 0,25,26
 1563 555 1563 555 1429 688 c 0,27,28
 1338 778 1338 778 1243 838 c 0,29,30
 1143 903 1143 903 1131 969 c 0,31,32
 1109 1084 1109 1084 1230 1165 c 0,33,34
 1534 1370 1534 1370 1905 1458 c 0,35,36
 1985 1477 1985 1477 1989 1428 c 2,37,-1
 1993 1367 l 2,38,39
 1996 1311 1996 1311 1927 1294 c 0,40,41
 1627 1223 1627 1223 1305 1006 c 1,0,1
EndSplineSet
Substitution2: "'init' Initial Forms in Arabic lookup 13 subtable" uniFB90
Substitution2: "'medi' Medial Forms in Arabic lookup 11 subtable" uniFB91
Substitution2: "'fina' Terminal Forms in Arabic lookup 9 subtable" uniFB8F
EndChar

StartChar: afii57514
Encoding: 1722 1722 83
Width: 1486
GlyphClass: 2
Flags: W
AnchorPoint: "Anchor-5" 630 1219 basechar 0
AnchorPoint: "Anchor-3" 470 -718 basechar 0
LayerCount: 2
Fore
SplineSet
1383 188 m 0,0,1
 1350 -403 1350 -403 704 -401 c 0,2,3
 104 -399 104 -399 105 103 c 0,4,5
 106 403 106 403 334 689 c 0,6,7
 378 743 378 743 424 711 c 2,8,-1
 474 677 l 2,9,10
 510 652 510 652 466 589 c 0,11,12
 275 316 275 316 277 120 c 0,13,14
 279 -227 279 -227 733.5 -223.5 c 128,-1,15
 1188 -220 1188 -220 1208 169 c 0,16,17
 1219 385 1219 385 1205 510 c 0,18,19
 1195 602 1195 602 1247 626 c 2,20,-1
 1297 649 l 2,21,22
 1380 687 1380 687 1382 598 c 0,23,24
 1388 273 1388 273 1383 188 c 0,0,1
EndSplineSet
Substitution2: "'init' Initial Forms in Arabic lookup 13 subtable" uni06BA.init
Substitution2: "'medi' Medial Forms in Arabic lookup 11 subtable" uni06BA.medi
Substitution2: "'fina' Terminal Forms in Arabic lookup 9 subtable" uniFB9F
EndChar

StartChar: uni06F4
Encoding: 1780 1780 90
Width: 1132
GlyphClass: 2
Flags: W
LayerCount: 2
Fore
SplineSet
546 15 m 1,0,1
 546 15 546 15 380 15 c 1,2,3
 376 694 376 694 142 1244 c 0,4,5
 120 1295 120 1295 158 1307 c 2,6,-1
 250 1337 l 2,7,8
 285 1348 285 1348 302 1298 c 0,9,10
 346 1177 346 1177 390 1056 c 1,11,-1
 405 1010 l 1,12,-1
 410 1027 l 1,13,14
 494 1359 494 1359 795 1366 c 0,15,16
 864 1367 864 1367 909 1361 c 0,17,18
 955 1354 955 1354 955 1288 c 2,19,-1
 955 1242 l 2,20,21
 955 1194 955 1194 917 1201 c 0,22,23
 848 1212 848 1212 779 1204 c 0,24,25
 686 1194 686 1194 629 1133 c 0,26,27
 549 1046 549 1046 549 971 c 0,28,29
 550 866 550 866 776 867 c 0,30,31
 819 867 819 867 963 886 c 0,32,33
 1022 894 1022 894 1022 853 c 2,34,-1
 1023 776 l 2,35,36
 1024 731 1024 731 992 726 c 0,37,38
 852 704 852 704 789 704 c 0,39,40
 577 703 577 703 456 808 c 1,41,42
 536 455 536 455 546 15 c 1,0,1
EndSplineSet
EndChar

StartChar: uni06F5
Encoding: 1781 1781 91
Width: 1305
GlyphClass: 2
Flags: W
LayerCount: 2
Fore
SplineSet
396 193 m 0,0,1
 552 193 552 193 601 427 c 1,2,-1
 713 427 l 1,3,4
 753 189 753 189 927 188 c 0,5,6
 1027 188 1027 188 1027 343 c 0,7,8
 1025 688 1025 688 621 1048 c 1,9,10
 281 640 281 640 280 337 c 0,11,12
 280 192 280 192 396 193 c 0,0,1
391 15 m 0,13,14
 107 19 107 19 107 345 c 0,15,16
 107 706 107 706 502 1165 c 1,17,18
 454 1210 454 1210 475 1234 c 2,19,-1
 543 1318 l 2,20,21
 565 1345 565 1345 598 1313 c 0,22,23
 626 1286 626 1286 673 1241 c 0,24,25
 1200 746 1200 746 1199 351 c 0,26,27
 1197 16 1197 16 937 15 c 0,28,29
 728 15 728 15 657 211 c 1,30,31
 582 13 582 13 391 15 c 0,13,14
EndSplineSet
EndChar

StartChar: uni06F6
Encoding: 1782 1782 92
Width: 1049
GlyphClass: 2
Flags: W
LayerCount: 2
Fore
SplineSet
138 19 m 1,0,1
 242 342 242 342 466 600 c 1,2,3
 324 626 324 626 255 672 c 0,4,5
 115 765 115 765 115 930 c 0,6,7
 114 1083 114 1083 217 1194 c 0,8,9
 342 1330 342 1330 593 1329 c 0,10,11
 631 1329 631 1329 690 1320 c 0,12,13
 719 1316 719 1316 712 1270 c 2,14,-1
 700 1198 l 2,15,16
 696 1171 696 1171 665 1174 c 0,17,18
 638 1177 638 1177 594 1178 c 0,19,20
 438 1177 438 1177 353 1089 c 0,21,22
 294 1027 294 1027 289 944 c 0,23,24
 284 870 284 870 347 820 c 0,25,26
 423 759 423 759 592 741 c 1,27,28
 770 857 770 857 889 889 c 0,29,30
 928 899 928 899 929 869 c 2,31,-1
 933 772 l 2,32,33
 934 743 934 743 908 731 c 0,34,35
 716 640 716 640 578 486 c 0,36,37
 417 308 417 308 283 -35 c 1,38,-1
 138 19 l 1,0,1
EndSplineSet
EndChar

StartChar: uniFB8F
Encoding: 64399 64399 107
Width: 2021
GlyphClass: 2
Flags: W
AnchorPoint: "Anchor-10" 1245.18 1452.91 basechar 0
AnchorPoint: "Anchor-7" 796.281 -232.565 basechar 0
LayerCount: 2
Fore
SplineSet
2003 180 m 2,0,1
 2003 180 2003 180 2027 180 c 0,2,3
 2053 180 2053 180 2053 98 c 2,4,-1
 2053 88 l 2,5,6
 2053 0 2053 0 2027 0 c 2,7,-1
 2007 0 l 2,8,9
 1768 0 1768 0 1644 190 c 1,10,11
 1621 160 1621 160 1590 134 c 0,12,13
 1443 9 1443 9 1160 -17 c 0,14,15
 1025 -29 1025 -29 839 -29 c 0,16,17
 109 -29 109 -29 107 485 c 0,18,19
 106 631 106 631 176 781 c 0,20,21
 218 868 218 868 265 846 c 2,22,-1
 321 819 l 2,23,24
 362 799 362 799 332 735 c 0,25,26
 274 607 274 607 275 506 c 0,27,28
 277 153 277 153 863 152 c 0,29,30
 1223 152 1223 152 1401 218 c 0,31,32
 1555 274 1555 274 1559 430 c 0,33,34
 1563 555 1563 555 1429 688 c 0,35,36
 1338 778 1338 778 1243 838 c 0,37,38
 1143 903 1143 903 1131 969 c 0,39,40
 1109 1084 1109 1084 1230 1165 c 0,41,42
 1539 1370 1539 1370 1905 1458 c 0,43,44
 1985 1477 1985 1477 1989 1428 c 2,45,-1
 1993 1367 l 2,46,47
 1996 1311 1996 1311 1927 1294 c 0,48,49
 1630 1225 1630 1225 1305 1006 c 1,50,51
 1777 705 1777 705 1725 374 c 1,52,53
 1840 180 1840 180 2003 180 c 2,0,1
EndSplineSet
EndChar

StartChar: uniFB9F
Encoding: 64415 64415 115
Width: 1587
GlyphClass: 2
Flags: W
AnchorPoint: "Anchor-5" 438 802 basechar 0
AnchorPoint: "Anchor-3" 291 -815 basechar 0
LayerCount: 2
Fore
SplineSet
1584 0 m 2,0,1
 1426 0 1426 0 1383 63 c 1,2,3
 1346 -528 1346 -528 704 -526 c 0,4,5
 104 -524 104 -524 105 -22 c 0,6,7
 106 278 106 278 334 563 c 0,8,9
 378 618 378 618 424 586 c 2,10,-1
 474 552 l 2,11,12
 510 527 510 527 466 463 c 0,13,14
 275 191 275 191 277 -5 c 0,15,16
 279 -352 279 -352 734 -349 c 0,17,18
 1188 -345 1188 -345 1208 44 c 0,19,20
 1219 260 1219 260 1205 385 c 0,21,22
 1195 477 1195 477 1247 501 c 2,23,-1
 1297 524 l 2,24,25
 1381 563 1381 563 1382 473 c 0,26,27
 1384 320 1384 320 1393 282 c 0,28,29
 1400 255 1400 255 1423 233 c 0,30,31
 1481 180 1481 180 1580 180 c 2,32,-1
 1594 180 l 2,33,34
 1620 180 1620 180 1620 98 c 2,35,-1
 1620 88 l 2,36,37
 1620 0 1620 0 1594 0 c 2,38,-1
 1584 0 l 2,0,1
EndSplineSet
EndChar

StartChar: uniFBE8
Encoding: 64488 64488 118
Width: 649
GlyphClass: 2
Flags: W
AnchorPoint: "Anchor-5" 321 1177 basechar 0
AnchorPoint: "Anchor-3" 283 -220 basechar 0
LayerCount: 2
Fore
SplineSet
-5 180 m 2,0,-1
 59 180 l 2,1,2
 388 180 388 180 371 407 c 0,3,4
 365 480 365 480 328 628 c 0,5,6
 306 713 306 713 351 731 c 2,7,-1
 419 759 l 2,8,9
 477 782 477 782 499 701 c 0,10,11
 544 546 544 546 545 413 c 0,12,13
 546 0 546 0 56 0 c 2,14,-1
 -5 0 l 2,15,16
 -74 0 -74 0 -74 90 c 2,17,-1
 -74 97 l 2,18,19
 -74 180 -74 180 -5 180 c 2,0,-1
EndSplineSet
EndChar

StartChar: uniFBE9
Encoding: 64489 64489 119
Width: 736
GlyphClass: 2
Flags: W
AnchorPoint: "Anchor-5" 382 1117 basechar 0
AnchorPoint: "Anchor-3" 298 -217 basechar 0
LayerCount: 2
Fore
SplineSet
742 0 m 2,0,-1
 692 0 l 2,1,2
 507 0 507 0 426 128 c 1,3,4
 302 0 302 0 40 0 c 2,5,-1
 -5 0 l 2,6,7
 -74 0 -74 0 -74 90 c 2,8,-1
 -74 97 l 2,9,10
 -74 180 -74 180 -5 180 c 2,11,-1
 37 180 l 2,12,13
 358 180 358 180 363 359 c 2,14,-1
 366 476 l 2,15,16
 368 534 368 534 419 534 c 2,17,-1
 474 534 l 2,18,19
 522 534 522 534 518 455 c 2,20,-1
 513 354 l 2,21,22
 505 180 505 180 698 180 c 2,23,-1
 742 180 l 2,24,25
 768 180 768 180 768 98 c 2,26,-1
 768 88 l 2,27,28
 768 0 768 0 742 0 c 2,0,-1
EndSplineSet
EndChar

StartChar: uniFE73
Encoding: 65139 65139 127
Width: 634
VWidth: 2429
GlyphClass: 2
Flags: W
AnchorPoint: "Anchor-10" 231.504 1421.44 basechar 0
AnchorPoint: "Anchor-7" 231.504 -126.044 basechar 0
LayerCount: 2
Fore
SplineSet
324.555664062 388.198242188 m 2,0,1
 324.555664062 315.91015625 324.555664062 315.91015625 384.729492188 255.735351562 c 128,-1,2
 444.903320312 195.560546875 444.903320312 195.560546875 569.5703125 195.560546875 c 2,3,-1
 642.385742188 195.560546875 l 1,4,-1
 642.385742188 9.4560546875 l 1,5,-1
 504.099609375 9.4560546875 l 2,6,7
 341.88671875 9.4560546875 341.88671875 9.4560546875 240.169921875 111.173828125 c 128,-1,8
 138.452148438 212.890625 138.452148438 212.890625 138.452148438 373.9140625 c 2,9,-1
 138.452148438 408.637695312 l 1,10,-1
 324.555664062 408.637695312 l 1,11,-1
 324.555664062 388.198242188 l 2,0,1
EndSplineSet
EndChar

StartChar: uniFE8E
Encoding: 65166 65166 153
Width: 528
GlyphClass: 2
Flags: W
AnchorPoint: "Anchor-7" 284.281 -212.565 basechar 0
AnchorPoint: "Anchor-10" 203.183 1493.45 basechar 0
LayerCount: 2
Fore
SplineSet
511 180 m 2,0,-1
 535 180 l 2,1,2
 561 180 561 180 561 98 c 2,3,-1
 561 88 l 2,4,5
 561 0 561 0 535 0 c 2,6,-1
 516 0 l 2,7,8
 165 0 165 0 142 482 c 0,9,10
 127.617021277 774.085106383 127.617021277 774.085106383 127.617021277 968.382978723 c 128,-1,11
 127.617021277 1162.68085106 127.617021277 1162.68085106 137 1286 c 0,12,13
 141 1346 141 1346 185 1346 c 2,14,-1
 251 1348 l 2,15,16
 303.266666667 1348.93333333 303.266666667 1348.93333333 303.266666667 1294.11555556 c 0,17,18
 303.266666667 1290.2 303.266666667 1290.2 296.893073593 1166.71688312 c 128,-1,19
 290.519480519 1043.23376623 290.519480519 1043.23376623 290.519480519 808.564935065 c 0,20,21
 290.519480519 360.100649351 290.519480519 360.100649351 377 252 c 0,22,23
 438 180 438 180 511 180 c 2,0,-1
EndSplineSet
EndChar

StartChar: uniFEA2
Encoding: 65186 65186 173
Width: 1328
GlyphClass: 2
Flags: W
AnchorPoint: "Anchor-7" 559.281 -871.565 basechar 0
AnchorPoint: "Anchor-10" 586.183 1132.91 basechar 0
LayerCount: 2
Fore
SplineSet
1313 0 m 2,0,1
 907 0 907 0 888 403 c 1,2,3
 309 206 309 206 308 -216 c 0,4,5
 308 -542 308 -542 728 -542 c 0,6,7
 923 -542 923 -542 1108 -467 c 0,8,9
 1175 -440 1175 -440 1185 -487 c 2,10,-1
 1201 -562 l 2,11,12
 1212 -613 1212 -613 1152 -639 c 0,13,14
 970 -716 970 -716 717 -716 c 0,15,16
 464 -715 464 -715 326 -614 c 0,17,18
 140 -481 140 -481 141 -219 c 0,19,20
 143 315 143 315 796 539 c 1,21,22
 582 595 582 595 454 592 c 0,23,24
 337 589 337 589 189 398 c 1,25,-1
 63 472 l 1,26,27
 238 758 238 758 447 772 c 0,28,29
 570 779 570 779 791 725 c 0,30,31
 997 675 997 675 1125 619 c 0,32,33
 1177 596 1177 596 1173 567 c 2,34,-1
 1163 504 l 2,35,36
 1156 456 1156 456 1089 449 c 0,37,38
 1066 446 1066 446 1022 438 c 1,39,40
 1041 180 1041 180 1314 180 c 2,41,-1
 1334 180 l 2,42,43
 1360 180 1360 180 1360 98 c 2,44,-1
 1360 88 l 2,45,46
 1360 0 1360 0 1334 0 c 2,47,-1
 1313 0 l 2,0,1
EndSplineSet
EndChar

StartChar: uniFEA3
Encoding: 65187 65187 174
Width: 1306
GlyphClass: 2
Flags: W
AnchorPoint: "Anchor-10" 583.183 1229.91 basechar 0
AnchorPoint: "Anchor-7" 547.281 -193.565 basechar 0
LayerCount: 2
Fore
SplineSet
-5 180 m 2,0,-1
 23 180 l 2,1,2
 741 180 741 180 1018 497 c 1,3,4
 816 570 816 570 756 585 c 0,5,6
 645 613 645 613 579 612 c 0,7,8
 403 611 403 611 247 365 c 0,9,10
 214 312 214 312 176 341 c 2,11,-1
 125 381 l 2,12,13
 94 405 94 405 119 450 c 0,14,15
 315 798 315 798 583 792 c 0,16,17
 744 788 744 788 927 725 c 0,18,19
 1216 626 1216 626 1210 492 c 0,20,21
 1207 423 1207 423 1124 344 c 0,22,23
 761 0 761 0 25 0 c 2,24,-1
 -5 0 l 2,25,26
 -74 0 -74 0 -74 90 c 2,27,-1
 -74 97 l 2,28,29
 -74 180 -74 180 -5 180 c 2,0,-1
EndSplineSet
EndChar

StartChar: uniFEA4
Encoding: 65188 65188 175
Width: 1351
GlyphClass: 2
Flags: W
AnchorPoint: "Anchor-7" 547.281 -193.565 basechar 0
AnchorPoint: "Anchor-10" 583.183 1229.91 basechar 0
LayerCount: 2
Fore
SplineSet
1312 0 m 2,0,1
 983 0 983 0 911 197 c 1,2,3
 561 0 561 0 25 0 c 2,4,-1
 -5 0 l 2,5,6
 -74 0 -74 0 -74 90 c 2,7,-1
 -74 97 l 2,8,9
 -74 180 -74 180 -5 180 c 2,10,-1
 23 180 l 2,11,12
 740 180 740 180 1018 497 c 1,13,14
 816 570 816 570 756 585 c 0,15,16
 645 613 645 613 579 612 c 0,17,18
 402 609 402 609 247 365 c 0,19,20
 214 312 214 312 176 341 c 2,21,-1
 125 381 l 2,22,23
 94 405 94 405 119 450 c 0,24,25
 311 798 311 798 583 792 c 0,26,27
 744 788 744 788 927 725 c 0,28,29
 1214 626 1214 626 1210 494 c 0,30,31
 1208 425 1208 425 1124 344 c 0,32,33
 1083 306 1083 306 1044 276 c 1,34,35
 1085 180 1085 180 1318 180 c 2,36,-1
 1358 180 l 2,37,38
 1384 180 1384 180 1384 98 c 2,39,-1
 1384 88 l 2,40,41
 1384 0 1384 0 1358 0 c 2,42,-1
 1312 0 l 2,0,1
EndSplineSet
EndChar

StartChar: uniFEAA
Encoding: 65194 65194 181
Width: 1103
GlyphClass: 2
Flags: W
AnchorPoint: "Anchor-7" 421.281 -187.565 basechar 0
AnchorPoint: "Anchor-10" 661.183 1265.91 basechar 0
LayerCount: 2
Fore
SplineSet
1076 180 m 2,0,1
 1076 180 1076 180 1109 180 c 0,2,3
 1135 180 1135 180 1135 98 c 2,4,-1
 1135 88 l 2,5,6
 1135 0 1135 0 1109 0 c 2,7,-1
 1083 0 l 2,8,9
 916 0 916 0 830 127 c 1,10,11
 692 -28 692 -28 441 -30 c 0,12,13
 266 -31 266 -31 153 25 c 0,14,15
 104 50 104 50 104 97 c 2,16,-1
 104 185 l 2,17,18
 104 251 104 251 169 219 c 0,19,20
 305 152 305 152 437 151 c 0,21,22
 720 151 720 151 713 319 c 0,23,24
 707 459 707 459 644 777 c 0,25,26
 632 836 632 836 673 850 c 2,27,-1
 756 878 l 2,28,29
 805 894 805 894 812 831 c 0,30,31
 846 541 846 541 881 374 c 0,32,33
 923 180 923 180 1076 180 c 2,0,1
EndSplineSet
EndChar

StartChar: uniFEAE
Encoding: 65198 65198 185
Width: 937
GlyphClass: 2
Flags: W
AnchorPoint: "Anchor-10" 535.183 1007.91 basechar 0
AnchorPoint: "Anchor-7" 337.281 -673.565 basechar 0
LayerCount: 2
Fore
SplineSet
924 180 m 2,0,-1
 943 180 l 2,1,2
 969 180 969 180 969 98 c 2,3,-1
 969 88 l 2,4,5
 969 0 969 0 943 0 c 2,6,-1
 924 0 l 2,7,8
 797 0 797 0 732 63 c 1,9,10
 647 -437 647 -437 121 -504 c 0,11,12
 95 -507 95 -507 81 -488 c 2,13,-1
 36 -421 l 2,14,15
 12 -386 12 -386 48 -377 c 0,16,17
 530 -256 530 -256 573 135 c 0,18,19
 579 189 579 189 569 445 c 0,20,21
 567 507 567 507 606 515 c 2,22,-1
 688 532 l 2,23,24
 736 542 736 542 739 473 c 2,25,-1
 743 318 l 2,26,27
 747 180 747 180 924 180 c 2,0,-1
EndSplineSet
PairPos2: "'kern' Horizontal Kerning lookup 15-1" uniFEE7 dx=-157 dy=0 dh=-157 dv=0 dx=0 dy=0 dh=0 dv=0
PairPos2: "'kern' Horizontal Kerning lookup 15-2" uniFB90 dx=-198 dy=0 dh=-198 dv=0 dx=0 dy=0 dh=0 dv=0
PairPos2: "'kern' Horizontal Kerning lookup 15-2" uniFB8E dx=-198 dy=0 dh=-198 dv=0 dx=0 dy=0 dh=0 dv=0
PairPos2: "'kern' Horizontal Kerning lookup 15-2" uni06A9 dx=-198 dy=0 dh=-198 dv=0 dx=0 dy=0 dh=0 dv=0
PairPos2: "'kern' Horizontal Kerning lookup 15-2" uni064A dx=-52 dy=0 dh=-52 dv=0 dx=0 dy=0 dh=0 dv=0
PairPos2: "'kern' Horizontal Kerning lookup 15-2" afii57414 dx=-52 dy=0 dh=-52 dv=0 dx=0 dy=0 dh=0 dv=0
PairPos2: "'kern' Horizontal Kerning lookup 15-2" uni0649 dx=-52 dy=0 dh=-52 dv=0 dx=0 dy=0 dh=0 dv=0
PairPos2: "'kern' Horizontal Kerning lookup 15-2" uni0648 dx=-52 dy=0 dh=-52 dv=0 dx=0 dy=0 dh=0 dv=0
PairPos2: "'kern' Horizontal Kerning lookup 15-2" afii57412 dx=-52 dy=0 dh=-52 dv=0 dx=0 dy=0 dh=0 dv=0
PairPos2: "'kern' Horizontal Kerning lookup 15-2" uniFEEB dx=-157 dy=0 dh=-157 dv=0 dx=0 dy=0 dh=0 dv=0
PairPos2: "'kern' Horizontal Kerning lookup 15-2" uni0647 dx=-157 dy=0 dh=-157 dv=0 dx=0 dy=0 dh=0 dv=0
PairPos2: "'kern' Horizontal Kerning lookup 15-2" uni0646 dx=-52 dy=0 dh=-52 dv=0 dx=0 dy=0 dh=0 dv=0
PairPos2: "'kern' Horizontal Kerning lookup 15-2" uniFEE3 dx=-157 dy=0 dh=-157 dv=0 dx=0 dy=0 dh=0 dv=0
PairPos2: "'kern' Horizontal Kerning lookup 15-2" uni0645 dx=-157 dy=0 dh=-157 dv=0 dx=0 dy=0 dh=0 dv=0
PairPos2: "'kern' Horizontal Kerning lookup 15-2" uniFEFB dx=-157 dy=0 dh=-157 dv=0 dx=0 dy=0 dh=0 dv=0
PairPos2: "'kern' Horizontal Kerning lookup 15-2" uniFEDF dx=-157 dy=0 dh=-157 dv=0 dx=0 dy=0 dh=0 dv=0
PairPos2: "'kern' Horizontal Kerning lookup 15-2" uni0644 dx=-52 dy=0 dh=-52 dv=0 dx=0 dy=0 dh=0 dv=0
PairPos2: "'kern' Horizontal Kerning lookup 15-2" uniFEDB dx=-198 dy=0 dh=-198 dv=0 dx=0 dy=0 dh=0 dv=0
PairPos2: "'kern' Horizontal Kerning lookup 15-2" uni0643 dx=-157 dy=0 dh=-157 dv=0 dx=0 dy=0 dh=0 dv=0
PairPos2: "'kern' Horizontal Kerning lookup 15-2" uniFED7 dx=-157 dy=0 dh=-157 dv=0 dx=0 dy=0 dh=0 dv=0
PairPos2: "'kern' Horizontal Kerning lookup 15-2" uni0642 dx=-52 dy=0 dh=-52 dv=0 dx=0 dy=0 dh=0 dv=0
PairPos2: "'kern' Horizontal Kerning lookup 15-2" uniFED3 dx=-157 dy=0 dh=-157 dv=0 dx=0 dy=0 dh=0 dv=0
PairPos2: "'kern' Horizontal Kerning lookup 15-2" uni0641 dx=-157 dy=0 dh=-157 dv=0 dx=0 dy=0 dh=0 dv=0
PairPos2: "'kern' Horizontal Kerning lookup 15-2" uniFECF dx=-157 dy=0 dh=-157 dv=0 dx=0 dy=0 dh=0 dv=0
PairPos2: "'kern' Horizontal Kerning lookup 15-2" uniFECB dx=-157 dy=0 dh=-157 dv=0 dx=0 dy=0 dh=0 dv=0
PairPos2: "'kern' Horizontal Kerning lookup 15-2" uniFEC7 dx=-157 dy=0 dh=-157 dv=0 dx=0 dy=0 dh=0 dv=0
PairPos2: "'kern' Horizontal Kerning lookup 15-2" uni0638 dx=-157 dy=0 dh=-157 dv=0 dx=0 dy=0 dh=0 dv=0
PairPos2: "'kern' Horizontal Kerning lookup 15-2" uniFEC3 dx=-157 dy=0 dh=-157 dv=0 dx=0 dy=0 dh=0 dv=0
PairPos2: "'kern' Horizontal Kerning lookup 15-2" uni0637 dx=-157 dy=0 dh=-157 dv=0 dx=0 dy=0 dh=0 dv=0
PairPos2: "'kern' Horizontal Kerning lookup 15-2" uniFEBF dx=-157 dy=0 dh=-157 dv=0 dx=0 dy=0 dh=0 dv=0
PairPos2: "'kern' Horizontal Kerning lookup 15-2" uni0636 dx=-157 dy=0 dh=-157 dv=0 dx=0 dy=0 dh=0 dv=0
PairPos2: "'kern' Horizontal Kerning lookup 15-2" uniFEBB dx=-157 dy=0 dh=-157 dv=0 dx=0 dy=0 dh=0 dv=0
PairPos2: "'kern' Horizontal Kerning lookup 15-2" uni0635 dx=-157 dy=0 dh=-157 dv=0 dx=0 dy=0 dh=0 dv=0
PairPos2: "'kern' Horizontal Kerning lookup 15-2" uniFEB7 dx=-157 dy=0 dh=-157 dv=0 dx=0 dy=0 dh=0 dv=0
PairPos2: "'kern' Horizontal Kerning lookup 15-2" uni0634 dx=-157 dy=0 dh=-157 dv=0 dx=0 dy=0 dh=0 dv=0
PairPos2: "'kern' Horizontal Kerning lookup 15-2" uniFEB3 dx=-157 dy=0 dh=-157 dv=0 dx=0 dy=0 dh=0 dv=0
PairPos2: "'kern' Horizontal Kerning lookup 15-2" uni0633 dx=-157 dy=0 dh=-157 dv=0 dx=0 dy=0 dh=0 dv=0
PairPos2: "'kern' Horizontal Kerning lookup 15-2" uni0632 dx=-52 dy=0 dh=-52 dv=0 dx=0 dy=0 dh=0 dv=0
PairPos2: "'kern' Horizontal Kerning lookup 15-2" uni0631 dx=-52 dy=0 dh=-52 dv=0 dx=0 dy=0 dh=0 dv=0
PairPos2: "'kern' Horizontal Kerning lookup 15-2" uni0630 dx=-157 dy=0 dh=-157 dv=0 dx=0 dy=0 dh=0 dv=0
PairPos2: "'kern' Horizontal Kerning lookup 15-2" uni062F dx=-157 dy=0 dh=-157 dv=0 dx=0 dy=0 dh=0 dv=0
PairPos2: "'kern' Horizontal Kerning lookup 15-2" uniFEA7 dx=-157 dy=0 dh=-157 dv=0 dx=0 dy=0 dh=0 dv=0
PairPos2: "'kern' Horizontal Kerning lookup 15-2" uniFEA3 dx=-157 dy=0 dh=-157 dv=0 dx=0 dy=0 dh=0 dv=0
PairPos2: "'kern' Horizontal Kerning lookup 15-2" uniFE9F dx=-157 dy=0 dh=-157 dv=0 dx=0 dy=0 dh=0 dv=0
PairPos2: "'kern' Horizontal Kerning lookup 15-2" uniFE9B dx=-157 dy=0 dh=-157 dv=0 dx=0 dy=0 dh=0 dv=0
PairPos2: "'kern' Horizontal Kerning lookup 15-2" uni062B dx=-157 dy=0 dh=-157 dv=0 dx=0 dy=0 dh=0 dv=0
PairPos2: "'kern' Horizontal Kerning lookup 15-2" uniFE97 dx=-157 dy=0 dh=-157 dv=0 dx=0 dy=0 dh=0 dv=0
PairPos2: "'kern' Horizontal Kerning lookup 15-2" uni062A dx=-157 dy=0 dh=-157 dv=0 dx=0 dy=0 dh=0 dv=0
PairPos2: "'kern' Horizontal Kerning lookup 15-2" uni0629 dx=-157 dy=0 dh=-157 dv=0 dx=0 dy=0 dh=0 dv=0
PairPos2: "'kern' Horizontal Kerning lookup 15-2" uniFE91 dx=-52 dy=0 dh=-52 dv=0 dx=0 dy=0 dh=0 dv=0
PairPos2: "'kern' Horizontal Kerning lookup 15-2" uni0628 dx=-157 dy=0 dh=-157 dv=0 dx=0 dy=0 dh=0 dv=0
PairPos2: "'kern' Horizontal Kerning lookup 15-2" uni0627 dx=-198 dy=0 dh=-198 dv=0 dx=0 dy=0 dh=0 dv=0
PairPos2: "'kern' Horizontal Kerning lookup 15-2" uni0623 dx=-198 dy=0 dh=-198 dv=0 dx=0 dy=0 dh=0 dv=0
PairPos2: "'kern' Horizontal Kerning lookup 15-2" uni0622 dx=-198 dy=0 dh=-198 dv=0 dx=0 dy=0 dh=0 dv=0
PairPos2: "'kern' Horizontal Kerning lookup 15-2" uni0621 dx=-157 dy=0 dh=-157 dv=0 dx=0 dy=0 dh=0 dv=0
PairPos2: "'kern' Horizontal Kerning lookup 15-2" uniFB94 dx=-198 dy=0 dh=-198 dv=0 dx=0 dy=0 dh=0 dv=0
PairPos2: "'kern' Horizontal Kerning lookup 15-2" uniFB92 dx=-198 dy=0 dh=-198 dv=0 dx=0 dy=0 dh=0 dv=0
PairPos2: "'kern' Horizontal Kerning lookup 15-2" afii57509 dx=-198 dy=0 dh=-198 dv=0 dx=0 dy=0 dh=0 dv=0
PairPos2: "'kern' Horizontal Kerning lookup 15-2" afii57508 dx=-52 dy=0 dh=-52 dv=0 dx=0 dy=0 dh=0 dv=0
PairPos2: "'kern' Horizontal Kerning lookup 15-2" afii57506 dx=-157 dy=0 dh=-157 dv=0 dx=0 dy=0 dh=0 dv=0
PairPos2: "'kern' Horizontal Kerning lookup 15-2" afii57440 dx=-157 dy=0 dh=-157 dv=0 dx=0 dy=0 dh=0 dv=0
PairPos2: "'kern' Horizontal Kerning lookup 15-2" uniFE8B dx=-157 dy=0 dh=-157 dv=0 dx=0 dy=0 dh=0 dv=0
EndChar

StartChar: uniFEB2
Encoding: 65202 65202 189
Width: 2606
GlyphClass: 2
Flags: W
AnchorPoint: "Anchor-7" 656.281 -772.565 basechar 0
AnchorPoint: "Anchor-10" 1811.18 1194.91 basechar 0
LayerCount: 2
Fore
SplineSet
2589 180 m 2,0,-1
 2613 180 l 2,1,2
 2639 180 2639 180 2639 98 c 2,3,-1
 2639 88 l 2,4,5
 2639 0 2639 0 2613 0 c 2,6,-1
 2593 0 l 2,7,8
 2402 0 2402 0 2335 142 c 1,9,10
 2228 0 2228 0 2084 0 c 0,11,12
 1919 0 1919 0 1838 142 c 1,13,14
 1701 1 1701 1 1566 0 c 0,15,16
 1413 -1 1413 -1 1383 63 c 1,17,18
 1346 -528 1346 -528 704 -526 c 0,19,20
 104 -524 104 -524 105 -22 c 0,21,22
 106 278 106 278 334 563 c 0,23,24
 378 618 378 618 424 586 c 2,25,-1
 474 552 l 2,26,27
 510 527 510 527 466 463 c 0,28,29
 275 191 275 191 277 -5 c 0,30,31
 279 -352 279 -352 734 -349 c 0,32,33
 1188 -345 1188 -345 1208 44 c 0,34,35
 1219 260 1219 260 1205 385 c 0,36,37
 1195 477 1195 477 1247 501 c 2,38,-1
 1297 524 l 2,39,40
 1381 563 1381 563 1382 473 c 0,41,42
 1384 308 1384 308 1393 282 c 0,43,44
 1429 178 1429 178 1560 180 c 0,45,46
 1762 184 1762 184 1773 409 c 2,47,-1
 1776 476 l 2,48,49
 1779 534 1779 534 1829 534 c 2,50,-1
 1884 534 l 2,51,52
 1932 534 1932 534 1928 455 c 2,53,-1
 1923 354 l 2,54,55
 1915 178 1915 178 2099 180 c 0,56,57
 2258 182 2258 182 2269 409 c 2,58,-1
 2273 476 l 2,59,60
 2276 534 2276 534 2326 534 c 2,61,-1
 2380 534 l 2,62,63
 2429 534 2429 534 2425 455 c 2,64,-1
 2420 354 l 2,65,66
 2412 180 2412 180 2589 180 c 2,0,-1
EndSplineSet
EndChar

StartChar: uniFEB3
Encoding: 65203 65203 190
Width: 1585
GlyphClass: 2
Flags: W
AnchorPoint: "Anchor-10" 859.183 1145.91 basechar 0
AnchorPoint: "Anchor-7" 829.281 -193.565 basechar 0
LayerCount: 2
Fore
SplineSet
-5 180 m 2,0,-1
 25 180 l 2,1,2
 289 180 289 180 300 409 c 2,3,-1
 303 476 l 2,4,5
 306 534 306 534 357 534 c 2,6,-1
 411 534 l 2,7,8
 459 534 459 534 456 455 c 2,9,-1
 451 354 l 2,10,11
 442 178 442 178 630 180 c 0,12,13
 811 182 811 182 822 409 c 2,14,-1
 825 476 l 2,15,16
 828 534 828 534 878 534 c 2,17,-1
 933 534 l 2,18,19
 981 534 981 534 977 455 c 2,20,-1
 973 354 l 2,21,22
 964 178 964 178 1152 180 c 0,23,24
 1320 182 1320 182 1306 428 c 0,25,26
 1302 504 1302 504 1281 592 c 0,27,28
 1260 672 1260 672 1300 688 c 2,29,-1
 1366 715 l 2,30,31
 1429 740 1429 740 1450 664 c 0,32,33
 1483 545 1483 545 1484 445 c 0,34,35
 1487 0 1487 0 1155 0 c 0,36,37
 970 0 970 0 887 142 c 1,38,39
 749 0 749 0 615 0 c 0,40,41
 433 0 433 0 363 128 c 1,42,43
 249 0 249 0 27 0 c 2,44,-1
 -5 0 l 2,45,46
 -74 0 -74 0 -74 90 c 2,47,-1
 -74 97 l 2,48,49
 -74 180 -74 180 -5 180 c 2,0,-1
EndSplineSet
EndChar

StartChar: uniFEB4
Encoding: 65204 65204 191
Width: 1657
GlyphClass: 2
Flags: W
AnchorPoint: "Anchor-7" 821.281 -193.565 basechar 0
AnchorPoint: "Anchor-10" 879.183 1117.91 basechar 0
LayerCount: 2
Fore
SplineSet
1653 0 m 2,0,1
 1453 0 1453 0 1385 142 c 1,2,3
 1278 0 1278 0 1134 0 c 0,4,5
 970 0 970 0 887 142 c 1,6,7
 749 0 749 0 615 0 c 0,8,9
 433 0 433 0 363 128 c 1,10,11
 249 0 249 0 27 0 c 2,12,-1
 -5 0 l 2,13,14
 -74 0 -74 0 -74 90 c 2,15,-1
 -74 97 l 2,16,17
 -74 180 -74 180 -5 180 c 2,18,-1
 25 180 l 2,19,20
 289 180 289 180 300 409 c 2,21,-1
 303 476 l 2,22,23
 306 534 306 534 357 534 c 2,24,-1
 411 534 l 2,25,26
 459 534 459 534 456 455 c 2,27,-1
 451 354 l 2,28,29
 443 179 443 179 630 180 c 0,30,31
 811 181 811 181 822 409 c 2,32,-1
 825 476 l 2,33,34
 828 534 828 534 878 534 c 2,35,-1
 933 534 l 2,36,37
 981 534 981 534 977 455 c 2,38,-1
 973 354 l 2,39,40
 964 177 964 177 1149 180 c 0,41,42
 1309 182 1309 182 1320 409 c 2,43,-1
 1323 476 l 2,44,45
 1326 534 1326 534 1377 534 c 2,46,-1
 1431 534 l 2,47,48
 1479 534 1479 534 1475 455 c 2,49,-1
 1471 354 l 2,50,51
 1462 180 1462 180 1649 180 c 2,52,-1
 1663 180 l 2,53,54
 1689 180 1689 180 1689 98 c 2,55,-1
 1689 88 l 2,56,57
 1689 0 1689 0 1663 0 c 2,58,-1
 1653 0 l 2,0,1
EndSplineSet
EndChar

StartChar: uniFEBA
Encoding: 65210 65210 197
Width: 2700
GlyphClass: 2
Flags: W
AnchorPoint: "Anchor-7" 656.281 -732.565 basechar 0
AnchorPoint: "Anchor-10" 2139.18 1234.91 basechar 0
LayerCount: 2
Fore
SplineSet
2662 180 m 2,0,1
 2662 180 2662 180 2706 180 c 0,2,3
 2732 180 2732 180 2732 98 c 2,4,-1
 2732 88 l 2,5,6
 2732 0 2732 0 2706 0 c 2,7,-1
 2666 0 l 2,8,9
 2435 0 2435 0 2341 129 c 1,10,11
 2149 0 2149 0 1691 0 c 2,12,-1
 1630 0 l 2,13,14
 1456 0 1456 0 1383 63 c 1,15,16
 1346 -528 1346 -528 704 -526 c 0,17,18
 104 -524 104 -524 105 -22 c 0,19,20
 106 278 106 278 334 563 c 0,21,22
 378 618 378 618 424 586 c 2,23,-1
 474 552 l 2,24,25
 510 527 510 527 466 463 c 0,26,27
 276 187 276 187 277 -5 c 0,28,29
 279 -352 279 -352 734 -349 c 0,30,31
 1187 -345 1187 -345 1208 44 c 0,32,33
 1219 260 1219 260 1205 385 c 0,34,35
 1195 477 1195 477 1247 501 c 2,36,-1
 1297 524 l 2,37,38
 1381 563 1381 563 1382 473 c 0,39,40
 1384 313 1384 313 1393 282 c 0,41,42
 1409 224 1409 224 1455 208 c 1,43,44
 1854 818 1854 818 2191 818 c 0,45,46
 2357 818 2357 818 2448 717 c 0,47,48
 2530 626 2530 626 2531 491 c 0,49,50
 2532 389 2532 389 2486 296 c 0,51,52
 2476 275 2476 275 2465 256 c 1,53,54
 2524 180 2524 180 2662 180 c 2,0,1
1625 181 m 1,55,-1
 1707 181 l 2,56,57
 2346 181 2346 181 2347 466 c 0,58,59
 2348 627 2348 627 2170 627 c 0,60,61
 1983 627 1983 627 1625 181 c 1,55,-1
EndSplineSet
EndChar

StartChar: uniFEBB
Encoding: 65211 65211 198
Width: 1639
GlyphClass: 2
Flags: W
AnchorPoint: "Anchor-10" 1019.18 1234.91 basechar 0
AnchorPoint: "Anchor-7" 688.281 -236.565 basechar 0
LayerCount: 2
Fore
SplineSet
1199 818 m 0,0,1
 1365 818 1365 818 1455 717 c 0,2,3
 1538 625 1538 625 1539 491 c 0,4,5
 1539 393 1539 393 1494 296 c 0,6,7
 1358 3 1358 3 699 0 c 2,8,-1
 638 0 l 2,9,10
 399 -1 399 -1 313 128 c 1,11,12
 199 0 199 0 17 0 c 2,13,-1
 -5 0 l 2,14,15
 -74 0 -74 0 -74 90 c 2,16,-1
 -74 97 l 2,17,18
 -74 180 -74 180 -5 180 c 2,19,-1
 14 180 l 2,20,21
 239 180 239 180 250 409 c 2,22,-1
 253 476 l 2,23,24
 256 534 256 534 307 534 c 2,25,-1
 361 534 l 2,26,27
 409 534 409 534 406 455 c 2,28,-1
 401 354 l 2,29,30
 394 220 394 220 462 208 c 1,31,32
 859 818 859 818 1199 818 c 0,0,1
715 181 m 2,33,34
 1355 181 1355 181 1355 466 c 0,35,36
 1355 627 1355 627 1178 627 c 0,37,38
 990 627 990 627 633 181 c 1,39,-1
 715 181 l 2,33,34
EndSplineSet
EndChar

StartChar: uniFEBC
Encoding: 65212 65212 199
Width: 1707
GlyphClass: 2
Flags: W
AnchorPoint: "Anchor-7" 688.281 -236.565 basechar 0
AnchorPoint: "Anchor-10" 1019.18 1234.91 basechar 0
LayerCount: 2
Fore
SplineSet
1670 180 m 2,0,1
 1670 180 1670 180 1714 180 c 0,2,3
 1740 180 1740 180 1740 98 c 2,4,-1
 1740 88 l 2,5,6
 1740 0 1740 0 1714 0 c 2,7,-1
 1674 0 l 2,8,9
 1442 0 1442 0 1349 129 c 1,10,11
 1164 2 1164 2 699 0 c 2,12,-1
 638 0 l 2,13,14
 399 -1 399 -1 313 128 c 1,15,16
 199 0 199 0 17 0 c 2,17,-1
 -5 0 l 2,18,19
 -74 0 -74 0 -74 90 c 2,20,-1
 -74 97 l 2,21,22
 -74 180 -74 180 -5 180 c 2,23,-1
 14 180 l 2,24,25
 239 180 239 180 250 409 c 2,26,-1
 253 476 l 2,27,28
 256 534 256 534 307 534 c 2,29,-1
 361 534 l 2,30,31
 409 534 409 534 406 455 c 2,32,-1
 401 354 l 2,33,34
 394 220 394 220 462 208 c 1,35,36
 859 818 859 818 1199 818 c 0,37,38
 1365 818 1365 818 1455 717 c 0,39,40
 1538 625 1538 625 1539 491 c 0,41,42
 1539 393 1539 393 1494 296 c 0,43,44
 1485 277 1485 277 1474 258 c 1,45,46
 1534 180 1534 180 1670 180 c 2,0,1
633 181 m 1,47,-1
 715 181 l 2,48,49
 1355 181 1355 181 1355 466 c 0,50,51
 1355 627 1355 627 1178 627 c 0,52,53
 990 627 990 627 633 181 c 1,47,-1
EndSplineSet
EndChar

StartChar: uniFEC2
Encoding: 65218 65218 205
Width: 1565
GlyphClass: 2
Flags: W
AnchorPoint: "Anchor-10" 467.183 1497.45 basechar 0
AnchorPoint: "Anchor-7" 576.281 -204.565 basechar 0
LayerCount: 2
Fore
SplineSet
339 180 m 1,0,1
 378 252 378 252 394 375 c 0,2,3
 406 459 406 459 406 771 c 0,4,5
 407 1075 407 1075 384 1285 c 0,6,7
 377 1348 377 1348 420 1349 c 2,8,-1
 486 1350 l 2,9,10
 535 1351 535 1351 543 1285 c 0,11,12
 575 1050 575 1050 571 785 c 0,13,14
 568 585 568 585 552 500 c 1,15,16
 563 513 563 513 573 525 c 0,17,18
 825 818 825 818 1054 818 c 0,19,20
 1218 818 1218 818 1310 717 c 0,21,22
 1394 625 1394 625 1394 490 c 0,23,24
 1394 385 1394 385 1349 295 c 0,25,26
 1340 278 1340 278 1326 257 c 1,27,28
 1387 180 1387 180 1547 180 c 2,29,-1
 1571 180 l 2,30,31
 1597 180 1597 180 1597 98 c 2,32,-1
 1597 88 l 2,33,34
 1597 0 1597 0 1571 0 c 2,35,-1
 1551 0 l 2,36,37
 1298 0 1298 0 1195 129 c 1,38,39
 987 0 987 0 553 0 c 2,40,-1
 338 0 l 2,41,42
 187 0 187 0 128 99 c 0,43,44
 80 180 80 180 165 180 c 2,45,-1
 339 180 l 1,0,1
488 180 m 1,46,-1
 570 180 l 2,47,48
 1211 180 1211 180 1210 465 c 0,49,50
 1210 627 1210 627 1033 627 c 0,51,52
 846 627 846 627 488 180 c 1,46,-1
EndSplineSet
EndChar

StartChar: uniFEC3
Encoding: 65219 65219 206
Width: 1308
GlyphClass: 2
Flags: W
AnchorPoint: "Anchor-10" 267.183 1496.98 basechar 0
AnchorPoint: "Anchor-7" 376.281 -205.03 basechar 0
LayerCount: 2
Fore
SplineSet
153 0 m 1,0,-1
 -5 0 l 2,1,2
 -74 0 -74 0 -74 90 c 2,3,-1
 -74 97 l 2,4,5
 -74 180 -74 180 -5 180 c 2,6,-1
 153 180 l 1,7,8
 192 252 192 252 209 375 c 0,9,10
 220 459 220 459 220 771 c 0,11,12
 221 1075 221 1075 198 1285 c 0,13,14
 191 1348 191 1348 234 1349 c 2,15,-1
 300 1350 l 2,16,17
 349 1351 349 1351 358 1285 c 0,18,19
 389 1062 389 1062 385 785 c 0,20,21
 382 585 382 585 367 500 c 1,22,23
 377 513 377 513 388 525 c 0,24,25
 643 818 643 818 868 818 c 0,26,27
 1032 818 1032 818 1124 717 c 0,28,29
 1208 625 1208 625 1208 490 c 0,30,31
 1208 391 1208 391 1163 295 c 0,32,33
 1024 0 1024 0 368 0 c 2,34,-1
 153 0 l 1,0,-1
302 180 m 1,35,-1
 384 180 l 2,36,37
 1025 180 1025 180 1024 465 c 0,38,39
 1024 627 1024 627 847 627 c 0,40,41
 660 627 660 627 302 180 c 1,35,-1
EndSplineSet
EndChar

StartChar: uniFEC4
Encoding: 65220 65220 207
Width: 1379
GlyphClass: 2
Flags: W
AnchorPoint: "Anchor-10" 269.183 1492.98 basechar 0
AnchorPoint: "Anchor-7" 378.281 -209.03 basechar 0
LayerCount: 2
Fore
SplineSet
302 180 m 1,0,-1
 384 180 l 2,1,2
 1025 180 1025 180 1024 465 c 0,3,4
 1024 627 1024 627 847 627 c 0,5,6
 660 627 660 627 302 180 c 1,0,-1
1009 129 m 1,7,8
 801 0 801 0 368 0 c 2,9,-1
 153 0 l 1,10,-1
 -5 0 l 2,11,12
 -74 0 -74 0 -74 90 c 2,13,-1
 -74 97 l 2,14,15
 -74 180 -74 180 -5 180 c 2,16,-1
 153 180 l 1,17,18
 192 252 192 252 209 375 c 0,19,20
 220 459 220 459 220 771 c 0,21,22
 221 1075 221 1075 198 1285 c 0,23,24
 191 1348 191 1348 234 1349 c 2,25,-1
 300 1350 l 2,26,27
 349 1351 349 1351 358 1285 c 0,28,29
 389 1050 389 1050 385 785 c 0,30,31
 382 585 382 585 367 500 c 1,32,33
 377 513 377 513 388 525 c 0,34,35
 639 818 639 818 868 818 c 0,36,37
 1032 818 1032 818 1124 717 c 0,38,39
 1208 625 1208 625 1208 490 c 0,40,41
 1208 385 1208 385 1163 295 c 0,42,43
 1154 278 1154 278 1140 257 c 1,44,45
 1201 180 1201 180 1361 180 c 2,46,-1
 1385 180 l 2,47,48
 1411 180 1411 180 1411 98 c 2,49,-1
 1411 88 l 2,50,51
 1411 0 1411 0 1385 0 c 2,52,-1
 1366 0 l 2,53,54
 1112 0 1112 0 1009 129 c 1,7,8
EndSplineSet
EndChar

StartChar: uniFECA
Encoding: 65226 65226 213
Width: 1274
GlyphClass: 2
Flags: W
AnchorPoint: "Anchor-10" 666.183 1252.91 basechar 0
AnchorPoint: "Anchor-7" 559.281 -871.565 basechar 0
LayerCount: 2
Fore
SplineSet
1253 180 m 2,0,1
 1253 180 1253 180 1280 180 c 0,2,3
 1306 180 1306 180 1306 98 c 2,4,-1
 1306 88 l 2,5,6
 1306 0 1306 0 1280 0 c 2,7,-1
 1257 0 l 2,8,9
 871 0 871 0 641 232 c 1,10,11
 281 25 281 25 267 -216 c 0,12,13
 249 -542 249 -542 688 -542 c 0,14,15
 883 -542 883 -542 1068 -467 c 0,16,17
 1134 -440 1134 -440 1144 -487 c 2,18,-1
 1160 -562 l 2,19,20
 1171 -613 1171 -613 1111 -639 c 0,21,22
 930 -716 930 -716 676 -716 c 0,23,24
 424 -715 424 -715 285 -614 c 0,25,26
 89 -474 89 -474 100 -219 c 0,27,28
 114 105 114 105 493 346 c 1,29,30
 358 450 358 450 297 519 c 0,31,32
 223 602 223 602 224 672 c 0,33,34
 225 781 225 781 414 848 c 0,35,36
 529 890 529 890 739 895 c 0,37,38
 901 899 901 899 1019 866 c 0,39,40
 1157 827 1157 827 1137 719 c 0,41,42
 1111 584 1111 584 773 329 c 1,43,44
 929 180 929 180 1253 180 c 2,0,1
476 565 m 0,45,46
 580 462 580 462 638 422 c 1,47,48
 846 573 846 573 959 708 c 1,49,50
 768 745 768 745 548 709 c 0,51,52
 363 678 363 678 476 565 c 0,45,46
EndSplineSet
EndChar

StartChar: uniFECB
Encoding: 65227 65227 214
Width: 1116
GlyphClass: 2
Flags: W
AnchorPoint: "Anchor-10" 522.183 1268.91 basechar 0
AnchorPoint: "Anchor-7" 487.281 -191.565 basechar 0
LayerCount: 2
Fore
SplineSet
-5 180 m 2,0,-1
 20 180 l 1,1,-1
 236 180 l 1,2,3
 159 260 159 260 172 414 c 0,4,5
 189 603 189 603 333 754 c 0,6,7
 445 871 445 871 596 870 c 0,8,9
 871 866 871 866 898 585 c 0,10,11
 899 572 899 572 882 569 c 2,12,-1
 770 552 l 1,13,14
 750 679 750 679 606 683 c 0,15,16
 448 687 448 687 376 512 c 0,17,18
 264 239 264 239 520 214 c 0,19,20
 637 202 637 202 807 265 c 0,21,22
 875 290 875 290 928 319 c 0,23,24
 969 341 969 341 981 303 c 2,25,-1
 1014 200 l 2,26,27
 1023 173 1023 173 1001 159 c 0,28,29
 766 0 766 0 26 0 c 2,30,-1
 -5 0 l 2,31,32
 -74 0 -74 0 -74 90 c 2,33,-1
 -74 97 l 2,34,35
 -74 180 -74 180 -5 180 c 2,0,-1
EndSplineSet
EndChar

StartChar: uniFECC
Encoding: 65228 65228 215
Width: 1158
GlyphClass: 2
Flags: W
AnchorPoint: "Anchor-7" 547.281 -191.565 basechar 0
AnchorPoint: "Anchor-10" 588.183 1214.91 basechar 0
LayerCount: 2
Fore
SplineSet
1133 0 m 2,0,1
 771 0 771 0 591 132 c 1,2,3
 389 0 389 0 24 0 c 2,4,-1
 -5 0 l 2,5,6
 -74 0 -74 0 -74 90 c 2,7,-1
 -74 97 l 2,8,9
 -74 180 -74 180 -5 180 c 2,10,-1
 18 180 l 2,11,12
 308 180 308 180 460 251 c 1,13,14
 247 416 247 416 142 537 c 1,15,16
 143 705 143 705 351 778 c 0,17,18
 508 833 508 833 679 832 c 0,19,20
 1062 830 1062 830 1066 619 c 0,21,22
 1069 435 1069 435 761 231 c 1,23,24
 834 180 834 180 1128 180 c 2,25,-1
 1165 180 l 2,26,27
 1191 180 1191 180 1191 98 c 2,28,-1
 1191 88 l 2,29,30
 1191 0 1191 0 1165 0 c 2,31,-1
 1133 0 l 2,0,1
606 338 m 1,32,33
 873 488 873 488 875 588 c 0,34,35
 877 667 877 667 685 659 c 0,36,37
 477 650 477 650 332 579 c 1,38,39
 364 529 364 529 606 338 c 1,32,33
EndSplineSet
EndChar

StartChar: uniFEDA
Encoding: 65242 65242 229
Width: 1940
GlyphClass: 2
Flags: W
AnchorPoint: "Anchor-10" 997.183 1473.98 basechar 0
AnchorPoint: "Anchor-7" 812.281 -194.565 basechar 0
LayerCount: 2
Fore
SplineSet
1189 1232 m 4,0,1
 1189 1167 1189 1167 1158 1163 c 4,2,3
 1070 1154 1070 1154 1016 1128 c 4,4,5
 948 1097 948 1097 949 1054 c 4,6,7
 949 990 949 990 1058 973 c 4,8,9
 1199 952 1199 952 1199 846 c 4,10,11
 1200 720 1200 720 1080 652 c 4,12,13
 970 591 970 591 764 620 c 4,14,15
 738 623 738 623 738 651 c 6,16,-1
 738 705 l 6,17,18
 738 729 738 729 769 725 c 4,19,20
 878 713 878 713 936 718 c 4,21,22
 1084 734 1084 734 1098 821 c 4,23,24
 1107 874 1107 874 1012 889 c 4,25,26
 848 915 848 915 849 1059 c 4,27,28
 849 1150 849 1150 945 1206 c 4,29,30
 1024 1253 1024 1253 1166 1262 c 4,31,32
 1189 1264 1189 1264 1189 1232 c 4,0,1
863 152 m 0,33,34
 1129 152 1129 152 1349 204 c 0,35,36
 1487 237 1487 237 1519 298 c 0,37,38
 1555 364 1555 364 1556 772 c 0,39,40
 1556 1097 1556 1097 1533 1286 c 0,41,42
 1526 1348 1526 1348 1570 1349 c 2,43,-1
 1635 1350 l 2,44,45
 1684 1351 1684 1351 1693 1286 c 0,46,47
 1725 1055 1725 1055 1720 785 c 0,48,49
 1716 540 1716 540 1680 334 c 0,50,51
 1654 180 1654 180 1922 180 c 2,52,-1
 1946 180 l 2,53,54
 1972 180 1972 180 1972 98 c 2,55,-1
 1972 88 l 2,56,57
 1972 0 1972 0 1946 0 c 2,58,-1
 1927 0 l 2,59,60
 1681 0 1681 0 1590 121 c 1,61,62
 1422 7 1422 7 1161 -17 c 0,63,64
 1026 -29 1026 -29 839 -29 c 0,65,66
 109 -29 109 -29 107 485 c 0,67,68
 106 631 106 631 176 781 c 0,69,70
 218 868 218 868 265 846 c 2,71,-1
 321 819 l 2,72,73
 362 799 362 799 332 735 c 0,74,75
 275 609 275 609 275 506 c 0,76,77
 274 153 274 153 863 152 c 0,33,34
EndSplineSet
EndChar

StartChar: uniFEDB
Encoding: 65243 65243 230
Width: 940
GlyphClass: 2
Flags: W
AnchorPoint: "Anchor-10" 267.183 1469.45 basechar 0
AnchorPoint: "Anchor-7" 268.281 -208.565 basechar 0
LayerCount: 2
Fore
SplineSet
-5 180 m 2,0,-1
 58 180 l 2,1,2
 231 180 231 180 301 212 c 0,3,4
 455 283 455 283 459 424 c 0,5,6
 462 550 462 550 328 683 c 0,7,8
 241 769 241 769 142 833 c 0,9,10
 44 897 44 897 31 963 c 0,11,12
 8 1078 8 1078 129 1159 c 0,13,14
 428 1361 428 1361 805 1453 c 0,15,16
 885 1472 885 1472 888 1423 c 2,17,-1
 892 1362 l 2,18,19
 896 1305 896 1305 826 1289 c 0,20,21
 526 1218 526 1218 204 1000 c 1,22,23
 630 730 630 730 633 431 c 0,24,25
 634 254 634 254 489 128 c 0,26,27
 414 63 414 63 305 28 c 0,28,29
 214 0 214 0 30 0 c 2,30,-1
 -5 0 l 2,31,32
 -74 0 -74 0 -74 90 c 2,33,-1
 -74 97 l 2,34,35
 -74 180 -74 180 -5 180 c 2,0,-1
EndSplineSet
EndChar

StartChar: uniFEDC
Encoding: 65244 65244 231
Width: 927
GlyphClass: 2
Flags: W
AnchorPoint: "Anchor-7" 268.281 -208.565 basechar 0
AnchorPoint: "Anchor-10" 267.183 1469.45 basechar 0
LayerCount: 2
Fore
SplineSet
910 180 m 2,0,1
 910 180 910 180 934 180 c 0,2,3
 960 180 960 180 960 98 c 2,4,-1
 960 88 l 2,5,6
 960 0 960 0 934 0 c 2,7,-1
 914 0 l 2,8,9
 673 0 673 0 548 190 c 1,10,11
 523 158 523 158 489 128 c 0,12,13
 414 63 414 63 305 28 c 0,14,15
 214 0 214 0 30 0 c 2,16,-1
 -5 0 l 2,17,18
 -74 0 -74 0 -74 90 c 2,19,-1
 -74 97 l 2,20,21
 -74 180 -74 180 -5 180 c 2,22,-1
 58 180 l 2,23,24
 231 180 231 180 301 212 c 0,25,26
 455 283 455 283 459 424 c 0,27,28
 462 550 462 550 328 683 c 0,29,30
 241 769 241 769 142 833 c 0,31,32
 44 897 44 897 31 963 c 0,33,34
 8 1078 8 1078 129 1159 c 0,35,36
 428 1361 428 1361 805 1453 c 0,37,38
 885 1472 885 1472 888 1423 c 2,39,-1
 892 1362 l 2,40,41
 896 1305 896 1305 826 1289 c 0,42,43
 526 1218 526 1218 204 1000 c 1,44,45
 639 723 639 723 633 431 c 0,46,47
 632 402 632 402 629 374 c 1,48,49
 755 180 755 180 910 180 c 2,0,1
EndSplineSet
EndChar

StartChar: uniFEDE
Encoding: 65246 65246 233
Width: 1586
GlyphClass: 2
Flags: W
AnchorPoint: "Anchor-10" 701.183 1136.91 basechar 0
AnchorPoint: "Anchor-7" 644.281 -712.565 basechar 0
LayerCount: 2
Fore
SplineSet
1304 1275 m 0,0,1
 1328 968 1328 968 1333 812 c 0,2,3
 1339 650 1339 650 1353 410 c 5,4,5
 1353 291 1353 291 1425 218 c 4,6,7
 1463 180 1463 180 1549 180 c 2,8,-1
 1593 180 l 2,9,10
 1619 180 1619 180 1619 98 c 2,11,-1
 1619 88 l 2,12,13
 1619 0 1619 0 1593 0 c 2,14,-1
 1563 0 l 2,15,16
 1409 0 1409 0 1342 94 c 1,17,18
 1343 83 1343 83 1341 63 c 0,19,20
 1290 -526 1290 -526 708.939962861 -526.006745363 c 0,21,22
 106 -526 106 -526 105.998336106 -23.6691648141 c 0,23,24
 106 277 106 277 335 563 c 0,25,26
 363 598 363 598 391.431496895 597.770114943 c 0,27,28
 407.34544003 598.005100779 407.34544003 598.005100779 425 586 c 2,29,-1
 475 552 l 2,30,31
 491 541 491 541 491.2 521.6025 c 0,32,33
 491 498 491 498 467 463 c 0,34,35
 278 187 278 187 277.979274611 -1.07323686542 c 0,36,37
 278 -349 278 -349 724.71758781 -349.045454545 c 0,38,39
 1113 -349 1113 -349 1167 44 c 0,40,41
 1188 197 1188 197 1187.48 422.5216 c 0,42,43
 1187 554 1187 554 1181 715 c 0,44,45
 1162 1165 1162 1165 1148 1279 c 0,46,47
 1147 1287 1147 1287 1147.30769231 1294.22189349 c 0,48,49
 1147 1349 1147 1349 1188 1349 c 2,50,-1
 1251 1349 l 2,51,52
 1299 1349 1299 1349 1304 1275 c 0,0,1
EndSplineSet
EndChar

StartChar: uniFEDF
Encoding: 65247 65247 234
Width: 572
GlyphClass: 2
Flags: W
AnchorPoint: "Anchor-7" 236.281 -212.565 basechar 0
AnchorPoint: "Anchor-10" 271.183 1491.98 basechar 0
LayerCount: 2
Fore
SplineSet
-5 180 m 2,0,-1
 51 180 l 2,1,2
 127 180 127 180 180 216 c 0,3,4
 269.906779661 277.101694915 269.906779661 277.101694915 269.906779661 616.30486929 c 0,5,6
 269.906779661 916.195386064 269.906779661 916.195386064 224 1286 c 4,7,8
 222.79245283 1295.66037736 222.79245283 1295.66037736 222.79245283 1303.88536846 c 0,9,10
 222.79245283 1350.1509434 222.79245283 1350.1509434 261 1351 c 2,11,-1
 314 1352 l 2,12,13
 314.919354839 1352.01612903 314.919354839 1352.01612903 315.826222685 1352.01612903 c 0,14,15
 371.14516129 1352.01612903 371.14516129 1352.01612903 380 1292 c 0,16,17
 434.068965517 915.448275862 434.068965517 915.448275862 434.068965517 684.323424495 c 0,18,19
 434.068965517 261.00795756 434.068965517 261.00795756 326 128 c 0,20,21
 223 0 223 0 58 0 c 2,22,-1
 -5 0 l 2,23,24
 -74 0 -74 0 -74 90 c 2,25,-1
 -74 97 l 2,26,27
 -74 180 -74 180 -5 180 c 2,0,-1
EndSplineSet
EndChar

StartChar: uniFEE0
Encoding: 65248 65248 235
Width: 650
GlyphClass: 2
Flags: W
AnchorPoint: "Anchor-10" 271.183 1491.98 basechar 0
AnchorPoint: "Anchor-7" 236.281 -212.565 basechar 0
LayerCount: 2
Fore
SplineSet
632 180 m 2,0,-1
 656 180 l 2,1,2
 682 180 682 180 682 98 c 2,3,-1
 682 88 l 2,4,5
 682 0 682 0 656 0 c 2,6,-1
 637 0 l 2,7,8
 401 0 401 0 310 121 c 1,9,10
 201 0 201 0 20 0 c 2,11,-1
 -5 0 l 2,12,13
 -74 0 -74 0 -74 90 c 2,14,-1
 -74 97 l 2,15,16
 -74 180 -74 180 -5 180 c 2,17,-1
 14 180 l 2,18,19
 212 180 212 180 239 298 c 0,20,21
 263.641025641 402.128205128 263.641025641 402.128205128 263.641025641 597.870479947 c 0,22,23
 263.641025641 939.09981685 263.641025641 939.09981685 223 1286 c 0,24,25
 222.039215686 1294.50980392 222.039215686 1294.50980392 222.039215686 1301.87043445 c 0,26,27
 222.039215686 1348.1372549 222.039215686 1348.1372549 260 1349 c 2,28,-1
 325 1350 l 2,29,30
 325.742424242 1350.01515152 325.742424242 1350.01515152 326.475665748 1350.01515152 c 0,31,32
 374.136363636 1350.01515152 374.136363636 1350.01515152 383 1286 c 0,33,34
 423.907407407 983.111111111 423.907407407 983.111111111 423.907407407 760.521947874 c 0,35,36
 423.907407407 444.97008547 423.907407407 444.97008547 403 334 c 4,37,38
 400.59430605 319.75088968 400.59430605 319.75088968 400.59430605 306.820202378 c 0,39,40
 400.59430605 180 400.59430605 180 632 180 c 2,0,-1
EndSplineSet
EndChar

StartChar: uniFEE2
Encoding: 65250 65250 237
Width: 1242
GlyphClass: 2
Flags: W
AnchorPoint: "Anchor-10" 639.183 1112.91 basechar 0
AnchorPoint: "Anchor-7" 712.281 -406.565 basechar 0
LayerCount: 2
Fore
SplineSet
1215 180 m 2,0,1
 1249 180 l 2,2,3
 1275 180 1275 180 1275 98 c 2,4,-1
 1275 88 l 2,5,6
 1275 0 1275 0 1249 0 c 2,7,-1
 1209 0 l 2,8,9
 1079 0 1079 0 1012 87 c 1,10,11
 988 54 988 54 969 37 c 0,12,13
 893.935251799 -26.5683453237 893.935251799 -26.5683453237 764.44868278 -26.5683453237 c 0,14,15
 702.460431655 -26.5683453237 702.460431655 -26.5683453237 588.015930113 -4.16988694758 c 128,-1,16
 473.571428571 18.2285714286 473.571428571 18.2285714286 416.857142857 18.2285714286 c 128,-1,17
 360.142857143 18.2285714286 360.142857143 18.2285714286 343 10 c 0,18,19
 228.950391645 -45.1148825065 228.950391645 -45.1148825065 228.950391645 -227.399477807 c 128,-1,20
 228.950391645 -409.684073107 228.950391645 -409.684073107 308 -675 c 0,21,22
 318.880597015 -711.268656716 318.880597015 -711.268656716 318.880597015 -742.365671642 c 128,-1,23
 318.880597015 -773.462686567 318.880597015 -773.462686567 295 -786 c 2,24,-1
 225 -823 l 2,25,26
 213.480392157 -829.12745098 213.480392157 -829.12745098 203.582756632 -829.12745098 c 0,27,28
 173.098039216 -829.12745098 173.098039216 -829.12745098 158 -771 c 0,29,30
 71.0398613518 -449.94627383 71.0398613518 -449.94627383 71.0398613518 -234.99295946 c 0,31,32
 71.0398613518 103.750433276 71.0398613518 103.750433276 287 179 c 1,33,34
 305 482 305 482 464 614 c 0,35,36
 565.781609195 698.482758621 565.781609195 698.482758621 666.268463469 698.482758621 c 0,37,38
 815.563218391 698.482758621 815.563218391 698.482758621 962 512 c 0,39,40
 1060.77148218 385.503189493 1060.77148218 385.503189493 1076 277 c 0,41,42
 1090 180 1090 180 1215 180 c 2,0,1
470 191 m 1,43,44
 603 174 603 174 662.006944444 162.326388889 c 128,-1,45
 721.013888889 150.652777778 721.013888889 150.652777778 769.972222222 150.652777778 c 128,-1,46
 818.930555556 150.652777778 818.930555556 150.652777778 855.539863413 184.768377839 c 128,-1,47
 892.149171271 218.883977901 892.149171271 218.883977901 892.149171271 270.975138122 c 128,-1,48
 892.149171271 323.066298343 892.149171271 323.066298343 838 398 c 0,49,50
 748.764912281 520.698245614 748.764912281 520.698245614 666.418147122 520.698245614 c 0,51,52
 623.263157895 520.698245614 623.263157895 520.698245614 582 487 c 0,53,54
 469.709677419 394.693548387 469.709677419 394.693548387 469.709677419 210.01925078 c 0,55,56
 469.709677419 200.629032258 469.709677419 200.629032258 470 191 c 1,43,44
EndSplineSet
EndChar

StartChar: uniFEE3
Encoding: 65251 65251 238
Width: 1054
GlyphClass: 2
Flags: W
AnchorPoint: "Anchor-10" 591.183 1129.91 basechar 0
AnchorPoint: "Anchor-7" 547.281 -241.565 basechar 0
LayerCount: 2
Fore
SplineSet
-5 180 m 2,0,-1
 15 180 l 2,1,2
 153 180 153 180 354 500 c 0,3,4
 484.33995949 708.974811083 484.33995949 708.974811083 654.794326466 708.974811083 c 0,5,6
 908.750629723 708.974811083 908.750629723 708.974811083 945 366 c 0,7,8
 949.719764012 322.460176991 949.719764012 322.460176991 949.719764012 283.681885817 c 0,9,10
 949.719764012 -31.5804878049 949.719764012 -31.5804878049 651.632742415 -31.5804878049 c 0,11,12
 472.473170732 -31.5804878049 472.473170732 -31.5804878049 280 139 c 1,13,14
 174 0 174 0 16 0 c 2,15,-1
 -5 0 l 2,16,17
 -74 0 -74 0 -74 90 c 2,18,-1
 -74 97 l 2,19,20
 -74 180 -74 180 -5 180 c 2,0,-1
391 265 m 1,21,22
 514.25 133.59375 514.25 133.59375 651.461914062 133.59375 c 0,23,24
 784.006060606 133.59375 784.006060606 133.59375 784.006060606 280.776896235 c 0,25,26
 784.006060606 315.727272727 784.006060606 315.727272727 777 359 c 0,27,28
 750.631578947 522.093567251 750.631578947 522.093567251 643.193256045 522.093567251 c 0,29,30
 584.605068226 522.093567251 584.605068226 522.093567251 491 400 c 0,31,32
 441 333 441 333 391 265 c 1,21,22
EndSplineSet
EndChar

StartChar: uniFEE4
Encoding: 65252 65252 239
Width: 1128
GlyphClass: 2
Flags: W
AnchorPoint: "Anchor-7" 547.281 -241.565 basechar 0
AnchorPoint: "Anchor-10" 591.183 1129.91 basechar 0
LayerCount: 2
Fore
SplineSet
1101 180 m 2,0,1
 1101 180 1101 180 1135 180 c 0,2,3
 1161 180 1161 180 1161 98 c 2,4,-1
 1161 88 l 2,5,6
 1161 0 1161 0 1135 0 c 2,7,-1
 1096 0 l 2,8,9
 971 0 971 0 903 110 c 1,10,11
 839.571941463 -31.5804878049 839.571941463 -31.5804878049 651.632742415 -31.5804878049 c 0,12,13
 472.473170732 -31.5804878049 472.473170732 -31.5804878049 280 139 c 1,14,15
 174 0 174 0 12 0 c 2,16,-1
 -5 0 l 2,17,18
 -74 0 -74 0 -74 90 c 2,19,-1
 -74 97 l 2,20,21
 -74 180 -74 180 -5 180 c 2,22,-1
 15 180 l 2,23,24
 153 180 153 180 354 500 c 0,25,26
 484.259350124 708.84556962 484.259350124 708.84556962 653.604851787 708.84556962 c 0,27,28
 908.665822785 708.84556962 908.665822785 708.84556962 945 366 c 0,29,30
 965 180 965 180 1101 180 c 2,0,1
391 265 m 1,31,32
 514.25 133.59375 514.25 133.59375 651.461914062 133.59375 c 0,33,34
 784.006060606 133.59375 784.006060606 133.59375 784.006060606 280.776896235 c 0,35,36
 784.006060606 315.727272727 784.006060606 315.727272727 777 359 c 0,37,38
 750.631578947 522.093567251 750.631578947 522.093567251 643.193256045 522.093567251 c 0,39,40
 583.587621832 522.093567251 583.587621832 522.093567251 491 400 c 0,41,42
 441 333 441 333 391 265 c 1,31,32
EndSplineSet
EndChar

StartChar: uniFEEA
Encoding: 65258 65258 245
Width: 870
GlyphClass: 2
Flags: W
AnchorPoint: "Anchor-7" 367.281 -261.565 basechar 0
AnchorPoint: "Anchor-10" 481.183 971.91 basechar 0
LayerCount: 2
Fore
SplineSet
854 180 m 2,0,1
 854 180 854 180 877 180 c 0,2,3
 903 180 903 180 903 98 c 2,4,-1
 903 88 l 2,5,6
 903 0 903 0 877 0 c 2,7,-1
 848 0 l 2,8,9
 553 0 553 0 506 528 c 1,10,11
 273 468 273 468 274 267 c 0,12,13
 275 138 275 138 379 34 c 0,14,15
 409 4 409 4 367 -26 c 2,16,-1
 298 -76 l 2,17,18
 245 -115 245 -115 164 31 c 0,19,20
 76 189 76 189 115 369 c 0,21,22
 162 588 162 588 397 688 c 0,23,24
 490 728 490 728 544 726 c 0,25,26
 653 721 653 721 670 504 c 0,27,28
 697 180 697 180 854 180 c 2,0,1
EndSplineSet
EndChar

StartChar: uniFEEB
Encoding: 65259 65259 246
Width: 1349
GlyphClass: 2
Flags: W
AnchorPoint: "Anchor-10" 613.183 1352.91 basechar 0
AnchorPoint: "Anchor-7" 564.281 -200.565 basechar 0
LayerCount: 2
Fore
SplineSet
-5 180 m 2,0,-1
 105 180 l 1,1,-1
 269 182 l 1,2,3
 151 272 151 272 150 409 c 0,4,5
 150 495 150 495 203 573 c 0,6,7
 302 714 302 714 460 714 c 0,8,9
 594 715 594 715 687 620 c 0,10,11
 757 548 757 548 760 457 c 0,12,13
 765 295 765 295 632 197 c 1,14,15
 1077 127 1077 127 1087 312 c 0,16,17
 1095 457 1095 457 829 652 c 0,18,19
 635 795 635 795 416 875 c 0,20,21
 339 903 339 903 369 949 c 2,22,-1
 417 1024 l 2,23,24
 438 1055 438 1055 519 1024 c 0,25,26
 667 966 667 966 825 867 c 0,27,28
 1227 617 1227 617 1248 327 c 0,29,30
 1271 30 1271 30 908 4 c 0,31,32
 646 -16 646 -16 460 78 c 1,33,34
 283 0 283 0 8 0 c 2,35,-1
 -5 0 l 2,36,37
 -74 0 -74 0 -74 90 c 2,38,-1
 -74 97 l 2,39,40
 -74 180 -74 180 -5 180 c 2,0,-1
442 234 m 1,41,42
 600 288 600 288 603 416 c 0,43,44
 604 464 604 464 581 498 c 0,45,46
 542 556 542 556 464 556 c 0,47,48
 349 557 349 557 316 465 c 0,49,50
 293 401 293 401 327 339 c 0,51,52
 369 262 369 262 442 234 c 1,41,42
EndSplineSet
EndChar

StartChar: uniFEEC
Encoding: 65260 65260 247
Width: 911
GlyphClass: 2
Flags: W
AnchorPoint: "Anchor-7" 376.281 -760.565 basechar 0
AnchorPoint: "Anchor-10" 453.183 968.91 basechar 0
LayerCount: 2
Fore
SplineSet
899 0 m 2,0,1
 707 0 707 0 588 -279 c 0,2,3
 516 -446 516 -446 470 -526 c 0,4,5
 421 -612 421 -612 369 -612 c 0,6,7
 222 -612 222 -612 237 -226 c 0,8,9
 245 -27 245 -27 297 128 c 1,10,-1
 293 130 l 1,11,12
 273 90 273 90 194 45 c 0,13,14
 113 0 113 0 8 0 c 2,15,-1
 -5 0 l 2,16,17
 -74 0 -74 0 -74 90 c 2,18,-1
 -74 97 l 2,19,20
 -74 180 -74 180 -5 180 c 2,21,-1
 27 180 l 2,22,23
 206 181 206 181 380 344 c 0,24,25
 498 456 498 456 549 410 c 0,26,27
 594 371 594 371 511 224 c 0,28,29
 423 69 423 69 393 -88 c 0,30,31
 358 -279 358 -279 372 -416 c 1,32,33
 580 180 580 180 900 180 c 2,34,-1
 914 180 l 2,35,36
 940 180 940 180 940 98 c 2,37,-1
 940 88 l 2,38,39
 940 0 940 0 914 0 c 2,40,-1
 899 0 l 2,0,1
EndSplineSet
EndChar

StartChar: uniFEEE
Encoding: 65262 65262 249
Width: 872
GlyphClass: 2
Flags: W
AnchorPoint: "Anchor-10" 423.183 1103.91 basechar 0
AnchorPoint: "Anchor-7" 337.281 -673.565 basechar 0
LayerCount: 2
Fore
SplineSet
878 180 m 2,0,1
 904 180 904 180 904 98 c 2,2,-1
 904 88 l 2,3,4
 904 0 904 0 878 0 c 2,5,-1
 741 0 l 1,6,7
 715 -160 715 -160 596 -295 c 0,8,9
 442 -470 442 -470 166 -505 c 0,10,11
 143 -508 143 -508 120 -476 c 2,12,-1
 80 -420 l 2,13,14
 55 -385 55 -385 92 -377 c 0,15,16
 504 -286 504 -286 590 1 c 1,17,18
 105 1 105 1 104 353 c 0,19,20
 103 516 103 516 189 626 c 0,21,22
 277 740 277 740 414 740 c 0,23,24
 609 740 609 740 691 555 c 0,25,26
 754 413 754 413 763 180 c 1,27,-1
 878 180 l 2,0,1
407 555 m 0,28,29
 336 555 336 555 293 493 c 0,30,31
 257 440 257 440 257 362 c 0,32,33
 258 180 258 180 604 179 c 1,34,35
 601 297 601 297 579 387 c 0,36,37
 538 556 538 556 407 555 c 0,28,29
EndSplineSet
EndChar

StartChar: uniFEF0
Encoding: 65264 65264 251
Width: 1412
GlyphClass: 2
Flags: W
AnchorPoint: "Anchor-10" 769.183 846.91 basechar 0
AnchorPoint: "Anchor-7" 626.281 -934.565 basechar 0
LayerCount: 2
Fore
SplineSet
1384 0 m 2,0,1
 1176 0 1176 0 1125 -63 c 0,2,3
 1106 -87 1106 -87 1168 -128 c 0,4,5
 1274 -200 1274 -200 1289 -260 c 0,6,7
 1340 -482 1340 -482 1051 -622 c 0,8,9
 892 -700 892 -700 655 -700 c 0,10,11
 139 -700 139 -700 110 -301 c 0,12,13
 99 -140 99 -140 192 97 c 0,14,15
 262 274 262 274 364 419 c 0,16,17
 404 475 404 475 445 449 c 2,18,-1
 492 419 l 2,19,20
 524 399 524 399 489 325 c 0,21,22
 457 256 457 256 422 189 c 0,23,24
 257 -133 257 -133 299 -307 c 0,25,26
 354 -529 354 -529 668 -526 c 0,27,28
 974 -524 974 -524 1101 -379 c 0,29,30
 1156 -316 1156 -316 1099 -278 c 0,31,32
 932 -166 932 -166 936 -81 c 0,33,34
 941 5 941 5 999 72 c 0,35,36
 1094 180 1094 180 1385 180 c 2,37,-1
 1418 180 l 2,38,39
 1445 180 1445 180 1445 98 c 2,40,-1
 1445 88 l 2,41,42
 1445 0 1445 0 1418 0 c 2,43,-1
 1384 0 l 2,0,1
EndSplineSet
EndChar

StartChar: uniFEFB
Encoding: 65275 65275 262
Width: 1100
GlyphClass: 3
Flags: W
AnchorPoint: "Anchor-9" 175.642 1406.64 baselig 1
AnchorPoint: "Anchor-6" 288.021 -242.333 baselig 1
AnchorPoint: "Anchor-6" 833.078 -222.55 baselig 0
AnchorPoint: "Anchor-9" 847.01 1492.35 baselig 0
LayerCount: 2
Fore
SplineSet
647 244 m 1,0,1
 803 375 803 375 800 721 c 0,2,3
 797 1011 797 1011 768 1294 c 0,4,5
 762 1354 762 1354 805 1355 c 2,6,-1
 880 1356 l 2,7,8
 922 1357 922 1357 930 1292 c 0,9,10
 958 1072 958 1072 960 728 c 0,11,12
 961 497 961 497 909 345 c 0,13,14
 822 84 822 84 507 -2 c 0,15,16
 369 -40 369 -40 225 -40 c 0,17,18
 165 -40 165 -40 152 -25 c 0,19,20
 131 -1 131 -1 127 94 c 0,21,22
 125 137 125 137 187 133 c 0,23,24
 366 122 366 122 508 170 c 1,25,-1
 107 1052 l 2,26,27
 77 1119 77 1119 102 1138 c 2,28,-1
 174 1193 l 2,29,30
 219 1228 219 1228 247 1165 c 2,31,-1
 647 244 l 1,0,1
EndSplineSet
LCarets2: 1 0
Ligature2: "'rlig' Required Ligatures in Arabic lookup 16 subtable" uniFEDF uniFE8E
EndChar

StartChar: uniFEFC
Encoding: 65276 65276 263
Width: 1218
GlyphClass: 3
Flags: W
AnchorPoint: "Anchor-9" 879.01 1485.81 baselig 0
AnchorPoint: "Anchor-6" 881.078 -214.55 baselig 0
AnchorPoint: "Anchor-6" 288.021 -242.333 baselig 1
AnchorPoint: "Anchor-9" 175.642 1406.64 baselig 1
LayerCount: 2
Fore
SplineSet
863 257 m 1,0,1
 774 70 774 70 507 -2 c 0,2,3
 366 -40 366 -40 225 -40 c 0,4,5
 165 -40 165 -40 152 -25 c 0,6,7
 131 -1 131 -1 127 94 c 0,8,9
 125 137 125 137 187 133 c 0,10,11
 366 122 366 122 508 170 c 1,12,-1
 107 1052 l 2,13,14
 77 1119 77 1119 102 1138 c 2,15,-1
 174 1193 l 2,16,17
 219 1228 219 1228 247 1165 c 2,18,-1
 647 244 l 1,19,20
 818 356 818 356 808 682 c 2,21,-1
 789 1293 l 2,22,23
 788 1348 788 1348 833 1349 c 2,24,-1
 917 1349 l 2,25,26
 962 1350 962 1350 962 1290 c 2,27,-1
 962 732 l 2,28,29
 962 441 962 441 1018 329 c 0,30,31
 1089 180 1089 180 1211 180 c 2,32,-1
 1224 180 l 2,33,34
 1250 180 1250 180 1250 98 c 2,35,-1
 1250 88 l 2,36,37
 1250 0 1250 0 1224 0 c 2,38,-1
 1210 0 l 2,39,40
 958 0 958 0 863 257 c 1,0,1
EndSplineSet
LCarets2: 1 0
Ligature2: "'rlig' Required Ligatures in Arabic lookup 16 subtable" uniFEE0 uniFE8E
EndChar

StartChar: arabic_dot
Encoding: 65536 -1 264
Width: 170
VWidth: 2375
GlyphClass: 2
Flags: W
LayerCount: 2
Fore
SplineSet
119.638671875 201.487304688 m 2,0,-1
 137.20703125 185.803710938 l 2,1,2
 247.283203125 87.556640625 247.283203125 87.556640625 137.533203125 -7.005859375 c 2,3,-1
 105.028320312 -35.013671875 l 6,4,5
 79.3056640625 -57.392578125 79.3056640625 -57.392578125 53.6552734375 -33.8173828125 c 6,6,-1
 -45.189453125 56.46875 l 2,7,8
 -72.9375 80.46484375 -72.9375 80.46484375 -45.875 108.955078125 c 2,9,-1
 48.97265625 203.495117188 l 2,10,11
 82.388671875 234.741210938 82.388671875 234.741210938 119.638671875 201.487304688 c 2,0,-1
EndSplineSet
EndChar

StartChar: arabic_2dots
Encoding: 65537 -1 265
Width: 520
VWidth: 2375
GlyphClass: 2
Flags: W
LayerCount: 2
Fore
SplineSet
148.372070312 201.638671875 m 6,0,-1
 165.9296875 185.96484375 l 6,1,2
 271.552734375 91.6669921875 271.552734375 91.6669921875 166.321289062 1 c 6,3,-1
 133.817382812 -27.005859375 l 6,4,5
 110.412109375 -47.173828125 110.412109375 -47.173828125 89.55859375 -26.0927734375 c 6,6,-1
 -10.1015625 64.890625 l 6,7,8
 -33.4912109375 84.5771484375 -33.4912109375 84.5771484375 -9.8974609375 109.415039062 c 6,9,-1
 84.7294921875 203.73828125 l 6,10,11
 114.663085938 231.729492188 114.663085938 231.729492188 148.372070312 201.638671875 c 6,0,-1
445.560546875 199.31640625 m 6,12,-1
 463.118164062 183.642578125 l 6,13,14
 568.734375 89.33984375 568.734375 89.33984375 463.509765625 -1.3212890625 c 6,15,-1
 430.546875 -29.724609375 l 6,16,17
 407.159179688 -49.05078125 407.159179688 -49.05078125 386.747070312 -28.4150390625 c 6,18,-1
 287.532226562 62.2109375 l 6,19,20
 264.005859375 83.48046875 264.005859375 83.48046875 287.291992188 107.09375 c 6,21,-1
 381.918945312 201.416992188 l 6,22,23
 411.8515625 229.409179688 411.8515625 229.409179688 445.560546875 199.31640625 c 6,12,-1
EndSplineSet
EndChar

StartChar: arabic_3dots
Encoding: 65538 -1 266
Width: 524
VWidth: 2375
GlyphClass: 2
Flags: W
LayerCount: 2
Fore
SplineSet
291.799804688 426.2734375 m 2,0,-1
 309.294921875 410.653320312 l 2,1,2
 410.489257812 320.327148438 410.489257812 320.327148438 309.758789062 233.533203125 c 2,3,-1
 277.252929688 205.52734375 l 2,4,5
 257.541015625 188.540039062 257.541015625 188.540039062 240.108398438 206.157226562 c 2,6,-1
 140.684570312 296.98828125 l 2,7,8
 120.490234375 314.288085938 120.490234375 314.288085938 140.627929688 334.299804688 c 2,9,-1
 235.1953125 428.564453125 l 2,10,11
 261.5859375 453.2421875 261.5859375 453.2421875 291.799804688 426.2734375 c 2,0,-1
135.015625 181.380859375 m 2,12,-1
 152.57421875 165.704101562 l 2,13,14
 253.775390625 75.3818359375 253.775390625 75.3818359375 153.038085938 -11.4150390625 c 2,15,-1
 120.532226562 -39.4228515625 l 2,16,17
 100.817382812 -56.408203125 100.817382812 -56.408203125 83.3896484375 -38.79296875 c 2,18,-1
 -16.0390625 52.0390625 l 2,19,20
 -35.2861328125 69.1806640625 -35.2861328125 69.1806640625 -16.0439453125 89.400390625 c 2,21,-1
 78.4755859375 183.616210938 l 2,22,23
 104.866210938 208.293945312 104.866210938 208.293945312 135.015625 181.380859375 c 2,12,-1
445.848632812 183.958007812 m 2,24,-1
 463.694335938 168.026367188 l 2,25,26
 564.068359375 78.44140625 564.068359375 78.44140625 464.771484375 -8.5634765625 c 2,27,-1
 431.65234375 -37.099609375 l 2,28,29
 411.940429688 -54.0869140625 411.940429688 -54.0869140625 394.5078125 -36.4697265625 c 2,30,-1
 295.1171875 54.3271484375 l 2,31,32
 275.69921875 72.1767578125 275.69921875 72.1767578125 295.026367188 91.6748046875 c 2,33,-1
 389.595703125 185.9375 l 2,34,35
 416.208984375 210.416015625 416.208984375 210.416015625 445.848632812 183.958007812 c 2,24,-1
EndSplineSet
EndChar

StartChar: arabic_3dots_a
Encoding: 65539 -1 267
Width: 523
VWidth: 2375
GlyphClass: 2
Flags: W
LayerCount: 2
Fore
SplineSet
137.919921875 211.986328125 m 6,0,-1
 155.4765625 196.313476562 l 6,1,2
 256.233398438 106.37109375 256.233398438 106.37109375 156.37890625 19.5703125 c 6,3,-1
 123.434570312 -8.8134765625 l 6,4,5
 103.719726562 -25.8017578125 103.719726562 -25.8017578125 86.2919921875 -8.18359375 c 6,6,-1
 -13.0791015625 82.59375 l 6,7,8
 -32.197265625 100.368164062 -32.197265625 100.368164062 -13.1591796875 119.990234375 c 6,9,-1
 81.376953125 214.223632812 l 6,10,11
 107.594726562 239.057617188 107.594726562 239.057617188 137.919921875 211.986328125 c 6,0,-1
446.705078125 210.836914062 m 6,12,-1
 464.275390625 195.151367188 l 6,13,14
 565.465820312 104.821289062 565.465820312 104.821289062 464.737304688 18.0322265625 c 6,15,-1
 432.232421875 -9.9755859375 l 6,16,17
 412.450195312 -26.89453125 412.450195312 -26.89453125 395.087890625 -9.3447265625 c 6,18,-1
 295.7109375 81.4404296875 l 6,19,20
 276.666015625 99.3046875 276.666015625 99.3046875 295.63671875 118.828125 c 6,21,-1
 390.258789062 213.146484375 l 6,22,23
 415.537109375 239.028320312 415.537109375 239.028320312 446.705078125 210.836914062 c 6,12,-1
291.434570312 -22.76171875 m 6,24,-1
 308.715820312 -38.1875 l 6,25,26
 409.908203125 -128.512695312 409.908203125 -128.512695312 309.177734375 -215.30859375 c 6,27,-1
 276.673828125 -243.314453125 l 6,28,29
 256.961914062 -260.302734375 256.961914062 -260.302734375 239.436523438 -242.58984375 c 6,30,-1
 140.030273438 -151.788085938 l 6,31,32
 120.388671875 -135.567382812 120.388671875 -135.567382812 140.09765625 -114.490234375 c 6,33,-1
 234.616210938 -20.2763671875 l 6,34,35
 261.005859375 4.40234375 261.005859375 4.40234375 291.434570312 -22.76171875 c 6,24,-1
EndSplineSet
EndChar

StartChar: uni066E.fina
Encoding: 65540 -1 268
Width: 2070
GlyphClass: 2
Flags: W
AnchorPoint: "Anchor-5" 750 1229 basechar 0
AnchorPoint: "Anchor-3" 750 -209 basechar 0
LayerCount: 2
Fore
SplineSet
2065 0 m 2,0,1
 1747 0 1747 0 1725 249 c 1,2,3
 1447 -29 1447 -29 839 -29 c 0,4,5
 109 -29 109 -29 107 485 c 0,6,7
 106 631 106 631 176 781 c 0,8,9
 218 868 218 868 265 846 c 2,10,-1
 321 819 l 2,11,12
 362 799 362 799 332 735 c 0,13,14
 274 607 274 607 275 506 c 0,15,16
 276 153 276 153 863 152 c 0,17,18
 1145 152 1145 152 1340 218 c 0,19,20
 1636 316 1636 316 1729 565 c 0,21,22
 1750 620 1750 620 1784 620 c 2,23,-1
 1834 620 l 2,24,25
 1869 620 1869 620 1864 583 c 2,26,-1
 1855 509 l 2,27,28
 1812 180 1812 180 2066 180 c 2,29,-1
 2076 180 l 2,30,31
 2102 180 2102 180 2102 98 c 2,32,-1
 2102 88 l 2,33,34
 2102 0 2102 0 2076 0 c 2,35,-1
 2065 0 l 2,0,1
EndSplineSet
EndChar

StartChar: uni06A1.fina
Encoding: 65543 -1 269
Width: 2022
GlyphClass: 2
Flags: W
AnchorPoint: "Anchor-5" 624 1353 basechar 0
AnchorPoint: "Anchor-3" 749 -261 basechar 0
LayerCount: 2
Fore
SplineSet
2003 0 m 2,0,1
 1659 0 1659 0 1532 105 c 1,2,3
 1356 -29 1356 -29 839 -29 c 0,4,5
 109 -29 109 -29 107 485 c 0,6,7
 106 631 106 631 176 781 c 0,8,9
 218 868 218 868 265 846 c 2,10,-1
 321 819 l 2,11,12
 362 799 362 799 332 735 c 0,13,14
 274 607 274 607 275 506 c 0,15,16
 277 153 277 153 863 152 c 0,17,18
 1215 152 1215 152 1359 201 c 1,19,20
 1202 339 1202 339 1201 536 c 0,21,22
 1201 679 1201 679 1304 776 c 0,23,24
 1404 870 1404 870 1539 870 c 0,25,26
 1676 869 1676 869 1777 776 c 0,27,28
 1879 682 1879 682 1880 536 c 0,29,30
 1880 346 1880 346 1706 190 c 1,31,32
 1854 180 1854 180 2004 180 c 2,33,-1
 2028 180 l 2,34,35
 2054 180 2054 180 2054 98 c 2,36,-1
 2054 88 l 2,37,38
 2054 0 2054 0 2028 0 c 2,39,-1
 2003 0 l 2,0,1
1540 695 m 0,40,41
 1471 695 1471 695 1424 650 c 0,42,43
 1368 594 1368 594 1368 531 c 0,44,45
 1367 390 1367 390 1541 278 c 1,46,47
 1713 389 1713 389 1714 531 c 0,48,49
 1714 595 1714 595 1657 650 c 0,50,51
 1610 695 1610 695 1540 695 c 0,40,41
EndSplineSet
EndChar

StartChar: uni06A1.init
Encoding: 65544 -1 270
Width: 837
GlyphClass: 2
Flags: W
AnchorPoint: "Anchor-5" 419 1356 basechar 0
AnchorPoint: "Anchor-3" 400 -199 basechar 0
LayerCount: 2
Fore
SplineSet
-5 180 m 2,0,-1
 34 180 l 2,1,2
 360 180 360 180 441 254 c 1,3,4
 78 328 78 328 78 624 c 0,5,6
 78 732 78 732 121 816 c 0,7,8
 205 979 205 979 378 992 c 0,9,10
 524 1002 524 1002 624 898 c 0,11,12
 722 794 722 794 736 610 c 0,13,14
 749 451 749 451 693 316 c 0,15,16
 600 92 600 92 326 29 c 0,17,18
 197 0 197 0 34 0 c 2,19,-1
 -5 0 l 2,20,21
 -74 0 -74 0 -74 90 c 2,22,-1
 -74 97 l 2,23,24
 -74 180 -74 180 -5 180 c 2,0,-1
268 730 m 0,25,26
 245 688 245 688 245 634 c 0,27,28
 245 441 245 441 537 389 c 1,29,30
 572 497 572 497 565 592 c 0,31,32
 555 714 555 714 495 770 c 0,33,34
 449 812 449 812 382 807 c 0,35,36
 306 801 306 801 268 730 c 0,25,26
EndSplineSet
EndChar

StartChar: uni06A1.medi
Encoding: 65545 -1 271
Width: 944
GlyphClass: 2
Flags: W
AnchorPoint: "Anchor-5" 512 1166 basechar 0
AnchorPoint: "Anchor-3" 491 -199 basechar 0
LayerCount: 2
Fore
SplineSet
925 0 m 2,0,1
 625 0 625 0 517 115 c 1,2,3
 384 0 384 0 29 0 c 2,4,-1
 -5 0 l 2,5,6
 -74 0 -74 0 -74 90 c 2,7,-1
 -74 97 l 2,8,9
 -74 180 -74 180 -5 180 c 2,10,-1
 17 180 l 2,11,12
 152 180 152 180 349 190 c 1,13,14
 176 344 176 344 176 535 c 0,15,16
 176 679 176 679 279 776 c 0,17,18
 378 870 378 870 514 870 c 0,19,20
 650 869 650 869 751 776 c 0,21,22
 854 682 854 682 854 535 c 0,23,24
 855 346 855 346 680 190 c 1,25,26
 782 180 782 180 927 180 c 2,27,-1
 950 180 l 2,28,29
 976 180 976 180 976 98 c 2,30,-1
 976 88 l 2,31,32
 976 0 976 0 950 0 c 2,33,-1
 925 0 l 2,0,1
515 695 m 256,34,35
 445 695 445 695 399 650 c 0,36,37
 342 593 342 593 342 531 c 0,38,39
 341 390 341 390 515 278 c 1,40,41
 688 390 688 390 688 531 c 0,42,43
 688 595 688 595 631 650 c 0,44,45
 585 695 585 695 515 695 c 256,34,35
EndSplineSet
EndChar

StartChar: uni066F.fina
Encoding: 65546 -1 272
Width: 1537
GlyphClass: 2
Flags: W
AnchorPoint: "Anchor-5" 233 1042 basechar 0
AnchorPoint: "Anchor-3" 330 -836 basechar 0
LayerCount: 2
Fore
SplineSet
1252 1 m 1,0,1
 767 1 767 1 766 353 c 0,2,3
 765 516 765 516 851 626 c 0,4,5
 939 740 939 740 1076 740 c 0,6,7
 1271 740 1271 740 1353 555 c 0,8,9
 1416 413 1416 413 1425 180 c 1,10,-1
 1543 180 l 2,11,12
 1569 180 1569 180 1569 99 c 2,13,-1
 1569 88 l 2,14,15
 1569 0 1569 0 1543 1 c 2,16,-1
 1422 2 l 1,17,18
 1385 -580 1385 -580 753 -578 c 0,19,20
 110 -576 110 -576 113 -74 c 0,21,22
 114 225 114 225 342 511 c 0,23,24
 385 566 385 566 431 534 c 2,25,-1
 481 500 l 2,26,27
 517 475 517 475 474 411 c 0,28,29
 283 130 283 130 284 -57 c 0,30,31
 285 -405 285 -405 783 -401 c 0,32,33
 1144 -398 1144 -398 1228 -148 c 0,34,35
 1252 -77 1252 -77 1252 1 c 1,0,1
1069 555 m 0,36,37
 998 555 998 555 955 493 c 0,38,39
 919 440 919 440 919 362 c 0,40,41
 920 180 920 180 1266 179 c 1,42,43
 1263 297 1263 297 1241 387 c 0,44,45
 1200 556 1200 556 1069 555 c 0,36,37
EndSplineSet
EndChar

StartChar: arabic_ring
Encoding: 65549 -1 273
Width: 505
VWidth: 2375
GlyphClass: 2
Flags: W
LayerCount: 2
Fore
SplineSet
308.924804688 352.737304688 m 0,0,1
 283.370117188 368.002929688 283.370117188 368.002929688 243.0078125 368.002929688 c 128,-1,2
 202.64453125 368.002929688 202.64453125 368.002929688 169.528320312 334.88671875 c 128,-1,3
 136.411132812 301.770507812 136.411132812 301.770507812 136.411132812 252.728515625 c 128,-1,4
 136.411132812 203.688476562 136.411132812 203.688476562 169.538085938 171.15234375 c 128,-1,5
 202.666015625 138.616210938 202.666015625 138.616210938 251.116210938 138.616210938 c 0,6,7
 299.567382812 138.616210938 299.567382812 138.616210938 332.682617188 171.732421875 c 128,-1,8
 365.798828125 204.84765625 365.798828125 204.84765625 365.798828125 261.807617188 c 128,-1,9
 365.798828125 318.765625 365.798828125 318.765625 308.924804688 352.737304688 c 0,0,1
503.25390625 253.309570312 m 128,-1,11
 503.25390625 147.362304688 503.25390625 147.362304688 430.1484375 73.6806640625 c 128,-1,12
 357.04296875 0 357.04296875 0 251.10546875 0 c 128,-1,13
 145.176757812 0 145.176757812 0 72.06640625 73.685546875 c 128,-1,14
 -1.0439453125 147.372070312 -1.0439453125 147.372070312 -1.0439453125 253.309570312 c 128,-1,15
 -1.0439453125 359.247070312 -1.0439453125 359.247070312 72.0615234375 432.353515625 c 128,-1,16
 145.166992188 505.458984375 145.166992188 505.458984375 251.10546875 505.458984375 c 128,-1,17
 357.052734375 505.458984375 357.052734375 505.458984375 430.729492188 432.93359375 c 0,18,10
 503.25390625 359.256835938 503.25390625 359.256835938 503.25390625 253.309570312 c 128,-1,11
EndSplineSet
EndChar

StartChar: arabic_gaf_bar
Encoding: 65550 -1 274
Width: 778
VWidth: 2375
GlyphClass: 2
Flags: W
LayerCount: 2
Fore
SplineSet
736.7109375 1855.54980469 m 0,0,1
 394.625976562 1774.453125 394.625976562 1774.453125 20.8701171875 1532.90917969 c 0,2,3
 -1.0439453125 1518.74804688 -1.0439453125 1518.74804688 -1.0439453125 1543.33691406 c 6,4,-1
 -1.0439453125 1612.20703125 l 2,5,6
 -1.0439453125 1639.81640625 -1.0439453125 1639.81640625 20.8701171875 1654.24414062 c 0,7,8
 379.655273438 1890.47363281 379.655273438 1890.47363281 742.971679688 1978.97558594 c 0,9,10
 767.9375 1985.05761719 767.9375 1985.05761719 767.9375 1961.78027344 c 2,11,-1
 767.9375 1892.90917969 l 2,12,13
 767.9375 1862.95214844 767.9375 1862.95214844 736.7109375 1855.54980469 c 0,0,1
EndSplineSet
EndChar

StartChar: uni066E.init.math
Encoding: 65560 -1 283
Width: 1014
VWidth: 2529
GlyphClass: 2
Flags: W
LayerCount: 2
Fore
SplineSet
661.139648438 108.400390625 m 0,0,1
 577.967773438 9.8671875 577.967773438 9.8671875 394.359375 9.8671875 c 2,2,-1
 -4.9912109375 9.8671875 l 1,3,-1
 -4.9912109375 192.458007812 l 1,4,-1
 326.041015625 192.458007812 l 2,5,6
 587.517578125 192.458007812 587.517578125 192.458007812 587.517578125 462.629882812 c 2,7,-1
 587.517578125 709.194335938 l 1,8,-1
 770.109375 709.194335938 l 1,9,-1
 770.109375 462.629882812 l 2,10,11
 770.109375 239.349609375 770.109375 239.349609375 661.139648438 108.400390625 c 0,0,1
EndSplineSet
EndChar

StartChar: guillemotleft
Encoding: 171 171 284
Width: 1004
VWidth: 2264
Flags: W
LayerCount: 2
Fore
SplineSet
389.724609375 958.270507812 m 1,0,-1
 557.287109375 958.270507812 l 1,1,-1
 521.833984375 895.9296875 l 2,2,3
 309 521 309 521 308.49609375 478.899414062 c 4,4,5
 309.005120338 435.564086607 309.005120338 435.564086607 521.778320312 62.9150390625 c 2,6,-1
 557.41015625 0.509765625 l 1,7,-1
 389.764648438 0.509765625 l 1,8,9
 132 408 132 408 132.146484375 478.96484375 c 4,10,11
 132 550 132 550 389.724609375 958.270507812 c 1,0,-1
753.489257812 0.509765625 m 1,12,13
 495 407 495 407 495.487304688 478.96484375 c 4,14,15
 495 550 495 550 753.44921875 958.270507812 c 1,16,-1
 921.009765625 958.270507812 l 1,17,-1
 885.557617188 895.931640625 l 2,18,19
 672 520 672 520 671.84375 478.681640625 c 4,20,21
 672.000692414 436.815289901 672.000692414 436.815289901 885.5 62.9150390625 c 2,22,-1
 921.133789062 0.509765625 l 1,23,-1
 753.489257812 0.509765625 l 1,12,13
EndSplineSet
EndChar

StartChar: guillemotright
Encoding: 187 187 285
Width: 998
VWidth: 2264
Flags: W
LayerCount: 2
Fore
SplineSet
614.959960938 958.270507812 m 1,0,1
 873 550 873 550 872.538085938 478.96484375 c 4,2,3
 873 407 873 407 614.919921875 0.509765625 c 1,4,-1
 447.274414062 0.509765625 l 1,5,-1
 482.905273438 62.9130859375 l 2,6,7
 696 436 696 436 696.189453125 478.899414062 c 4,8,9
 695.999367123 521.140639056 695.999367123 521.140639056 482.8515625 895.9296875 c 2,10,-1
 447.397460938 958.270507812 l 1,11,-1
 614.959960938 958.270507812 l 1,0,1
251.233398438 958.270507812 m 1,12,13
 509 550 509 550 509.405273438 478.96484375 c 4,14,15
 509 407 509 407 251.194335938 0.509765625 c 1,16,-1
 83.5517578125 0.509765625 l 1,17,-1
 119.18359375 62.9130859375 l 2,18,19
 333 437 333 437 333.044921875 478.907226562 c 4,20,21
 333.000156883 519.85648986 333.000156883 519.85648986 119.127929688 895.9296875 c 2,22,-1
 83.6748046875 958.270507812 l 1,23,-1
 251.233398438 958.270507812 l 1,12,13
EndSplineSet
EndChar

